  0
SECTION
  2
HEADER
  9
$ACADVER
  1
AC1014
  9
$HANDSEED
  5
FFFF
  9
$MEASUREMENT
 70
     1
  0
ENDSEC
  0
SECTION
  2
TABLES
  0
TABLE
  2
VPORT
  5
8
330
0
100
AcDbSymbolTable
 70
     4
  0
VPORT
  5
2E
330
8
100
AcDbSymbolTableRecord
100
AcDbViewportTableRecord
  2
*ACTIVE
 70
     0
 10
0.0
 20
0.0
 11
1.0
 21
1.0
 12
210.0
 22
148.5
 13
0.0
 23
0.0
 14
10.0
 24
10.0
 15
10.0
 25
10.0
 16
0.0
 26
0.0
 36
1.0
 17
0.0
 27
0.0
 37
0.0
 40
341.0
 41
1.24
 42
50.0
 43
0.0
 44
0.0
 50
0.0
 51
0.0
 71
     0
 72
   100
 73
     1
 74
     3
 75
     0
 76
     0
 77
     0
 78
     0
  0
ENDTAB
  0
TABLE
  2
LTYPE
  5
5
330
0
100
AcDbSymbolTable
 70
     1
  0
LTYPE
  5
14
330
5
100
AcDbSymbolTableRecord
100
AcDbLinetypeTableRecord
  2
BYBLOCK
 70
     0
  3

 72
    65
 73
     0
 40
0.0
  0
LTYPE
  5
15
330
5
100
AcDbSymbolTableRecord
100
AcDbLinetypeTableRecord
  2
BYLAYER
 70
     0
  3

 72
    65
 73
     0
 40
0.0
  0
LTYPE
  5
16
330
5
100
AcDbSymbolTableRecord
100
AcDbLinetypeTableRecord
  2
CONTINUOUS
 70
     0
  3
Solid line
 72
    65
 73
     0
 40
0.0
  0
ENDTAB
  0
TABLE
  2
LAYER
  5
2
100
AcDbSymbolTable
 70
2
  0
LAYER
  5
50
100
AcDbSymbolTableRecord
100
AcDbLayerTableRecord
  2
0
 70
0
  6
CONTINUOUS
  0
LAYER
  5
51
100
AcDbSymbolTableRecord
100
AcDbLayerTableRecord
  2
Layer_1
 70
0
  6
CONTINUOUS
  0
ENDTAB
  0
TABLE
  2
STYLE
  5
3
330
0
100
AcDbSymbolTable
 70
     1
  0
STYLE
  5
11
330
3
100
AcDbSymbolTableRecord
100
AcDbTextStyleTableRecord
  2
STANDARD
 70
     0
 40
0.0
 41
1.0
 50
0.0
 71
     0
 42
2.5
  3
txt
  4

  0
ENDTAB
  0
TABLE
  2
VIEW
  5
6
330
0
100
AcDbSymbolTable
 70
     0
  0
ENDTAB
  0
TABLE
  2
UCS
  5
7
330
0
100
AcDbSymbolTable
 70
     0
  0
ENDTAB
  0
TABLE
  2
APPID
  5
9
330
0
100
AcDbSymbolTable
 70
     2
  0
APPID
  5
12
330
9
100
AcDbSymbolTableRecord
100
AcDbRegAppTableRecord
  2
ACAD
 70
     0
  0
ENDTAB
  0
TABLE
  2
DIMSTYLE
  5
A
330
0
100
AcDbSymbolTable
 70
     1
  0
DIMSTYLE
105
27
330
A
100
AcDbSymbolTableRecord
100
AcDbDimStyleTableRecord
  2
ISO-25
 70
     0
  3

  4

  5

  6

  7

 40
1.0
 41
2.5
 42
0.625
 43
3.75
 44
1.25
 45
0.0
 46
0.0
 47
0.0
 48
0.0
140
2.5
141
2.5
142
0.0
143
0.03937007874016
144
1.0
145
0.0
146
1.0
147
0.625
 71
     0
 72
     0
 73
     0
 74
     0
 75
     0
 76
     0
 77
     1
 78
     8
170
     0
171
     3
172
     1
173
     0
174
     0
175
     0
176
     0
177
     0
178
     0
270
     2
271
     2
272
     2
273
     2
274
     3
340
11
275
     0
280
     0
281
     0
282
     0
283
     0
284
     8
285
     0
286
     0
287
     3
288
     0
  0
ENDTAB
  0
TABLE
  2
BLOCK_RECORD
  5
1
330
0
100
AcDbSymbolTable
 70
     1
  0
BLOCK_RECORD
  5
1F
330
1
100
AcDbSymbolTableRecord
100
AcDbBlockTableRecord
  2
*MODEL_SPACE
  0
BLOCK_RECORD
  5
1B
330
1
100
AcDbSymbolTableRecord
100
AcDbBlockTableRecord
  2
*PAPER_SPACE
  0
ENDTAB
  0
ENDSEC
  0
SECTION
  2
BLOCKS
  0
BLOCK
  5
20
330
1F
100
AcDbEntity
  8
0
100
AcDbBlockBegin
  2
*MODEL_SPACE
 70
     0
 10
0.0
 20
0.0
 30
0.0
  3
*MODEL_SPACE
  1

  0
ENDBLK
  5
21
330
1F
100
AcDbEntity
  8
0
100
AcDbBlockEnd
  0
BLOCK
  5
1C
330
1B
100
AcDbEntity
 67
     1
  8
0
100
AcDbBlockBegin
  2
*PAPER_SPACE
  1

  0
ENDBLK
  5
1D
330
1B
100
AcDbEntity
 67
     1
  8
0
100
AcDbBlockEnd
  0
ENDSEC
  0
SECTION
  2
ENTITIES
  0
SPLINE
  5
100
100
AcDbEntity
  8
Layer_1
 62
7
100
AcDbSpline
 70
8
 71
3
 72
8
 73
4
 74
0
 40
0
 40
0
 40
0
 40
0
 40
1
 40
1
 40
1
 40
1
 10
69.639555
 20
133.835243
 30
0.0
 10
69.498372
 20
133.876218
 30
0.0
 10
68.968379
 20
136.426620
 30
0.0
 10
68.968379
 20
136.426620
 30
0.0
  0
SPLINE
  5
101
100
AcDbEntity
  8
Layer_1
 62
7
100
AcDbSpline
 70
8
 71
3
 72
8
 73
4
 74
0
 40
0
 40
0
 40
0
 40
0
 40
1
 40
1
 40
1
 40
1
 10
71.199847
 20
135.548483
 30
0.0
 10
71.199847
 20
135.548483
 30
0.0
 10
69.780738
 20
133.794260
 30
0.0
 10
69.639555
 20
133.835243
 30
0.0
  0
LWPOLYLINE
  5
102
100
AcDbEntity
  8
Layer_1
 62
7
100
AcDbPolyline
 90
2
 70
0
 10
68.968379
 20
136.426620
 30
0.0
 10
71.199847
 20
135.548483
 30
0.0
  0
LWPOLYLINE
  5
103
100
AcDbEntity
  8
Layer_1
 62
7
100
AcDbPolyline
 90
1
 70
1
 10
69.639555
 20
133.835243
 30
0.0
  0
SPLINE
  5
104
100
AcDbEntity
  8
Layer_1
 62
1
100
AcDbSpline
 70
8
 71
3
 72
8
 73
4
 74
0
 40
0
 40
0
 40
0
 40
0
 40
1
 40
1
 40
1
 40
1
 10
55.293657
 20
145.295806
 30
0.0
 10
55.821559
 20
146.014871
 30
0.0
 10
56.157565
 20
146.353391
 30
0.0
 10
56.788714
 20
146.981778
 30
0.0
  0
SPLINE
  5
105
100
AcDbEntity
  8
Layer_1
 62
1
100
AcDbSpline
 70
8
 71
3
 72
8
 73
4
 74
0
 40
0
 40
0
 40
0
 40
0
 40
1
 40
1
 40
1
 40
1
 10
56.788714
 20
146.981778
 30
0.0
 10
59.916888
 20
150.096277
 30
0.0
 10
64.238423
 20
152.022637
 30
0.0
 10
69.011853
 20
152.022637
 30
0.0
  0
SPLINE
  5
106
100
AcDbEntity
  8
Layer_1
 62
1
100
AcDbSpline
 70
8
 71
3
 72
8
 73
4
 74
0
 40
0
 40
0
 40
0
 40
0
 40
1
 40
1
 40
1
 40
1
 10
69.011853
 20
152.022637
 30
0.0
 10
74.649063
 20
152.022637
 30
0.0
 10
79.656038
 20
149.336030
 30
0.0
 10
82.811553
 20
145.178682
 30
0.0
  0
SPLINE
  5
107
100
AcDbEntity
  8
Layer_1
 62
1
100
AcDbSpline
 70
8
 71
3
 72
8
 73
4
 74
0
 40
0
 40
0
 40
0
 40
0
 40
1
 40
1
 40
1
 40
1
 10
85.176012
 20
140.924632
 30
0.0
 10
85.901035
 20
139.025152
 30
0.0
 10
86.297997
 20
136.964769
 30
0.0
 10
86.297997
 20
134.812065
 30
0.0
  0
SPLINE
  5
108
100
AcDbEntity
  8
Layer_1
 62
1
100
AcDbSpline
 70
8
 71
3
 72
8
 73
4
 74
0
 40
0
 40
0
 40
0
 40
0
 40
1
 40
1
 40
1
 40
1
 10
86.297997
 20
134.812065
 30
0.0
 10
86.297997
 20
125.306934
 30
0.0
 10
78.558729
 20
117.601484
 30
0.0
 10
69.011853
 20
117.601484
 30
0.0
  0
SPLINE
  5
109
100
AcDbEntity
  8
Layer_1
 62
1
100
AcDbSpline
 70
8
 71
3
 72
8
 73
4
 74
0
 40
0
 40
0
 40
0
 40
0
 40
1
 40
1
 40
1
 40
1
 10
69.011853
 20
117.601484
 30
0.0
 10
59.464985
 20
117.601484
 30
0.0
 10
51.725707
 20
125.306934
 30
0.0
 10
51.725715
 20
134.812065
 30
0.0
  0
SPLINE
  5
10a
100
AcDbEntity
  8
Layer_1
 62
1
100
AcDbSpline
 70
8
 71
3
 72
8
 73
4
 74
0
 40
0
 40
0
 40
0
 40
0
 40
1
 40
1
 40
1
 40
1
 10
51.725715
 20
134.812065
 30
0.0
 10
51.725715
 20
137.071076
 30
0.0
 10
52.014921
 20
138.986851
 30
0.0
 10
52.809569
 20
140.963277
 30
0.0
  0
SPLINE
  5
10b
100
AcDbEntity
  8
Layer_1
 62
1
100
AcDbSpline
 70
8
 71
3
 72
8
 73
4
 74
0
 40
0
 40
0
 40
0
 40
0
 40
1
 40
1
 40
1
 40
1
 10
66.002891
 20
123.375307
 30
0.0
 10
60.751294
 20
124.632374
 30
0.0
 10
57.096550
 20
129.339387
 30
0.0
 10
57.167361
 20
134.946002
 30
0.0
  0
SPLINE
  5
10c
100
AcDbEntity
  8
Layer_1
 62
1
100
AcDbSpline
 70
8
 71
3
 72
8
 73
4
 74
0
 40
0
 40
0
 40
0
 40
0
 40
1
 40
1
 40
1
 40
1
 10
57.167361
 20
134.946002
 30
0.0
 10
57.176368
 20
135.659330
 30
0.0
 10
57.248807
 20
136.357156
 30
0.0
 10
57.379262
 20
137.034207
 30
0.0
  0
SPLINE
  5
10d
100
AcDbEntity
  8
Layer_1
 62
1
100
AcDbSpline
 70
8
 71
3
 72
8
 73
4
 74
0
 40
0
 40
0
 40
0
 40
0
 40
1
 40
1
 40
1
 40
1
 10
60.060779
 20
142.525951
 30
0.0
 10
62.265765
 20
145.058748
 30
0.0
 10
65.533065
 20
146.645804
 30
0.0
 10
69.160778
 20
146.604787
 30
0.0
  0
SPLINE
  5
10e
100
AcDbEntity
  8
Layer_1
 62
1
100
AcDbSpline
 70
8
 71
3
 72
8
 73
4
 74
0
 40
0
 40
0
 40
0
 40
0
 40
1
 40
1
 40
1
 40
1
 10
69.160778
 20
146.604787
 30
0.0
 10
72.700332
 20
146.564762
 30
0.0
 10
75.857739
 20
144.983030
 30
0.0
 10
77.997219
 20
142.507952
 30
0.0
  0
SPLINE
  5
10f
100
AcDbEntity
  8
Layer_1
 62
1
100
AcDbSpline
 70
8
 71
3
 72
8
 73
4
 74
0
 40
0
 40
0
 40
0
 40
0
 40
1
 40
1
 40
1
 40
1
 10
80.683616
 20
136.850615
 30
0.0
 10
80.806161
 20
136.145683
 30
0.0
 10
80.865717
 20
135.419519
 30
0.0
 10
80.856346
 20
134.678135
 30
0.0
  0
SPLINE
  5
110
100
AcDbEntity
  8
Layer_1
 62
1
100
AcDbSpline
 70
8
 71
3
 72
8
 73
4
 74
0
 40
0
 40
0
 40
0
 40
0
 40
1
 40
1
 40
1
 40
1
 10
80.856346
 20
134.678135
 30
0.0
 10
80.786585
 20
129.153054
 30
0.0
 10
77.190662
 20
124.515854
 30
0.0
 10
72.023202
 20
123.294365
 30
0.0
  0
SPLINE
  5
111
100
AcDbEntity
  8
Layer_1
 62
7
100
AcDbSpline
 70
8
 71
3
 72
8
 73
4
 74
0
 40
0
 40
0
 40
0
 40
0
 40
1
 40
1
 40
1
 40
1
 10
75.213729
 20
121.244309
 30
0.0
 10
74.884027
 20
121.078727
 30
0.0
 10
74.675211
 20
120.928207
 30
0.0
 10
74.587278
 20
120.792749
 30
0.0
  0
SPLINE
  5
112
100
AcDbEntity
  8
Layer_1
 62
7
100
AcDbSpline
 70
8
 71
3
 72
8
 73
4
 74
0
 40
0
 40
0
 40
0
 40
0
 40
1
 40
1
 40
1
 40
1
 10
74.587278
 20
120.792749
 30
0.0
 10
74.499349
 20
120.657282
 30
0.0
 10
74.502678
 20
120.503197
 30
0.0
 10
74.597265
 20
120.330496
 30
0.0
  0
SPLINE
  5
113
100
AcDbEntity
  8
Layer_1
 62
7
100
AcDbSpline
 70
8
 71
3
 72
8
 73
4
 74
0
 40
0
 40
0
 40
0
 40
0
 40
1
 40
1
 40
1
 40
1
 10
74.597265
 20
120.330496
 30
0.0
 10
74.672627
 20
120.192899
 30
0.0
 10
74.779921
 20
120.107140
 30
0.0
 10
74.919148
 20
120.073221
 30
0.0
  0
SPLINE
  5
114
100
AcDbEntity
  8
Layer_1
 62
7
100
AcDbSpline
 70
8
 71
3
 72
8
 73
4
 74
0
 40
0
 40
0
 40
0
 40
0
 40
1
 40
1
 40
1
 40
1
 10
74.919148
 20
120.073221
 30
0.0
 10
75.059080
 20
120.041459
 30
0.0
 10
75.211103
 20
120.066784
 30
0.0
 10
75.375215
 20
120.149196
 30
0.0
  0
SPLINE
  5
115
100
AcDbEntity
  8
Layer_1
 62
7
100
AcDbSpline
 70
8
 71
3
 72
8
 73
4
 74
0
 40
0
 40
0
 40
0
 40
0
 40
1
 40
1
 40
1
 40
1
 10
75.375215
 20
120.149196
 30
0.0
 10
75.601424
 20
120.262798
 30
0.0
 10
75.741012
 20
120.429572
 30
0.0
 10
75.793982
 20
120.649519
 30
0.0
  0
SPLINE
  5
116
100
AcDbEntity
  8
Layer_1
 62
7
100
AcDbSpline
 70
8
 71
3
 72
8
 73
4
 74
0
 40
0
 40
0
 40
0
 40
0
 40
1
 40
1
 40
1
 40
1
 10
75.793982
 20
120.649519
 30
0.0
 10
75.847660
 20
120.871619
 30
0.0
 10
75.805289
 20
121.109034
 30
0.0
 10
75.666869
 20
121.361766
 30
0.0
  0
LWPOLYLINE
  5
117
100
AcDbEntity
  8
Layer_1
 62
4
100
AcDbPolyline
 90
3
 70
1
 10
66.758701
 20
141.213375
 30
0.0
 10
67.018026
 20
141.308079
 30
0.0
 10
67.266445
 20
142.007571
 30
0.0
  0
LWPOLYLINE
  5
118
100
AcDbEntity
  8
Layer_1
 62
7
100
AcDbPolyline
 90
3
 70
0
 10
75.666869
 20
121.361766
 30
0.0
 10
75.619577
 20
121.448109
 30
0.0
 10
75.213729
 20
121.244309
 30
0.0
  0
SPLINE
  5
119
100
AcDbEntity
  8
Layer_1
 62
7
100
AcDbSpline
 70
8
 71
3
 72
8
 73
4
 74
0
 40
0
 40
0
 40
0
 40
0
 40
1
 40
1
 40
1
 40
1
 10
76.072901
 20
120.620414
 30
0.0
 10
76.058193
 20
120.430424
 30
0.0
 10
76.000192
 20
120.266130
 30
0.0
 10
75.898896
 20
120.127531
 30
0.0
  0
SPLINE
  5
11a
100
AcDbEntity
  8
Layer_1
 62
7
100
AcDbSpline
 70
8
 71
3
 72
8
 73
4
 74
0
 40
0
 40
0
 40
0
 40
0
 40
1
 40
1
 40
1
 40
1
 10
75.898896
 20
120.127531
 30
0.0
 10
75.796829
 20
119.990343
 30
0.0
 10
75.645259
 20
119.871259
 30
0.0
 10
75.444185
 20
119.770278
 30
0.0
  0
SPLINE
  5
11b
100
AcDbEntity
  8
Layer_1
 62
7
100
AcDbSpline
 70
8
 71
3
 72
8
 73
4
 74
0
 40
0
 40
0
 40
0
 40
0
 40
1
 40
1
 40
1
 40
1
 10
75.444185
 20
119.770278
 30
0.0
 10
75.189886
 20
119.642568
 30
0.0
 10
74.950421
 20
119.608244
 30
0.0
 10
74.725789
 20
119.667307
 30
0.0
  0
SPLINE
  5
11c
100
AcDbEntity
  8
Layer_1
 62
7
100
AcDbSpline
 70
8
 71
3
 72
8
 73
4
 74
0
 40
0
 40
0
 40
0
 40
0
 40
1
 40
1
 40
1
 40
1
 10
74.725789
 20
119.667307
 30
0.0
 10
74.501869
 20
119.728511
 30
0.0
 10
74.327619
 20
119.872844
 30
0.0
 10
74.203041
 20
120.100307
 30
0.0
  0
SPLINE
  5
11d
100
AcDbEntity
  8
Layer_1
 62
7
100
AcDbSpline
 70
8
 71
3
 72
8
 73
4
 74
0
 40
0
 40
0
 40
0
 40
0
 40
1
 40
1
 40
1
 40
1
 10
74.203041
 20
120.100307
 30
0.0
 10
74.057699
 20
120.365679
 30
0.0
 10
74.041261
 20
120.612538
 30
0.0
 10
74.153726
 20
120.840886
 30
0.0
  0
SPLINE
  5
11e
100
AcDbEntity
  8
Layer_1
 62
7
100
AcDbSpline
 70
8
 71
3
 72
8
 73
4
 74
0
 40
0
 40
0
 40
0
 40
0
 40
1
 40
1
 40
1
 40
1
 10
74.153726
 20
120.840886
 30
0.0
 10
74.267673
 20
121.069970
 30
0.0
 10
74.510196
 20
121.277691
 30
0.0
 10
74.881297
 20
121.464050
 30
0.0
  0
LWPOLYLINE
  5
11f
100
AcDbEntity
  8
Layer_1
 62
7
100
AcDbPolyline
 90
4
 70
0
 10
75.939974
 20
121.813103
 30
0.0
 10
76.677064
 20
120.467289
 30
0.0
 10
76.268997
 20
120.262369
 30
0.0
 10
76.072901
 20
120.620414
 30
0.0
  0
SPLINE
  5
120
100
AcDbEntity
  8
Layer_1
 62
7
100
AcDbSpline
 70
8
 71
3
 72
8
 73
4
 74
0
 40
0
 40
0
 40
0
 40
0
 40
1
 40
1
 40
1
 40
1
 10
75.432711
 20
121.789303
 30
0.0
 10
75.335046
 20
121.967626
 30
0.0
 10
75.197585
 20
122.074045
 30
0.0
 10
75.020330
 20
122.108561
 30
0.0
  0
SPLINE
  5
121
100
AcDbEntity
  8
Layer_1
 62
7
100
AcDbSpline
 70
8
 71
3
 72
8
 73
4
 74
0
 40
0
 40
0
 40
0
 40
0
 40
1
 40
1
 40
1
 40
1
 10
75.020330
 20
122.108561
 30
0.0
 10
74.843788
 20
122.145212
 30
0.0
 10
74.643891
 20
122.107479
 30
0.0
 10
74.420640
 20
121.995361
 30
0.0
  0
SPLINE
  5
122
100
AcDbEntity
  8
Layer_1
 62
7
100
AcDbSpline
 70
8
 71
3
 72
8
 73
4
 74
0
 40
0
 40
0
 40
0
 40
0
 40
1
 40
1
 40
1
 40
1
 10
74.420640
 20
121.995361
 30
0.0
 10
74.278705
 20
121.924086
 30
0.0
 10
74.149309
 20
121.838519
 30
0.0
 10
74.032452
 20
121.738658
 30
0.0
  0
SPLINE
  5
123
100
AcDbEntity
  8
Layer_1
 62
7
100
AcDbSpline
 70
8
 71
3
 72
8
 73
4
 74
0
 40
0
 40
0
 40
0
 40
0
 40
1
 40
1
 40
1
 40
1
 10
74.032452
 20
121.738658
 30
0.0
 10
73.915597
 20
121.638798
 30
0.0
 10
73.812759
 20
121.525395
 30
0.0
 10
73.723937
 20
121.398449
 30
0.0
  0
LWPOLYLINE
  5
124
100
AcDbEntity
  8
Layer_1
 62
7
100
AcDbPolyline
 90
3
 70
0
 10
74.881297
 20
121.464050
 30
0.0
 10
75.453469
 20
121.751406
 30
0.0
 10
75.432711
 20
121.789303
 30
0.0
  0
SPLINE
  5
125
100
AcDbEntity
  8
Layer_1
 62
7
100
AcDbSpline
 70
8
 71
3
 72
8
 73
4
 74
0
 40
0
 40
0
 40
0
 40
0
 40
1
 40
1
 40
1
 40
1
 10
73.527846
 20
121.756470
 30
0.0
 10
73.647180
 20
121.886229
 30
0.0
 10
73.769770
 20
121.999713
 30
0.0
 10
73.895618
 20
122.096922
 30
0.0
  0
SPLINE
  5
126
100
AcDbEntity
  8
Layer_1
 62
7
100
AcDbSpline
 70
8
 71
3
 72
8
 73
4
 74
0
 40
0
 40
0
 40
0
 40
0
 40
1
 40
1
 40
1
 40
1
 10
73.895618
 20
122.096922
 30
0.0
 10
74.020696
 20
122.195536
 30
0.0
 10
74.149765
 20
122.278259
 30
0.0
 10
74.282827
 20
122.345091
 30
0.0
  0
SPLINE
  5
127
100
AcDbEntity
  8
Layer_1
 62
7
100
AcDbSpline
 70
8
 71
3
 72
8
 73
4
 74
0
 40
0
 40
0
 40
0
 40
0
 40
1
 40
1
 40
1
 40
1
 10
74.282827
 20
122.345091
 30
0.0
 10
74.642100
 20
122.525513
 30
0.0
 10
74.958894
 20
122.571816
 30
0.0
 10
75.233207
 20
122.484000
 30
0.0
  0
SPLINE
  5
128
100
AcDbEntity
  8
Layer_1
 62
7
100
AcDbSpline
 70
8
 71
3
 72
8
 73
4
 74
0
 40
0
 40
0
 40
0
 40
0
 40
1
 40
1
 40
1
 40
1
 10
75.233207
 20
122.484000
 30
0.0
 10
75.507520
 20
122.396183
 30
0.0
 10
75.743109
 20
122.172551
 30
0.0
 10
75.939974
 20
121.813103
 30
0.0
  0
LWPOLYLINE
  5
129
100
AcDbEntity
  8
Layer_1
 62
7
100
AcDbPolyline
 90
2
 70
0
 10
73.723937
 20
121.398449
 30
0.0
 10
73.527846
 20
121.756470
 30
0.0
  0
LWPOLYLINE
  5
12a
100
AcDbEntity
  8
Layer_1
 62
7
100
AcDbPolyline
 90
1
 70
1
 10
75.939974
 20
121.813103
 30
0.0
  0
SPLINE
  5
12b
100
AcDbEntity
  8
Layer_1
 62
7
100
AcDbSpline
 70
8
 71
3
 72
8
 73
4
 74
0
 40
0
 40
0
 40
0
 40
0
 40
1
 40
1
 40
1
 40
1
 10
80.118574
 20
124.947749
 30
0.0
 10
79.933863
 20
125.124891
 30
0.0
 10
79.758823
 20
125.222125
 30
0.0
 10
79.593455
 20
125.239452
 30
0.0
  0
SPLINE
  5
12c
100
AcDbEntity
  8
Layer_1
 62
7
100
AcDbSpline
 70
8
 71
3
 72
8
 73
4
 74
0
 40
0
 40
0
 40
0
 40
0
 40
1
 40
1
 40
1
 40
1
 10
79.593455
 20
125.239452
 30
0.0
 10
79.428088
 20
125.256774
 30
0.0
 10
79.271806
 20
125.194760
 30
0.0
 10
79.124610
 20
125.053410
 30
0.0
  0
SPLINE
  5
12d
100
AcDbEntity
  8
Layer_1
 62
7
100
AcDbSpline
 70
8
 71
3
 72
8
 73
4
 74
0
 40
0
 40
0
 40
0
 40
0
 40
1
 40
1
 40
1
 40
1
 10
79.124610
 20
125.053410
 30
0.0
 10
78.947749
 20
124.883535
 30
0.0
 10
78.863458
 20
124.696658
 30
0.0
 10
78.871736
 20
124.492779
 30
0.0
  0
SPLINE
  5
12e
100
AcDbEntity
  8
Layer_1
 62
7
100
AcDbSpline
 70
8
 71
3
 72
8
 73
4
 74
0
 40
0
 40
0
 40
0
 40
0
 40
1
 40
1
 40
1
 40
1
 10
78.871736
 20
124.492779
 30
0.0
 10
78.880017
 20
124.288889
 30
0.0
 10
78.979418
 20
124.095584
 30
0.0
 10
79.169941
 20
123.912863
 30
0.0
  0
LWPOLYLINE
  5
12f
100
AcDbEntity
  8
Layer_1
 62
7
100
AcDbPolyline
 90
4
 70
0
 10
80.435729
 20
125.272441
 30
0.0
 10
81.613703
 20
124.142737
 30
0.0
 10
81.286092
 20
123.828075
 30
0.0
 10
80.118574
 20
124.947749
 30
0.0
  0
SPLINE
  5
130
100
AcDbEntity
  8
Layer_1
 62
7
100
AcDbSpline
 70
8
 71
3
 72
8
 73
4
 74
0
 40
0
 40
0
 40
0
 40
0
 40
1
 40
1
 40
1
 40
1
 10
78.624518
 20
124.435940
 30
0.0
 10
78.585529
 20
124.623704
 30
0.0
 10
78.589811
 20
124.796179
 30
0.0
 10
78.637365
 20
124.953365
 30
0.0
  0
SPLINE
  5
131
100
AcDbEntity
  8
Layer_1
 62
7
100
AcDbSpline
 70
8
 71
3
 72
8
 73
4
 74
0
 40
0
 40
0
 40
0
 40
0
 40
1
 40
1
 40
1
 40
1
 10
78.637365
 20
124.953365
 30
0.0
 10
78.686109
 20
125.111674
 30
0.0
 10
78.779921
 20
125.257525
 30
0.0
 10
78.918799
 20
125.390919
 30
0.0
  0
SPLINE
  5
132
100
AcDbEntity
  8
Layer_1
 62
7
100
AcDbSpline
 70
8
 71
3
 72
8
 73
4
 74
0
 40
0
 40
0
 40
0
 40
0
 40
1
 40
1
 40
1
 40
1
 10
78.918799
 20
125.390919
 30
0.0
 10
79.147886
 20
125.610963
 30
0.0
 10
79.390889
 20
125.710571
 30
0.0
 10
79.647809
 20
125.689742
 30
0.0
  0
SPLINE
  5
133
100
AcDbEntity
  8
Layer_1
 62
7
100
AcDbSpline
 70
8
 71
3
 72
8
 73
4
 74
0
 40
0
 40
0
 40
0
 40
0
 40
1
 40
1
 40
1
 40
1
 10
79.647809
 20
125.689742
 30
0.0
 10
79.903564
 20
125.670036
 30
0.0
 10
80.166199
 20
125.530948
 30
0.0
 10
80.435714
 20
125.272478
 30
0.0
  0
LWPOLYLINE
  5
134
100
AcDbEntity
  8
Layer_1
 62
7
100
AcDbPolyline
 90
6
 70
0
 10
79.169941
 20
123.912863
 30
0.0
 10
80.272981
 20
122.855034
 30
0.0
 10
79.943592
 20
122.538648
 30
0.0
 10
77.232168
 20
125.138956
 30
0.0
 10
77.561559
 20
125.455334
 30
0.0
 10
78.624518
 20
124.435940
 30
0.0
  0
LWPOLYLINE
  5
135
100
AcDbEntity
  8
Layer_1
 62
7
100
AcDbPolyline
 90
1
 70
1
 10
80.435714
 20
125.272478
 30
0.0
  0
SPLINE
  5
136
100
AcDbEntity
  8
Layer_1
 62
7
100
AcDbSpline
 70
8
 71
3
 72
8
 73
4
 74
0
 40
0
 40
0
 40
0
 40
0
 40
1
 40
1
 40
1
 40
1
 10
77.531180
 20
123.792142
 30
0.0
 10
77.389390
 20
123.757933
 30
0.0
 10
77.254806
 20
123.708625
 30
0.0
 10
77.127430
 20
123.644219
 30
0.0
  0
SPLINE
  5
137
100
AcDbEntity
  8
Layer_1
 62
7
100
AcDbSpline
 70
8
 71
3
 72
8
 73
4
 74
0
 40
0
 40
0
 40
0
 40
0
 40
1
 40
1
 40
1
 40
1
 10
77.127430
 20
123.644219
 30
0.0
 10
77.000027
 20
123.579878
 30
0.0
 10
76.879819
 20
123.500471
 30
0.0
 10
76.766804
 20
123.405997
 30
0.0
  0
SPLINE
  5
138
100
AcDbEntity
  8
Layer_1
 62
7
100
AcDbSpline
 70
8
 71
3
 72
8
 73
4
 74
0
 40
0
 40
0
 40
0
 40
0
 40
1
 40
1
 40
1
 40
1
 10
76.766804
 20
123.405997
 30
0.0
 10
76.594770
 20
123.262194
 30
0.0
 10
76.488449
 20
123.129054
 30
0.0
 10
76.447841
 20
123.006576
 30
0.0
  0
SPLINE
  5
139
100
AcDbEntity
  8
Layer_1
 62
7
100
AcDbSpline
 70
8
 71
3
 72
8
 73
4
 74
0
 40
0
 40
0
 40
0
 40
0
 40
1
 40
1
 40
1
 40
1
 10
76.447841
 20
123.006576
 30
0.0
 10
76.408487
 20
122.885151
 30
0.0
 10
76.434847
 20
122.774388
 30
0.0
 10
76.526919
 20
122.674288
 30
0.0
  0
SPLINE
  5
13a
100
AcDbEntity
  8
Layer_1
 62
7
100
AcDbSpline
 70
8
 71
3
 72
8
 73
4
 74
0
 40
0
 40
0
 40
0
 40
0
 40
1
 40
1
 40
1
 40
1
 10
76.526919
 20
122.674288
 30
0.0
 10
76.597069
 20
122.598027
 30
0.0
 10
76.683186
 20
122.563570
 30
0.0
 10
76.785270
 20
122.570917
 30
0.0
  0
SPLINE
  5
13b
100
AcDbEntity
  8
Layer_1
 62
7
100
AcDbSpline
 70
8
 71
3
 72
8
 73
4
 74
0
 40
0
 40
0
 40
0
 40
0
 40
1
 40
1
 40
1
 40
1
 10
76.785270
 20
122.570917
 30
0.0
 10
76.886260
 20
122.579453
 30
0.0
 10
77.047765
 20
122.641731
 30
0.0
 10
77.269785
 20
122.757750
 30
0.0
  0
LWPOLYLINE
  5
13c
100
AcDbEntity
  8
Layer_1
 62
7
100
AcDbPolyline
 90
2
 70
0
 10
77.245098
 20
124.103159
 30
0.0
 10
77.531180
 20
123.792142
 30
0.0
  0
SPLINE
  5
13d
100
AcDbEntity
  8
Layer_1
 62
7
100
AcDbSpline
 70
8
 71
3
 72
8
 73
4
 74
0
 40
0
 40
0
 40
0
 40
0
 40
1
 40
1
 40
1
 40
1
 10
77.411466
 20
122.831927
 30
0.0
 10
77.703625
 20
122.987613
 30
0.0
 10
77.943382
 20
123.062635
 30
0.0
 10
78.130737
 20
123.056993
 30
0.0
  0
SPLINE
  5
13e
100
AcDbEntity
  8
Layer_1
 62
7
100
AcDbSpline
 70
8
 71
3
 72
8
 73
4
 74
0
 40
0
 40
0
 40
0
 40
0
 40
1
 40
1
 40
1
 40
1
 10
78.130737
 20
123.056993
 30
0.0
 10
78.318267
 20
123.053548
 30
0.0
 10
78.487114
 20
122.970200
 30
0.0
 10
78.637278
 20
122.806949
 30
0.0
  0
SPLINE
  5
13f
100
AcDbEntity
  8
Layer_1
 62
7
100
AcDbSpline
 70
8
 71
3
 72
8
 73
4
 74
0
 40
0
 40
0
 40
0
 40
0
 40
1
 40
1
 40
1
 40
1
 10
78.637278
 20
122.806949
 30
0.0
 10
78.808269
 20
122.621054
 30
0.0
 10
78.865782
 20
122.408808
 30
0.0
 10
78.809817
 20
122.170211
 30
0.0
  0
SPLINE
  5
140
100
AcDbEntity
  8
Layer_1
 62
7
100
AcDbSpline
 70
8
 71
3
 72
8
 73
4
 74
0
 40
0
 40
0
 40
0
 40
0
 40
1
 40
1
 40
1
 40
1
 10
78.809817
 20
122.170211
 30
0.0
 10
78.755107
 20
121.932667
 30
0.0
 10
78.592134
 20
121.700529
 30
0.0
 10
78.320899
 20
121.473797
 30
0.0
  0
SPLINE
  5
141
100
AcDbEntity
  8
Layer_1
 62
7
100
AcDbSpline
 70
8
 71
3
 72
8
 73
4
 74
0
 40
0
 40
0
 40
0
 40
0
 40
1
 40
1
 40
1
 40
1
 10
78.320899
 20
121.473797
 30
0.0
 10
78.207883
 20
121.379329
 30
0.0
 10
78.079979
 20
121.291386
 30
0.0
 10
77.937188
 20
121.209968
 30
0.0
  0
SPLINE
  5
142
100
AcDbEntity
  8
Layer_1
 62
7
100
AcDbSpline
 70
8
 71
3
 72
8
 73
4
 74
0
 40
0
 40
0
 40
0
 40
0
 40
1
 40
1
 40
1
 40
1
 10
77.937188
 20
121.209968
 30
0.0
 10
77.796748
 20
121.128415
 30
0.0
 10
77.639538
 20
121.051804
 30
0.0
 10
77.465559
 20
120.980136
 30
0.0
  0
LWPOLYLINE
  5
143
100
AcDbEntity
  8
Layer_1
 62
7
100
AcDbPolyline
 90
2
 70
0
 10
77.269785
 20
122.757750
 30
0.0
 10
77.411466
 20
122.831927
 30
0.0
  0
SPLINE
  5
144
100
AcDbEntity
  8
Layer_1
 62
7
100
AcDbSpline
 70
8
 71
3
 72
8
 73
4
 74
0
 40
0
 40
0
 40
0
 40
0
 40
1
 40
1
 40
1
 40
1
 10
77.153169
 20
121.319761
 30
0.0
 10
77.339346
 20
121.363670
 30
0.0
 10
77.509390
 20
121.421497
 30
0.0
 10
77.663302
 20
121.493240
 30
0.0
  0
SPLINE
  5
145
100
AcDbEntity
  8
Layer_1
 62
7
100
AcDbSpline
 70
8
 71
3
 72
8
 73
4
 74
0
 40
0
 40
0
 40
0
 40
0
 40
1
 40
1
 40
1
 40
1
 10
77.663302
 20
121.493240
 30
0.0
 10
77.816118
 20
121.566172
 30
0.0
 10
77.953429
 20
121.653546
 30
0.0
 10
78.075235
 20
121.755360
 30
0.0
  0
SPLINE
  5
146
100
AcDbEntity
  8
Layer_1
 62
7
100
AcDbSpline
 70
8
 71
3
 72
8
 73
4
 74
0
 40
0
 40
0
 40
0
 40
0
 40
1
 40
1
 40
1
 40
1
 10
78.075235
 20
121.755360
 30
0.0
 10
78.238479
 20
121.891817
 30
0.0
 10
78.339936
 20
122.023002
 30
0.0
 10
78.379607
 20
122.148917
 30
0.0
  0
SPLINE
  5
147
100
AcDbEntity
  8
Layer_1
 62
7
100
AcDbSpline
 70
8
 71
3
 72
8
 73
4
 74
0
 40
0
 40
0
 40
0
 40
0
 40
1
 40
1
 40
1
 40
1
 10
78.379607
 20
122.148917
 30
0.0
 10
78.418186
 20
122.276011
 30
0.0
 10
78.393082
 20
122.387824
 30
0.0
 10
78.304295
 20
122.484356
 30
0.0
  0
SPLINE
  5
148
100
AcDbEntity
  8
Layer_1
 62
7
100
AcDbSpline
 70
8
 71
3
 72
8
 73
4
 74
0
 40
0
 40
0
 40
0
 40
0
 40
1
 40
1
 40
1
 40
1
 10
78.304295
 20
122.484356
 30
0.0
 10
78.222089
 20
122.573724
 30
0.0
 10
78.127045
 20
122.615469
 30
0.0
 10
78.019161
 20
122.609593
 30
0.0
  0
SPLINE
  5
149
100
AcDbEntity
  8
Layer_1
 62
7
100
AcDbSpline
 70
8
 71
3
 72
8
 73
4
 74
0
 40
0
 40
0
 40
0
 40
0
 40
1
 40
1
 40
1
 40
1
 10
78.019161
 20
122.609593
 30
0.0
 10
77.912531
 20
122.604781
 30
0.0
 10
77.731572
 20
122.534675
 30
0.0
 10
77.476285
 20
122.399276
 30
0.0
  0
LWPOLYLINE
  5
14a
100
AcDbEntity
  8
Layer_1
 62
7
100
AcDbPolyline
 90
2
 70
0
 10
77.465559
 20
120.980136
 30
0.0
 10
77.153169
 20
121.319761
 30
0.0
  0
SPLINE
  5
14b
100
AcDbEntity
  8
Layer_1
 62
7
100
AcDbSpline
 70
8
 71
3
 72
8
 73
4
 74
0
 40
0
 40
0
 40
0
 40
0
 40
1
 40
1
 40
1
 40
1
 10
77.331076
 20
122.325310
 30
0.0
 10
77.076886
 20
122.188722
 30
0.0
 10
76.861516
 20
122.124638
 30
0.0
 10
76.684966
 20
122.133057
 30
0.0
  0
SPLINE
  5
14c
100
AcDbEntity
  8
Layer_1
 62
7
100
AcDbSpline
 70
8
 71
3
 72
8
 73
4
 74
0
 40
0
 40
0
 40
0
 40
0
 40
1
 40
1
 40
1
 40
1
 10
76.684966
 20
122.133057
 30
0.0
 10
76.507324
 20
122.142654
 30
0.0
 10
76.347257
 20
122.224909
 30
0.0
 10
76.204764
 20
122.379821
 30
0.0
  0
SPLINE
  5
14d
100
AcDbEntity
  8
Layer_1
 62
7
100
AcDbSpline
 70
8
 71
3
 72
8
 73
4
 74
0
 40
0
 40
0
 40
0
 40
0
 40
1
 40
1
 40
1
 40
1
 10
76.204764
 20
122.379821
 30
0.0
 10
76.031581
 20
122.568099
 30
0.0
 10
75.968178
 20
122.772263
 30
0.0
 10
76.014554
 20
122.992313
 30
0.0
  0
SPLINE
  5
14e
100
AcDbEntity
  8
Layer_1
 62
7
100
AcDbSpline
 70
8
 71
3
 72
8
 73
4
 74
0
 40
0
 40
0
 40
0
 40
0
 40
1
 40
1
 40
1
 40
1
 10
76.014554
 20
122.992313
 30
0.0
 10
76.060930
 20
123.212357
 30
0.0
 10
76.213459
 20
123.430492
 30
0.0
 10
76.472140
 20
123.646718
 30
0.0
  0
SPLINE
  5
14f
100
AcDbEntity
  8
Layer_1
 62
7
100
AcDbSpline
 70
8
 71
3
 72
8
 73
4
 74
0
 40
0
 40
0
 40
0
 40
0
 40
1
 40
1
 40
1
 40
1
 10
76.472140
 20
123.646718
 30
0.0
 10
76.600224
 20
123.753783
 30
0.0
 10
76.728994
 20
123.845616
 30
0.0
 10
76.858450
 20
123.922217
 30
0.0
  0
SPLINE
  5
150
100
AcDbEntity
  8
Layer_1
 62
7
100
AcDbSpline
 70
8
 71
3
 72
8
 73
4
 74
0
 40
0
 40
0
 40
0
 40
0
 40
1
 40
1
 40
1
 40
1
 10
76.858450
 20
123.922217
 30
0.0
 10
76.987907
 20
123.998807
 30
0.0
 10
77.116794
 20
124.059117
 30
0.0
 10
77.245111
 20
124.103147
 30
0.0
  0
LWPOLYLINE
  5
151
100
AcDbEntity
  8
Layer_1
 62
7
100
AcDbPolyline
 90
2
 70
0
 10
77.476285
 20
122.399276
 30
0.0
 10
77.331076
 20
122.325310
 30
0.0
  0
LWPOLYLINE
  5
152
100
AcDbEntity
  8
Layer_1
 62
7
100
AcDbPolyline
 90
1
 70
1
 10
77.245111
 20
124.103147
 30
0.0
  0
SPLINE
  5
153
100
AcDbEntity
  8
Layer_1
 62
7
100
AcDbSpline
 70
8
 71
3
 72
8
 73
4
 74
0
 40
0
 40
0
 40
0
 40
0
 40
1
 40
1
 40
1
 40
1
 10
80.941651
 20
126.119842
 30
0.0
 10
81.202981
 20
125.952048
 30
0.0
 10
81.451535
 20
125.884524
 30
0.0
 10
81.687311
 20
125.917270
 30
0.0
  0
SPLINE
  5
154
100
AcDbEntity
  8
Layer_1
 62
7
100
AcDbSpline
 70
8
 71
3
 72
8
 73
4
 74
0
 40
0
 40
0
 40
0
 40
0
 40
1
 40
1
 40
1
 40
1
 10
81.687311
 20
125.917270
 30
0.0
 10
81.922802
 20
125.952252
 30
0.0
 10
82.134484
 20
126.085510
 30
0.0
 10
82.322359
 20
126.317046
 30
0.0
  0
SPLINE
  5
155
100
AcDbEntity
  8
Layer_1
 62
7
100
AcDbSpline
 70
8
 71
3
 72
8
 73
4
 74
0
 40
0
 40
0
 40
0
 40
0
 40
1
 40
1
 40
1
 40
1
 10
82.322359
 20
126.317046
 30
0.0
 10
82.431182
 20
126.451163
 30
0.0
 10
82.519373
 20
126.593371
 30
0.0
 10
82.586935
 20
126.743668
 30
0.0
  0
SPLINE
  5
156
100
AcDbEntity
  8
Layer_1
 62
7
100
AcDbSpline
 70
8
 71
3
 72
8
 73
4
 74
0
 40
0
 40
0
 40
0
 40
0
 40
1
 40
1
 40
1
 40
1
 10
82.586935
 20
126.743668
 30
0.0
 10
82.655524
 20
126.895228
 30
0.0
 10
82.706048
 20
127.058045
 30
0.0
 10
82.738506
 20
127.232118
 30
0.0
  0
LWPOLYLINE
  5
157
100
AcDbEntity
  8
Layer_1
 62
7
100
AcDbPolyline
 90
3
 70
0
 10
82.067520
 20
127.855436
 30
0.0
 10
82.244448
 20
127.725426
 30
0.0
 10
80.941651
 20
126.119842
 30
0.0
  0
SPLINE
  5
158
100
AcDbEntity
  8
Layer_1
 62
7
100
AcDbSpline
 70
8
 71
3
 72
8
 73
4
 74
0
 40
0
 40
0
 40
0
 40
0
 40
1
 40
1
 40
1
 40
1
 10
83.080570
 20
126.980764
 30
0.0
 10
83.033978
 20
126.815057
 30
0.0
 10
82.971714
 20
126.655816
 30
0.0
 10
82.893778
 20
126.503041
 30
0.0
  0
SPLINE
  5
159
100
AcDbEntity
  8
Layer_1
 62
7
100
AcDbSpline
 70
8
 71
3
 72
8
 73
4
 74
0
 40
0
 40
0
 40
0
 40
0
 40
1
 40
1
 40
1
 40
1
 10
82.893778
 20
126.503041
 30
0.0
 10
82.815840
 20
126.350272
 30
0.0
 10
82.721947
 20
126.206198
 30
0.0
 10
82.612096
 20
126.070817
 30
0.0
  0
SPLINE
  5
15a
100
AcDbEntity
  8
Layer_1
 62
7
100
AcDbSpline
 70
8
 71
3
 72
8
 73
4
 74
0
 40
0
 40
0
 40
0
 40
0
 40
1
 40
1
 40
1
 40
1
 10
82.612096
 20
126.070817
 30
0.0
 10
82.336959
 20
125.731733
 30
0.0
 10
82.016573
 20
125.537989
 30
0.0
 10
81.650940
 20
125.489584
 30
0.0
  0
SPLINE
  5
15b
100
AcDbEntity
  8
Layer_1
 62
7
100
AcDbSpline
 70
8
 71
3
 72
8
 73
4
 74
0
 40
0
 40
0
 40
0
 40
0
 40
1
 40
1
 40
1
 40
1
 10
81.650940
 20
125.489584
 30
0.0
 10
81.286333
 20
125.442442
 30
0.0
 10
80.929722
 20
125.546955
 30
0.0
 10
80.581107
 20
125.803123
 30
0.0
  0
SPLINE
  5
15c
100
AcDbEntity
  8
Layer_1
 62
7
100
AcDbSpline
 70
8
 71
3
 72
8
 73
4
 74
0
 40
0
 40
0
 40
0
 40
0
 40
1
 40
1
 40
1
 40
1
 10
80.581107
 20
125.803123
 30
0.0
 10
80.220694
 20
126.067961
 30
0.0
 10
80.010957
 20
126.371532
 30
0.0
 10
79.951895
 20
126.713835
 30
0.0
  0
SPLINE
  5
15d
100
AcDbEntity
  8
Layer_1
 62
7
100
AcDbSpline
 70
8
 71
3
 72
8
 73
4
 74
0
 40
0
 40
0
 40
0
 40
0
 40
1
 40
1
 40
1
 40
1
 10
79.951895
 20
126.713835
 30
0.0
 10
79.892549
 20
127.058369
 30
0.0
 10
79.992231
 20
127.390055
 30
0.0
 10
80.250943
 20
127.708892
 30
0.0
  0
SPLINE
  5
15e
100
AcDbEntity
  8
Layer_1
 62
7
100
AcDbSpline
 70
8
 71
3
 72
8
 73
4
 74
0
 40
0
 40
0
 40
0
 40
0
 40
1
 40
1
 40
1
 40
1
 10
80.250943
 20
127.708892
 30
0.0
 10
80.482962
 20
127.994838
 30
0.0
 10
80.761888
 20
128.150382
 30
0.0
 10
81.087723
 20
128.175523
 30
0.0
  0
SPLINE
  5
15f
100
AcDbEntity
  8
Layer_1
 62
7
100
AcDbSpline
 70
8
 71
3
 72
8
 73
4
 74
0
 40
0
 40
0
 40
0
 40
0
 40
1
 40
1
 40
1
 40
1
 10
81.087723
 20
128.175523
 30
0.0
 10
81.413275
 20
128.202890
 30
0.0
 10
81.739874
 20
128.096194
 30
0.0
 10
82.067520
 20
127.855436
 30
0.0
  0
LWPOLYLINE
  5
160
100
AcDbEntity
  8
Layer_1
 62
7
100
AcDbPolyline
 90
2
 70
0
 10
82.738506
 20
127.232118
 30
0.0
 10
83.080570
 20
126.980764
 30
0.0
  0
SPLINE
  5
161
100
AcDbEntity
  8
Layer_1
 62
7
100
AcDbSpline
 70
8
 71
3
 72
8
 73
4
 74
0
 40
0
 40
0
 40
0
 40
0
 40
1
 40
1
 40
1
 40
1
 10
81.678012
 20
127.584234
 30
0.0
 10
81.478060
 20
127.727124
 30
0.0
 10
81.276503
 20
127.789398
 30
0.0
 10
81.073339
 20
127.771058
 30
0.0
  0
SPLINE
  5
162
100
AcDbEntity
  8
Layer_1
 62
7
100
AcDbSpline
 70
8
 71
3
 72
8
 73
4
 74
0
 40
0
 40
0
 40
0
 40
0
 40
1
 40
1
 40
1
 40
1
 10
81.073339
 20
127.771058
 30
0.0
 10
80.871201
 20
127.753985
 30
0.0
 10
80.700322
 20
127.659412
 30
0.0
 10
80.560700
 20
127.487337
 30
0.0
  0
SPLINE
  5
163
100
AcDbEntity
  8
Layer_1
 62
7
100
AcDbSpline
 70
8
 71
3
 72
8
 73
4
 74
0
 40
0
 40
0
 40
0
 40
0
 40
1
 40
1
 40
1
 40
1
 10
80.560700
 20
127.487337
 30
0.0
 10
80.402599
 20
127.292491
 30
0.0
 10
80.332820
 20
127.094344
 30
0.0
 10
80.351362
 20
126.892895
 30
0.0
  0
SPLINE
  5
164
100
AcDbEntity
  8
Layer_1
 62
7
100
AcDbSpline
 70
8
 71
3
 72
8
 73
4
 74
0
 40
0
 40
0
 40
0
 40
0
 40
1
 40
1
 40
1
 40
1
 10
80.351362
 20
126.892895
 30
0.0
 10
80.370933
 20
126.692709
 30
0.0
 10
80.477069
 20
126.507678
 30
0.0
 10
80.669769
 20
126.337803
 30
0.0
  0
LWPOLYLINE
  5
165
100
AcDbEntity
  8
Layer_1
 62
7
100
AcDbPolyline
 90
1
 70
1
 10
82.067520
 20
127.855436
 30
0.0
  0
LWPOLYLINE
  5
166
100
AcDbEntity
  8
Layer_1
 62
7
100
AcDbPolyline
 90
2
 70
0
 10
80.669769
 20
126.337803
 30
0.0
 10
81.678012
 20
127.584234
 30
0.0
  0
SPLINE
  5
167
100
AcDbEntity
  8
Layer_1
 62
7
100
AcDbSpline
 70
8
 71
3
 72
8
 73
4
 74
0
 40
0
 40
0
 40
0
 40
0
 40
1
 40
1
 40
1
 40
1
 10
82.410610
 20
130.344901
 30
0.0
 10
82.288606
 20
130.266809
 30
0.0
 10
82.178616
 20
130.176883
 30
0.0
 10
82.080639
 20
130.075121
 30
0.0
  0
SPLINE
  5
168
100
AcDbEntity
  8
Layer_1
 62
7
100
AcDbSpline
 70
8
 71
3
 72
8
 73
4
 74
0
 40
0
 40
0
 40
0
 40
0
 40
1
 40
1
 40
1
 40
1
 10
82.080639
 20
130.075121
 30
0.0
 10
81.982663
 20
129.973360
 30
0.0
 10
81.896701
 20
129.859764
 30
0.0
 10
81.822754
 20
129.734333
 30
0.0
  0
SPLINE
  5
169
100
AcDbEntity
  8
Layer_1
 62
7
100
AcDbSpline
 70
8
 71
3
 72
8
 73
4
 74
0
 40
0
 40
0
 40
0
 40
0
 40
1
 40
1
 40
1
 40
1
 10
81.822754
 20
129.734333
 30
0.0
 10
81.710188
 20
129.543401
 30
0.0
 10
81.655966
 20
129.383778
 30
0.0
 10
81.660087
 20
129.255464
 30
0.0
  0
SPLINE
  5
16a
100
AcDbEntity
  8
Layer_1
 62
7
100
AcDbSpline
 70
8
 71
3
 72
8
 73
4
 74
0
 40
0
 40
0
 40
0
 40
0
 40
1
 40
1
 40
1
 40
1
 10
81.660087
 20
129.255464
 30
0.0
 10
81.665029
 20
129.128544
 30
0.0
 10
81.728313
 20
129.032935
 30
0.0
 10
81.849940
 20
128.968638
 30
0.0
  0
SPLINE
  5
16b
100
AcDbEntity
  8
Layer_1
 62
7
100
AcDbSpline
 70
8
 71
3
 72
8
 73
4
 74
0
 40
0
 40
0
 40
0
 40
0
 40
1
 40
1
 40
1
 40
1
 10
81.849940
 20
128.968638
 30
0.0
 10
81.942607
 20
128.919651
 30
0.0
 10
82.035858
 20
128.915142
 30
0.0
 10
82.129692
 20
128.955111
 30
0.0
  0
SPLINE
  5
16c
100
AcDbEntity
  8
Layer_1
 62
7
100
AcDbSpline
 70
8
 71
3
 72
8
 73
4
 74
0
 40
0
 40
0
 40
0
 40
0
 40
1
 40
1
 40
1
 40
1
 10
82.129692
 20
128.955111
 30
0.0
 10
82.222079
 20
128.995842
 30
0.0
 10
82.352964
 20
129.106712
 30
0.0
 10
82.522348
 20
129.287721
 30
0.0
  0
LWPOLYLINE
  5
16d
100
AcDbEntity
  8
Layer_1
 62
7
100
AcDbPolyline
 90
2
 70
0
 10
82.032700
 20
130.544679
 30
0.0
 10
82.410610
 20
130.344901
 30
0.0
  0
SPLINE
  5
16e
100
AcDbEntity
  8
Layer_1
 62
7
100
AcDbSpline
 70
8
 71
3
 72
8
 73
4
 74
0
 40
0
 40
0
 40
0
 40
0
 40
1
 40
1
 40
1
 40
1
 10
82.630401
 20
129.403343
 30
0.0
 10
82.852256
 20
129.644356
 30
0.0
 10
83.052616
 20
129.792534
 30
0.0
 10
83.231482
 20
129.847878
 30
0.0
  0
SPLINE
  5
16f
100
AcDbEntity
  8
Layer_1
 62
7
100
AcDbSpline
 70
8
 71
3
 72
8
 73
4
 74
0
 40
0
 40
0
 40
0
 40
0
 40
1
 40
1
 40
1
 40
1
 10
83.231482
 20
129.847878
 30
0.0
 10
83.409718
 20
129.905387
 30
0.0
 10
83.598022
 20
129.881704
 30
0.0
 10
83.796392
 20
129.776828
 30
0.0
  0
SPLINE
  5
170
100
AcDbEntity
  8
Layer_1
 62
7
100
AcDbSpline
 70
8
 71
3
 72
8
 73
4
 74
0
 40
0
 40
0
 40
0
 40
0
 40
1
 40
1
 40
1
 40
1
 10
83.796392
 20
129.776828
 30
0.0
 10
84.022270
 20
129.657420
 30
0.0
 10
84.150149
 20
129.476479
 30
0.0
 10
84.180028
 20
129.234005
 30
0.0
  0
SPLINE
  5
171
100
AcDbEntity
  8
Layer_1
 62
7
100
AcDbSpline
 70
8
 71
3
 72
8
 73
4
 74
0
 40
0
 40
0
 40
0
 40
0
 40
1
 40
1
 40
1
 40
1
 10
84.180028
 20
129.234005
 30
0.0
 10
84.210729
 20
128.992925
 30
0.0
 10
84.137342
 20
128.721869
 30
0.0
 10
83.959867
 20
128.420836
 30
0.0
  0
SPLINE
  5
172
100
AcDbEntity
  8
Layer_1
 62
7
100
AcDbSpline
 70
8
 71
3
 72
8
 73
4
 74
0
 40
0
 40
0
 40
0
 40
0
 40
1
 40
1
 40
1
 40
1
 10
83.959867
 20
128.420836
 30
0.0
 10
83.885920
 20
128.295405
 30
0.0
 10
83.795655
 20
128.171286
 30
0.0
 10
83.689072
 20
128.048479
 30
0.0
  0
SPLINE
  5
173
100
AcDbEntity
  8
Layer_1
 62
7
100
AcDbSpline
 70
8
 71
3
 72
8
 73
4
 74
0
 40
0
 40
0
 40
0
 40
0
 40
1
 40
1
 40
1
 40
1
 10
83.689072
 20
128.048479
 30
0.0
 10
83.584759
 20
127.926305
 30
0.0
 10
83.462894
 20
127.803354
 30
0.0
 10
83.323479
 20
127.679626
 30
0.0
  0
LWPOLYLINE
  5
174
100
AcDbEntity
  8
Layer_1
 62
7
100
AcDbPolyline
 90
2
 70
0
 10
82.522348
 20
129.287721
 30
0.0
 10
82.630401
 20
129.403343
 30
0.0
  0
SPLINE
  5
175
100
AcDbEntity
  8
Layer_1
 62
7
100
AcDbSpline
 70
8
 71
3
 72
8
 73
4
 74
0
 40
0
 40
0
 40
0
 40
0
 40
1
 40
1
 40
1
 40
1
 10
82.910816
 20
127.897784
 30
0.0
 10
83.071364
 20
127.999370
 30
0.0
 10
83.211857
 20
128.108816
 30
0.0
 10
83.332294
 20
128.226121
 30
0.0
  0
SPLINE
  5
176
100
AcDbEntity
  8
Layer_1
 62
7
100
AcDbSpline
 70
8
 71
3
 72
8
 73
4
 74
0
 40
0
 40
0
 40
0
 40
0
 40
1
 40
1
 40
1
 40
1
 10
83.332294
 20
128.226121
 30
0.0
 10
83.451281
 20
128.344198
 30
0.0
 10
83.550625
 20
128.470829
 30
0.0
 10
83.630325
 20
128.606013
 30
0.0
  0
SPLINE
  5
177
100
AcDbEntity
  8
Layer_1
 62
7
100
AcDbSpline
 70
8
 71
3
 72
8
 73
4
 74
0
 40
0
 40
0
 40
0
 40
0
 40
1
 40
1
 40
1
 40
1
 10
83.630325
 20
128.606013
 30
0.0
 10
83.737138
 20
128.787191
 30
0.0
 10
83.787446
 20
128.943401
 30
0.0
 10
83.781250
 20
129.074643
 30
0.0
  0
SPLINE
  5
178
100
AcDbEntity
  8
Layer_1
 62
7
100
AcDbSpline
 70
8
 71
3
 72
8
 73
4
 74
0
 40
0
 40
0
 40
0
 40
0
 40
1
 40
1
 40
1
 40
1
 10
83.781250
 20
129.074643
 30
0.0
 10
83.773608
 20
129.206647
 30
0.0
 10
83.711146
 20
129.303647
 30
0.0
 10
83.593864
 20
129.365644
 30
0.0
  0
SPLINE
  5
179
100
AcDbEntity
  8
Layer_1
 62
7
100
AcDbSpline
 70
8
 71
3
 72
8
 73
4
 74
0
 40
0
 40
0
 40
0
 40
0
 40
1
 40
1
 40
1
 40
1
 10
83.593864
 20
129.365644
 30
0.0
 10
83.485268
 20
129.423056
 30
0.0
 10
83.381060
 20
129.431530
 30
0.0
 10
83.281240
 20
129.391068
 30
0.0
  0
SPLINE
  5
17a
100
AcDbEntity
  8
Layer_1
 62
7
100
AcDbSpline
 70
8
 71
3
 72
8
 73
4
 74
0
 40
0
 40
0
 40
0
 40
0
 40
1
 40
1
 40
1
 40
1
 10
83.281240
 20
129.391068
 30
0.0
 10
83.182239
 20
129.352005
 30
0.0
 10
83.035702
 20
129.227473
 30
0.0
 10
82.841628
 20
129.017473
 30
0.0
  0
LWPOLYLINE
  5
17b
100
AcDbEntity
  8
Layer_1
 62
7
100
AcDbPolyline
 90
2
 70
0
 10
83.323479
 20
127.679626
 30
0.0
 10
82.910816
 20
127.897784
 30
0.0
  0
SPLINE
  5
17c
100
AcDbEntity
  8
Layer_1
 62
7
100
AcDbSpline
 70
8
 71
3
 72
8
 73
4
 74
0
 40
0
 40
0
 40
0
 40
0
 40
1
 40
1
 40
1
 40
1
 10
82.730173
 20
128.900902
 30
0.0
 10
82.537546
 20
128.690140
 30
0.0
 10
82.356437
 20
128.560120
 30
0.0
 10
82.186846
 20
128.510840
 30
0.0
  0
SPLINE
  5
17d
100
AcDbEntity
  8
Layer_1
 62
7
100
AcDbSpline
 70
8
 71
3
 72
8
 73
4
 74
0
 40
0
 40
0
 40
0
 40
0
 40
1
 40
1
 40
1
 40
1
 10
82.186846
 20
128.510840
 30
0.0
 10
82.015807
 20
128.462328
 30
0.0
 10
81.836170
 20
128.487828
 30
0.0
 10
81.647937
 20
128.587341
 30
0.0
  0
SPLINE
  5
17e
100
AcDbEntity
  8
Layer_1
 62
7
100
AcDbSpline
 70
8
 71
3
 72
8
 73
4
 74
0
 40
0
 40
0
 40
0
 40
0
 40
1
 40
1
 40
1
 40
1
 10
81.647937
 20
128.587341
 30
0.0
 10
81.419163
 20
128.708278
 30
0.0
 10
81.288527
 20
128.879707
 30
0.0
 10
81.256029
 20
129.101629
 30
0.0
  0
SPLINE
  5
17f
100
AcDbEntity
  8
Layer_1
 62
7
100
AcDbSpline
 70
8
 71
3
 72
8
 73
4
 74
0
 40
0
 40
0
 40
0
 40
0
 40
1
 40
1
 40
1
 40
1
 10
81.256029
 20
129.101629
 30
0.0
 10
81.223527
 20
129.323555
 30
0.0
 10
81.291906
 20
129.578067
 30
0.0
 10
81.461165
 20
129.865164
 30
0.0
  0
SPLINE
  5
180
100
AcDbEntity
  8
Layer_1
 62
7
100
AcDbSpline
 70
8
 71
3
 72
8
 73
4
 74
0
 40
0
 40
0
 40
0
 40
0
 40
1
 40
1
 40
1
 40
1
 10
81.461165
 20
129.865164
 30
0.0
 10
81.544972
 20
130.007319
 30
0.0
 10
81.634709
 20
130.135371
 30
0.0
 10
81.730376
 20
130.249320
 30
0.0
  0
SPLINE
  5
181
100
AcDbEntity
  8
Layer_1
 62
7
100
AcDbSpline
 70
8
 71
3
 72
8
 73
4
 74
0
 40
0
 40
0
 40
0
 40
0
 40
1
 40
1
 40
1
 40
1
 10
81.730376
 20
130.249320
 30
0.0
 10
81.826043
 20
130.363270
 30
0.0
 10
81.926818
 20
130.461723
 30
0.0
 10
82.032700
 20
130.544679
 30
0.0
  0
LWPOLYLINE
  5
182
100
AcDbEntity
  8
Layer_1
 62
7
100
AcDbPolyline
 90
2
 70
0
 10
82.841628
 20
129.017473
 30
0.0
 10
82.730173
 20
128.900902
 30
0.0
  0
LWPOLYLINE
  5
183
100
AcDbEntity
  8
Layer_1
 62
7
100
AcDbPolyline
 90
1
 70
1
 10
82.032700
 20
130.544679
 30
0.0
  0
SPLINE
  5
184
100
AcDbEntity
  8
Layer_1
 62
7
100
AcDbSpline
 70
8
 71
3
 72
8
 73
4
 74
0
 40
0
 40
0
 40
0
 40
0
 40
1
 40
1
 40
1
 40
1
 10
57.716403
 20
128.481304
 30
0.0
 10
57.615675
 20
128.606477
 30
0.0
 10
57.519100
 20
128.674456
 30
0.0
 10
57.426677
 20
128.685243
 30
0.0
  0
SPLINE
  5
185
100
AcDbEntity
  8
Layer_1
 62
7
100
AcDbSpline
 70
8
 71
3
 72
8
 73
4
 74
0
 40
0
 40
0
 40
0
 40
0
 40
1
 40
1
 40
1
 40
1
 10
57.426677
 20
128.685243
 30
0.0
 10
57.335276
 20
128.694764
 30
0.0
 10
57.221016
 20
128.649445
 30
0.0
 10
57.083897
 20
128.549286
 30
0.0
  0
LWPOLYLINE
  5
186
100
AcDbEntity
  8
Layer_1
 62
7
100
AcDbPolyline
 90
3
 70
0
 10
58.287596
 20
128.368540
 30
0.0
 10
57.985004
 20
128.147512
 30
0.0
 10
57.716403
 20
128.481304
 30
0.0
  0
SPLINE
  5
187
100
AcDbEntity
  8
Layer_1
 62
7
100
AcDbSpline
 70
8
 71
3
 72
8
 73
4
 74
0
 40
0
 40
0
 40
0
 40
0
 40
1
 40
1
 40
1
 40
1
 10
56.760030
 20
128.869809
 30
0.0
 10
57.006578
 20
129.049906
 30
0.0
 10
57.230145
 20
129.125886
 30
0.0
 10
57.430732
 20
129.097748
 30
0.0
  0
SPLINE
  5
188
100
AcDbEntity
  8
Layer_1
 62
7
100
AcDbSpline
 70
8
 71
3
 72
8
 73
4
 74
0
 40
0
 40
0
 40
0
 40
0
 40
1
 40
1
 40
1
 40
1
 10
57.430732
 20
129.097748
 30
0.0
 10
57.632640
 20
129.070573
 30
0.0
 10
57.829742
 20
128.937504
 30
0.0
 10
58.022037
 20
128.698539
 30
0.0
  0
LWPOLYLINE
  5
189
100
AcDbEntity
  8
Layer_1
 62
7
100
AcDbPolyline
 90
12
 70
0
 10
57.083897
 20
128.549286
 30
0.0
 10
56.888107
 20
128.406268
 30
0.0
 10
57.350544
 20
127.831615
 30
0.0
 10
57.067738
 20
127.625033
 30
0.0
 10
56.605301
 20
128.199686
 30
0.0
 10
54.673112
 20
126.788287
 30
0.0
 10
54.390771
 20
127.139149
 30
0.0
 10
56.322960
 20
128.550547
 30
0.0
 10
56.054351
 20
128.884339
 30
0.0
 10
56.337157
 20
129.090921
 30
0.0
 10
56.605766
 20
128.757129
 30
0.0
 10
56.760030
 20
128.869809
 30
0.0
  0
SPLINE
  5
18a
100
AcDbEntity
  8
Layer_1
 62
7
100
AcDbSpline
 70
8
 71
3
 72
8
 73
4
 74
0
 40
0
 40
0
 40
0
 40
0
 40
1
 40
1
 40
1
 40
1
 10
58.471272
 20
125.710395
 30
0.0
 10
58.463503
 20
125.766929
 30
0.0
 10
58.446086
 20
125.822447
 30
0.0
 10
58.419020
 20
125.876949
 30
0.0
  0
SPLINE
  5
18b
100
AcDbEntity
  8
Layer_1
 62
7
100
AcDbSpline
 70
8
 71
3
 72
8
 73
4
 74
0
 40
0
 40
0
 40
0
 40
0
 40
1
 40
1
 40
1
 40
1
 10
58.419020
 20
125.876949
 30
0.0
 10
58.394291
 20
125.931148
 30
0.0
 10
58.359559
 20
125.986076
 30
0.0
 10
58.314824
 20
126.041733
 30
0.0
  0
SPLINE
  5
18c
100
AcDbEntity
  8
Layer_1
 62
7
100
AcDbSpline
 70
8
 71
3
 72
8
 73
4
 74
0
 40
0
 40
0
 40
0
 40
0
 40
1
 40
1
 40
1
 40
1
 10
58.314824
 20
126.041733
 30
0.0
 10
58.156227
 20
126.239063
 30
0.0
 10
57.966958
 20
126.341777
 30
0.0
 10
57.747015
 20
126.349875
 30
0.0
  0
SPLINE
  5
18d
100
AcDbEntity
  8
Layer_1
 62
7
100
AcDbSpline
 70
8
 71
3
 72
8
 73
4
 74
0
 40
0
 40
0
 40
0
 40
0
 40
1
 40
1
 40
1
 40
1
 10
57.747015
 20
126.349875
 30
0.0
 10
57.529405
 20
126.357667
 30
0.0
 10
57.295289
 20
126.270143
 30
0.0
 10
57.044668
 20
126.087303
 30
0.0
  0
LWPOLYLINE
  5
18e
100
AcDbEntity
  8
Layer_1
 62
7
100
AcDbPolyline
 90
2
 70
0
 10
58.022037
 20
128.698539
 30
0.0
 10
58.287596
 20
128.368540
 30
0.0
  0
SPLINE
  5
18f
100
AcDbEntity
  8
Layer_1
 62
7
100
AcDbSpline
 70
8
 71
3
 72
8
 73
4
 74
0
 40
0
 40
0
 40
0
 40
0
 40
1
 40
1
 40
1
 40
1
 10
57.749046
 20
126.601186
 30
0.0
 10
57.942556
 20
126.625978
 30
0.0
 10
58.118902
 20
126.603131
 30
0.0
 10
58.278086
 20
126.532646
 30
0.0
  0
SPLINE
  5
190
100
AcDbEntity
  8
Layer_1
 62
7
100
AcDbSpline
 70
8
 71
3
 72
8
 73
4
 74
0
 40
0
 40
0
 40
0
 40
0
 40
1
 40
1
 40
1
 40
1
 10
58.278086
 20
126.532646
 30
0.0
 10
58.438591
 20
126.463123
 30
0.0
 10
58.586451
 20
126.344243
 30
0.0
 10
58.721667
 20
126.176006
 30
0.0
  0
SPLINE
  5
191
100
AcDbEntity
  8
Layer_1
 62
7
100
AcDbSpline
 70
8
 71
3
 72
8
 73
4
 74
0
 40
0
 40
0
 40
0
 40
0
 40
1
 40
1
 40
1
 40
1
 10
58.721667
 20
126.176006
 30
0.0
 10
58.740980
 20
126.151972
 30
0.0
 10
58.760352
 20
126.123965
 30
0.0
 10
58.779783
 20
126.091984
 30
0.0
  0
SPLINE
  5
192
100
AcDbEntity
  8
Layer_1
 62
7
100
AcDbSpline
 70
8
 71
3
 72
8
 73
4
 74
0
 40
0
 40
0
 40
0
 40
0
 40
1
 40
1
 40
1
 40
1
 10
58.779783
 20
126.091984
 30
0.0
 10
58.800523
 20
126.060966
 30
0.0
 10
58.821831
 20
126.025342
 30
0.0
 10
58.843705
 20
125.985112
 30
0.0
  0
LWPOLYLINE
  5
193
100
AcDbEntity
  8
Layer_1
 62
7
100
AcDbPolyline
 90
6
 70
0
 10
57.044668
 20
126.087303
 30
0.0
 10
55.877303
 20
125.235643
 30
0.0
 10
55.595181
 20
125.586664
 30
0.0
 10
57.811193
 20
127.203375
 30
0.0
 10
58.093323
 20
126.852354
 30
0.0
 10
57.749046
 20
126.601186
 30
0.0
  0
SPLINE
  5
194
100
AcDbEntity
  8
Layer_1
 62
7
100
AcDbSpline
 70
8
 71
3
 72
8
 73
4
 74
0
 40
0
 40
0
 40
0
 40
0
 40
1
 40
1
 40
1
 40
1
 10
59.963882
 20
124.731170
 30
0.0
 10
59.780050
 20
124.888962
 30
0.0
 10
59.570382
 20
124.945335
 30
0.0
 10
59.334876
 20
124.900290
 30
0.0
  0
SPLINE
  5
195
100
AcDbEntity
  8
Layer_1
 62
7
100
AcDbSpline
 70
8
 71
3
 72
8
 73
4
 74
0
 40
0
 40
0
 40
0
 40
0
 40
1
 40
1
 40
1
 40
1
 10
59.334876
 20
124.900290
 30
0.0
 10
59.100478
 20
124.856425
 30
0.0
 10
58.871788
 20
124.716028
 30
0.0
 10
58.648806
 20
124.479099
 30
0.0
  0
SPLINE
  5
196
100
AcDbEntity
  8
Layer_1
 62
7
100
AcDbSpline
 70
8
 71
3
 72
8
 73
4
 74
0
 40
0
 40
0
 40
0
 40
0
 40
1
 40
1
 40
1
 40
1
 10
58.648806
 20
124.479099
 30
0.0
 10
58.425829
 20
124.242171
 30
0.0
 10
58.302787
 20
124.010028
 30
0.0
 10
58.279680
 20
123.782670
 30
0.0
  0
SPLINE
  5
197
100
AcDbEntity
  8
Layer_1
 62
7
100
AcDbSpline
 70
8
 71
3
 72
8
 73
4
 74
0
 40
0
 40
0
 40
0
 40
0
 40
1
 40
1
 40
1
 40
1
 10
58.279680
 20
123.782670
 30
0.0
 10
58.258926
 20
123.555424
 30
0.0
 10
58.341085
 20
123.362372
 30
0.0
 10
58.526159
 20
123.203513
 30
0.0
  0
SPLINE
  5
198
100
AcDbEntity
  8
Layer_1
 62
7
100
AcDbSpline
 70
8
 71
3
 72
8
 73
4
 74
0
 40
0
 40
0
 40
0
 40
0
 40
1
 40
1
 40
1
 40
1
 10
58.526159
 20
123.203513
 30
0.0
 10
58.708750
 20
123.046788
 30
0.0
 10
58.917801
 20
122.990947
 30
0.0
 10
59.153311
 20
123.035992
 30
0.0
  0
SPLINE
  5
199
100
AcDbEntity
  8
Layer_1
 62
7
100
AcDbSpline
 70
8
 71
3
 72
8
 73
4
 74
0
 40
0
 40
0
 40
0
 40
0
 40
1
 40
1
 40
1
 40
1
 10
59.153311
 20
123.035992
 30
0.0
 10
59.388816
 20
123.081037
 30
0.0
 10
59.617504
 20
123.221434
 30
0.0
 10
59.839374
 20
123.457183
 30
0.0
  0
SPLINE
  5
19a
100
AcDbEntity
  8
Layer_1
 62
7
100
AcDbSpline
 70
8
 71
3
 72
8
 73
4
 74
0
 40
0
 40
0
 40
0
 40
0
 40
1
 40
1
 40
1
 40
1
 10
59.839374
 20
123.457183
 30
0.0
 10
60.060137
 20
123.691754
 30
0.0
 10
60.181449
 20
123.923252
 30
0.0
 10
60.203310
 20
124.151677
 30
0.0
  0
SPLINE
  5
19b
100
AcDbEntity
  8
Layer_1
 62
7
100
AcDbSpline
 70
8
 71
3
 72
8
 73
4
 74
0
 40
0
 40
0
 40
0
 40
0
 40
1
 40
1
 40
1
 40
1
 10
60.203310
 20
124.151677
 30
0.0
 10
60.226283
 20
124.381279
 30
0.0
 10
60.146473
 20
124.574444
 30
0.0
 10
59.963882
 20
124.731170
 30
0.0
  0
LWPOLYLINE
  5
19c
100
AcDbEntity
  8
Layer_1
 62
7
100
AcDbPolyline
 90
2
 70
0
 10
58.843705
 20
125.985112
 30
0.0
 10
58.471272
 20
125.710395
 30
0.0
  0
SPLINE
  5
19d
100
AcDbEntity
  8
Layer_1
 62
7
100
AcDbSpline
 70
8
 71
3
 72
8
 73
4
 74
0
 40
0
 40
0
 40
0
 40
0
 40
1
 40
1
 40
1
 40
1
 10
60.223469
 20
125.006997
 30
0.0
 10
60.521581
 20
124.751118
 30
0.0
 10
60.669193
 20
124.458204
 30
0.0
 10
60.666305
 20
124.128255
 30
0.0
  0
SPLINE
  5
19e
100
AcDbEntity
  8
Layer_1
 62
7
100
AcDbSpline
 70
8
 71
3
 72
8
 73
4
 74
0
 40
0
 40
0
 40
0
 40
0
 40
1
 40
1
 40
1
 40
1
 10
60.666305
 20
124.128255
 30
0.0
 10
60.663411
 20
123.798307
 30
0.0
 10
60.508875
 20
123.470665
 30
0.0
 10
60.202697
 20
123.145331
 30
0.0
  0
SPLINE
  5
19f
100
AcDbEntity
  8
Layer_1
 62
7
100
AcDbSpline
 70
8
 71
3
 72
8
 73
4
 74
0
 40
0
 40
0
 40
0
 40
0
 40
1
 40
1
 40
1
 40
1
 10
60.202697
 20
123.145331
 30
0.0
 10
59.897626
 20
122.821175
 30
0.0
 10
59.572921
 20
122.639598
 30
0.0
 10
59.228581
 20
122.600599
 30
0.0
  0
SPLINE
  5
1a0
100
AcDbEntity
  8
Layer_1
 62
7
100
AcDbSpline
 70
8
 71
3
 72
8
 73
4
 74
0
 40
0
 40
0
 40
0
 40
0
 40
1
 40
1
 40
1
 40
1
 10
59.228581
 20
122.600599
 30
0.0
 10
58.885353
 20
122.562779
 30
0.0
 10
58.564683
 20
122.671808
 30
0.0
 10
58.266572
 20
122.927687
 30
0.0
  0
SPLINE
  5
1a1
100
AcDbEntity
  8
Layer_1
 62
7
100
AcDbSpline
 70
8
 71
3
 72
8
 73
4
 74
0
 40
0
 40
0
 40
0
 40
0
 40
1
 40
1
 40
1
 40
1
 10
58.266572
 20
122.927687
 30
0.0
 10
57.967225
 20
123.184632
 30
0.0
 10
57.818995
 20
123.478078
 30
0.0
 10
57.821883
 20
123.808027
 30
0.0
  0
SPLINE
  5
1a2
100
AcDbEntity
  8
Layer_1
 62
7
100
AcDbSpline
 70
8
 71
3
 72
8
 73
4
 74
0
 40
0
 40
0
 40
0
 40
0
 40
1
 40
1
 40
1
 40
1
 10
57.821883
 20
123.808027
 30
0.0
 10
57.827124
 20
124.138088
 30
0.0
 10
57.982281
 20
124.465197
 30
0.0
 10
58.287352
 20
124.789352
 30
0.0
  0
SPLINE
  5
1a3
100
AcDbEntity
  8
Layer_1
 62
7
100
AcDbSpline
 70
8
 71
3
 72
8
 73
4
 74
0
 40
0
 40
0
 40
0
 40
0
 40
1
 40
1
 40
1
 40
1
 10
58.287352
 20
124.789352
 30
0.0
 10
58.593535
 20
125.114687
 30
0.0
 10
58.917620
 20
125.296797
 30
0.0
 10
59.259607
 20
125.335684
 30
0.0
  0
SPLINE
  5
1a4
100
AcDbEntity
  8
Layer_1
 62
7
100
AcDbSpline
 70
8
 71
3
 72
8
 73
4
 74
0
 40
0
 40
0
 40
0
 40
0
 40
1
 40
1
 40
1
 40
1
 10
59.259607
 20
125.335684
 30
0.0
 10
59.602835
 20
125.373504
 30
0.0
 10
59.924122
 20
125.263942
 30
0.0
 10
60.223469
 20
125.006997
 30
0.0
  0
LWPOLYLINE
  5
1a5
100
AcDbEntity
  8
Layer_1
 62
7
100
AcDbPolyline
 90
1
 70
1
 10
59.963882
 20
124.731170
 30
0.0
  0
SPLINE
  5
1a6
100
AcDbEntity
  8
Layer_1
 62
7
100
AcDbSpline
 70
8
 71
3
 72
8
 73
4
 74
0
 40
0
 40
0
 40
0
 40
0
 40
1
 40
1
 40
1
 40
1
 10
63.039600
 20
122.471129
 30
0.0
 10
63.226599
 20
122.607918
 30
0.0
 10
63.412927
 20
122.688783
 30
0.0
 10
63.598586
 20
122.713722
 30
0.0
  0
SPLINE
  5
1a7
100
AcDbEntity
  8
Layer_1
 62
7
100
AcDbSpline
 70
8
 71
3
 72
8
 73
4
 74
0
 40
0
 40
0
 40
0
 40
0
 40
1
 40
1
 40
1
 40
1
 10
63.598586
 20
122.713722
 30
0.0
 10
63.784244
 20
122.738661
 30
0.0
 10
63.976566
 20
122.709821
 30
0.0
 10
64.175551
 20
122.627201
 30
0.0
  0
SPLINE
  5
1a8
100
AcDbEntity
  8
Layer_1
 62
7
100
AcDbSpline
 70
8
 71
3
 72
8
 73
4
 74
0
 40
0
 40
0
 40
0
 40
0
 40
1
 40
1
 40
1
 40
1
 10
64.175551
 20
122.627201
 30
0.0
 10
64.443404
 20
122.515983
 30
0.0
 10
64.609673
 20
122.340593
 30
0.0
 10
64.674358
 20
122.101032
 30
0.0
  0
SPLINE
  5
1a9
100
AcDbEntity
  8
Layer_1
 62
7
100
AcDbSpline
 70
8
 71
3
 72
8
 73
4
 74
0
 40
0
 40
0
 40
0
 40
0
 40
1
 40
1
 40
1
 40
1
 10
64.674358
 20
122.101032
 30
0.0
 10
64.739696
 20
121.862927
 30
0.0
 10
64.698201
 20
121.579258
 30
0.0
 10
64.549873
 20
121.250023
 30
0.0
  0
LWPOLYLINE
  5
1aa
100
AcDbEntity
  8
Layer_1
 62
7
100
AcDbPolyline
 90
1
 70
1
 10
60.223469
 20
125.006997
 30
0.0
  0
SPLINE
  5
1ab
100
AcDbEntity
  8
Layer_1
 62
7
100
AcDbSpline
 70
8
 71
3
 72
8
 73
4
 74
0
 40
0
 40
0
 40
0
 40
0
 40
1
 40
1
 40
1
 40
1
 10
64.119221
 20
121.413273
 30
0.0
 10
64.224888
 20
121.647816
 30
0.0
 10
64.259695
 20
121.840015
 30
0.0
 10
64.223641
 20
121.989871
 30
0.0
  0
SPLINE
  5
1ac
100
AcDbEntity
  8
Layer_1
 62
7
100
AcDbSpline
 70
8
 71
3
 72
8
 73
4
 74
0
 40
0
 40
0
 40
0
 40
0
 40
1
 40
1
 40
1
 40
1
 10
64.223641
 20
121.989871
 30
0.0
 10
64.187587
 20
122.139726
 30
0.0
 10
64.080020
 20
122.251833
 30
0.0
 10
63.900940
 20
122.326191
 30
0.0
  0
SPLINE
  5
1ad
100
AcDbEntity
  8
Layer_1
 62
7
100
AcDbSpline
 70
8
 71
3
 72
8
 73
4
 74
0
 40
0
 40
0
 40
0
 40
0
 40
1
 40
1
 40
1
 40
1
 10
63.900940
 20
122.326191
 30
0.0
 10
63.682061
 20
122.417072
 30
0.0
 10
63.477928
 20
122.419690
 30
0.0
 10
63.288542
 20
122.334045
 30
0.0
  0
SPLINE
  5
1ae
100
AcDbEntity
  8
Layer_1
 62
7
100
AcDbSpline
 70
8
 71
3
 72
8
 73
4
 74
0
 40
0
 40
0
 40
0
 40
0
 40
1
 40
1
 40
1
 40
1
 10
63.288542
 20
122.334045
 30
0.0
 10
63.099149
 20
122.248399
 30
0.0
 10
62.950636
 20
122.086119
 30
0.0
 10
62.843004
 20
121.847205
 30
0.0
  0
LWPOLYLINE
  5
1af
100
AcDbEntity
  8
Layer_1
 62
7
100
AcDbPolyline
 90
4
 70
0
 10
64.549873
 20
121.250023
 30
0.0
 10
63.884373
 20
119.772837
 30
0.0
 10
63.459625
 20
119.949199
 30
0.0
 10
64.119221
 20
121.413273
 30
0.0
  0
SPLINE
  5
1b0
100
AcDbEntity
  8
Layer_1
 62
7
100
AcDbSpline
 70
8
 71
3
 72
8
 73
4
 74
0
 40
0
 40
0
 40
0
 40
0
 40
1
 40
1
 40
1
 40
1
 10
62.454678
 20
122.104418
 30
0.0
 10
62.561004
 20
122.340419
 30
0.0
 10
62.595811
 20
122.532618
 30
0.0
 10
62.559098
 20
122.681017
 30
0.0
  0
SPLINE
  5
1b1
100
AcDbEntity
  8
Layer_1
 62
7
100
AcDbSpline
 70
8
 71
3
 72
8
 73
4
 74
0
 40
0
 40
0
 40
0
 40
0
 40
1
 40
1
 40
1
 40
1
 10
62.559098
 20
122.681017
 30
0.0
 10
62.523050
 20
122.830872
 30
0.0
 10
62.413953
 20
122.943614
 30
0.0
 10
62.231807
 20
123.019242
 30
0.0
  0
SPLINE
  5
1b2
100
AcDbEntity
  8
Layer_1
 62
7
100
AcDbSpline
 70
8
 71
3
 72
8
 73
4
 74
0
 40
0
 40
0
 40
0
 40
0
 40
1
 40
1
 40
1
 40
1
 10
62.231807
 20
123.019242
 30
0.0
 10
62.015988
 20
123.108853
 30
0.0
 10
61.813056
 20
123.110107
 30
0.0
 10
61.623010
 20
123.023005
 30
0.0
  0
SPLINE
  5
1b3
100
AcDbEntity
  8
Layer_1
 62
7
100
AcDbSpline
 70
8
 71
3
 72
8
 73
4
 74
0
 40
0
 40
0
 40
0
 40
0
 40
1
 40
1
 40
1
 40
1
 10
61.623010
 20
123.023005
 30
0.0
 10
61.433624
 20
122.937359
 30
0.0
 10
61.285440
 20
122.775807
 30
0.0
 10
61.178461
 20
122.538350
 30
0.0
  0
LWPOLYLINE
  5
1b4
100
AcDbEntity
  8
Layer_1
 62
7
100
AcDbPolyline
 90
4
 70
0
 10
62.843004
 20
121.847205
 30
0.0
 10
62.219830
 20
120.463982
 30
0.0
 10
61.795091
 20
120.640343
 30
0.0
 10
62.454678
 20
122.104418
 30
0.0
  0
SPLINE
  5
1b5
100
AcDbEntity
  8
Layer_1
 62
7
100
AcDbSpline
 70
8
 71
3
 72
8
 73
4
 74
0
 40
0
 40
0
 40
0
 40
0
 40
1
 40
1
 40
1
 40
1
 10
61.486594
 20
123.222314
 30
0.0
 10
61.650627
 20
123.332325
 30
0.0
 10
61.816070
 20
123.395058
 30
0.0
 10
61.982922
 20
123.410513
 30
0.0
  0
SPLINE
  5
1b6
100
AcDbEntity
  8
Layer_1
 62
7
100
AcDbSpline
 70
8
 71
3
 72
8
 73
4
 74
0
 40
0
 40
0
 40
0
 40
0
 40
1
 40
1
 40
1
 40
1
 10
61.982922
 20
123.410513
 30
0.0
 10
62.149774
 20
123.425969
 30
0.0
 10
62.325803
 20
123.395247
 30
0.0
 10
62.511008
 20
123.318347
 30
0.0
  0
SPLINE
  5
1b7
100
AcDbEntity
  8
Layer_1
 62
7
100
AcDbSpline
 70
8
 71
3
 72
8
 73
4
 74
0
 40
0
 40
0
 40
0
 40
0
 40
1
 40
1
 40
1
 40
1
 10
62.511008
 20
123.318347
 30
0.0
 10
62.697741
 20
123.240811
 30
0.0
 10
62.835812
 20
123.129873
 30
0.0
 10
62.925222
 20
122.985532
 30
0.0
  0
SPLINE
  5
1b8
100
AcDbEntity
  8
Layer_1
 62
7
100
AcDbSpline
 70
8
 71
3
 72
8
 73
4
 74
0
 40
0
 40
0
 40
0
 40
0
 40
1
 40
1
 40
1
 40
1
 10
62.925222
 20
122.985532
 30
0.0
 10
63.016165
 20
122.840554
 30
0.0
 10
63.054291
 20
122.669087
 30
0.0
 10
63.039600
 20
122.471129
 30
0.0
  0
LWPOLYLINE
  5
1b9
100
AcDbEntity
  8
Layer_1
 62
7
100
AcDbPolyline
 90
6
 70
0
 10
61.178461
 20
122.538350
 30
0.0
 10
60.555287
 20
121.155128
 30
0.0
 10
60.130548
 20
121.331489
 30
0.0
 10
61.233152
 20
123.778897
 30
0.0
 10
61.657891
 20
123.602537
 30
0.0
 10
61.486594
 20
123.222314
 30
0.0
  0
LWPOLYLINE
  5
1ba
100
AcDbEntity
  8
Layer_1
 62
7
100
AcDbPolyline
 90
1
 70
1
 10
63.039600
 20
122.471129
 30
0.0
  0
SPLINE
  5
1bb
100
AcDbEntity
  8
Layer_1
 62
7
100
AcDbSpline
 70
8
 71
3
 72
8
 73
4
 74
0
 40
0
 40
0
 40
0
 40
0
 40
1
 40
1
 40
1
 40
1
 10
60.371051
 20
146.419481
 30
0.0
 10
60.564096
 20
146.555568
 30
0.0
 10
60.679317
 20
146.707843
 30
0.0
 10
60.716714
 20
146.876307
 30
0.0
  0
SPLINE
  5
1bc
100
AcDbEntity
  8
Layer_1
 62
7
100
AcDbSpline
 70
8
 71
3
 72
8
 73
4
 74
0
 40
0
 40
0
 40
0
 40
0
 40
1
 40
1
 40
1
 40
1
 10
60.716714
 20
146.876307
 30
0.0
 10
60.754110
 20
147.044771
 30
0.0
 10
60.709907
 20
147.216057
 30
0.0
 10
60.584104
 20
147.390165
 30
0.0
  0
SPLINE
  5
1bd
100
AcDbEntity
  8
Layer_1
 62
7
100
AcDbSpline
 70
8
 71
3
 72
8
 73
4
 74
0
 40
0
 40
0
 40
0
 40
0
 40
1
 40
1
 40
1
 40
1
 10
60.584104
 20
147.390165
 30
0.0
 10
60.459237
 20
147.562980
 30
0.0
 10
60.310077
 20
147.659304
 30
0.0
 10
60.136624
 20
147.679138
 30
0.0
  0
SPLINE
  5
1be
100
AcDbEntity
  8
Layer_1
 62
7
100
AcDbSpline
 70
8
 71
3
 72
8
 73
4
 74
0
 40
0
 40
0
 40
0
 40
0
 40
1
 40
1
 40
1
 40
1
 10
60.136624
 20
147.679138
 30
0.0
 10
59.963175
 20
147.698968
 30
0.0
 10
59.779928
 20
147.640839
 30
0.0
 10
59.586882
 20
147.504752
 30
0.0
  0
LWPOLYLINE
  5
1bf
100
AcDbEntity
  8
Layer_1
 62
7
100
AcDbPolyline
 90
3
 70
0
 10
59.065244
 20
147.137031
 30
0.0
 10
59.849413
 20
146.051759
 30
0.0
 10
60.371051
 20
146.419481
 30
0.0
  0
LWPOLYLINE
  5
1c0
100
AcDbEntity
  8
Layer_1
 62
7
100
AcDbPolyline
 90
2
 70
0
 10
59.586882
 20
147.504752
 30
0.0
 10
59.065244
 20
147.137031
 30
0.0
  0
SPLINE
  5
1c1
100
AcDbEntity
  8
Layer_1
 62
7
100
AcDbSpline
 70
8
 71
3
 72
8
 73
4
 74
0
 40
0
 40
0
 40
0
 40
0
 40
1
 40
1
 40
1
 40
1
 10
59.354849
 20
147.825883
 30
0.0
 10
59.698501
 20
148.068135
 30
0.0
 10
60.011066
 20
148.177520
 30
0.0
 10
60.292543
 20
148.154038
 30
0.0
  0
SPLINE
  5
1c2
100
AcDbEntity
  8
Layer_1
 62
7
100
AcDbSpline
 70
8
 71
3
 72
8
 73
4
 74
0
 40
0
 40
0
 40
0
 40
0
 40
1
 40
1
 40
1
 40
1
 10
60.292543
 20
148.154038
 30
0.0
 10
60.574465
 20
148.132805
 30
0.0
 10
60.817466
 20
147.980969
 30
0.0
 10
61.021545
 20
147.698529
 30
0.0
  0
SPLINE
  5
1c3
100
AcDbEntity
  8
Layer_1
 62
7
100
AcDbSpline
 70
8
 71
3
 72
8
 73
4
 74
0
 40
0
 40
0
 40
0
 40
0
 40
1
 40
1
 40
1
 40
1
 10
61.021545
 20
147.698529
 30
0.0
 10
61.227487
 20
147.413510
 30
0.0
 10
61.294800
 20
147.135880
 30
0.0
 10
61.223485
 20
146.865641
 30
0.0
  0
SPLINE
  5
1c4
100
AcDbEntity
  8
Layer_1
 62
7
100
AcDbSpline
 70
8
 71
3
 72
8
 73
4
 74
0
 40
0
 40
0
 40
0
 40
0
 40
1
 40
1
 40
1
 40
1
 10
61.223485
 20
146.865641
 30
0.0
 10
61.153537
 20
146.596367
 30
0.0
 10
60.946737
 20
146.340605
 30
0.0
 10
60.603085
 20
146.098353
 30
0.0
  0
LWPOLYLINE
  5
1c5
100
AcDbEntity
  8
Layer_1
 62
7
100
AcDbPolyline
 90
2
 70
0
 10
58.418360
 20
147.165723
 30
0.0
 10
59.354849
 20
147.825883
 30
0.0
  0
LWPOLYLINE
  5
1c6
100
AcDbEntity
  8
Layer_1
 62
7
100
AcDbPolyline
 90
5
 70
0
 10
60.603085
 20
146.098353
 30
0.0
 10
60.081447
 20
145.730631
 30
0.0
 10
60.920128
 20
144.569914
 30
0.0
 10
60.505284
 20
144.277472
 30
0.0
 10
58.418360
 20
147.165723
 30
0.0
  0
SPLINE
  5
1c7
100
AcDbEntity
  8
Layer_1
 62
7
100
AcDbSpline
 70
8
 71
3
 72
8
 73
4
 74
0
 40
0
 40
0
 40
0
 40
0
 40
1
 40
1
 40
1
 40
1
 10
64.284813
 20
148.146102
 30
0.0
 10
64.196518
 20
148.383307
 30
0.0
 10
64.082067
 20
148.542002
 30
0.0
 10
63.941459
 20
148.622186
 30
0.0
  0
SPLINE
  5
1c8
100
AcDbEntity
  8
Layer_1
 62
7
100
AcDbSpline
 70
8
 71
3
 72
8
 73
4
 74
0
 40
0
 40
0
 40
0
 40
0
 40
1
 40
1
 40
1
 40
1
 10
63.941459
 20
148.622186
 30
0.0
 10
63.800851
 20
148.702370
 30
0.0
 10
63.633809
 20
148.704791
 30
0.0
 10
63.440332
 20
148.629449
 30
0.0
  0
SPLINE
  5
1c9
100
AcDbEntity
  8
Layer_1
 62
7
100
AcDbSpline
 70
8
 71
3
 72
8
 73
4
 74
0
 40
0
 40
0
 40
0
 40
0
 40
1
 40
1
 40
1
 40
1
 10
63.440332
 20
148.629449
 30
0.0
 10
63.207848
 20
148.538917
 30
0.0
 10
63.050890
 20
148.396661
 30
0.0
 10
62.969457
 20
148.202682
 30
0.0
  0
SPLINE
  5
1ca
100
AcDbEntity
  8
Layer_1
 62
7
100
AcDbSpline
 70
8
 71
3
 72
8
 73
4
 74
0
 40
0
 40
0
 40
0
 40
0
 40
1
 40
1
 40
1
 40
1
 10
62.969457
 20
148.202682
 30
0.0
 10
62.888025
 20
148.008703
 30
0.0
 10
62.892845
 20
147.789382
 30
0.0
 10
62.983918
 20
147.544717
 30
0.0
  0
LWPOLYLINE
  5
1cb
100
AcDbEntity
  8
Layer_1
 62
7
100
AcDbPolyline
 90
4
 70
0
 10
64.710455
 20
148.327227
 30
0.0
 10
65.273542
 20
146.814489
 30
0.0
 10
64.842898
 20
146.646793
 30
0.0
 10
64.284813
 20
148.146102
 30
0.0
  0
SPLINE
  5
1cc
100
AcDbEntity
  8
Layer_1
 62
7
100
AcDbSpline
 70
8
 71
3
 72
8
 73
4
 74
0
 40
0
 40
0
 40
0
 40
0
 40
1
 40
1
 40
1
 40
1
 10
62.723201
 20
148.245141
 30
0.0
 10
62.770094
 20
148.435919
 30
0.0
 10
62.849091
 20
148.595643
 30
0.0
 10
62.960192
 20
148.724312
 30
0.0
  0
SPLINE
  5
1cd
100
AcDbEntity
  8
Layer_1
 62
7
100
AcDbSpline
 70
8
 71
3
 72
8
 73
4
 74
0
 40
0
 40
0
 40
0
 40
0
 40
1
 40
1
 40
1
 40
1
 10
62.960192
 20
148.724312
 30
0.0
 10
63.072853
 20
148.853589
 30
0.0
 10
63.220459
 20
148.953773
 30
0.0
 10
63.403009
 20
149.024866
 30
0.0
  0
SPLINE
  5
1ce
100
AcDbEntity
  8
Layer_1
 62
7
100
AcDbSpline
 70
8
 71
3
 72
8
 73
4
 74
0
 40
0
 40
0
 40
0
 40
0
 40
1
 40
1
 40
1
 40
1
 10
63.403009
 20
149.024866
 30
0.0
 10
63.704146
 20
149.142133
 30
0.0
 10
63.965269
 20
149.141331
 30
0.0
 10
64.186377
 20
149.022461
 30
0.0
  0
SPLINE
  5
1cf
100
AcDbEntity
  8
Layer_1
 62
7
100
AcDbSpline
 70
8
 71
3
 72
8
 73
4
 74
0
 40
0
 40
0
 40
0
 40
0
 40
1
 40
1
 40
1
 40
1
 10
64.186377
 20
149.022461
 30
0.0
 10
64.406929
 20
148.905083
 30
0.0
 10
64.581622
 20
148.673338
 30
0.0
 10
64.710455
 20
148.327227
 30
0.0
  0
LWPOLYLINE
  5
1d0
100
AcDbEntity
  8
Layer_1
 62
7
100
AcDbPolyline
 90
6
 70
0
 10
62.983918
 20
147.544717
 30
0.0
 10
63.511189
 20
146.128203
 30
0.0
 10
63.078204
 20
145.959594
 30
0.0
 10
61.782110
 20
149.441574
 30
0.0
 10
62.215087
 20
149.610188
 30
0.0
 10
62.723201
 20
148.245141
 30
0.0
  0
SPLINE
  5
1d1
100
AcDbEntity
  8
Layer_1
 62
7
100
AcDbSpline
 70
8
 71
3
 72
8
 73
4
 74
0
 40
0
 40
0
 40
0
 40
0
 40
1
 40
1
 40
1
 40
1
 10
67.021988
 20
149.549669
 30
0.0
 10
66.777972
 20
149.516540
 30
0.0
 10
66.594135
 20
149.397829
 30
0.0
 10
66.470480
 20
149.193535
 30
0.0
  0
SPLINE
  5
1d2
100
AcDbEntity
  8
Layer_1
 62
7
100
AcDbSpline
 70
8
 71
3
 72
8
 73
4
 74
0
 40
0
 40
0
 40
0
 40
0
 40
1
 40
1
 40
1
 40
1
 10
66.470480
 20
149.193535
 30
0.0
 10
66.346672
 20
148.990835
 30
0.0
 10
66.300484
 20
148.729165
 30
0.0
 10
66.331917
 20
148.408528
 30
0.0
  0
SPLINE
  5
1d3
100
AcDbEntity
  8
Layer_1
 62
7
100
AcDbSpline
 70
8
 71
3
 72
8
 73
4
 74
0
 40
0
 40
0
 40
0
 40
0
 40
1
 40
1
 40
1
 40
1
 10
66.331917
 20
148.408528
 30
0.0
 10
66.363350
 20
148.087890
 30
0.0
 10
66.458208
 20
147.844563
 30
0.0
 10
66.616490
 20
147.678547
 30
0.0
  0
SPLINE
  5
1d4
100
AcDbEntity
  8
Layer_1
 62
7
100
AcDbSpline
 70
8
 71
3
 72
8
 73
4
 74
0
 40
0
 40
0
 40
0
 40
0
 40
1
 40
1
 40
1
 40
1
 10
66.616490
 20
147.678547
 30
0.0
 10
66.776268
 20
147.514348
 30
0.0
 10
66.978992
 20
147.448923
 30
0.0
 10
67.224661
 20
147.482273
 30
0.0
  0
SPLINE
  5
1d5
100
AcDbEntity
  8
Layer_1
 62
7
100
AcDbSpline
 70
8
 71
3
 72
8
 73
4
 74
0
 40
0
 40
0
 40
0
 40
0
 40
1
 40
1
 40
1
 40
1
 10
67.224661
 20
147.482273
 30
0.0
 10
67.467029
 20
147.515178
 30
0.0
 10
67.650039
 20
147.633778
 30
0.0
 10
67.773689
 20
147.838075
 30
0.0
  0
SPLINE
  5
1d6
100
AcDbEntity
  8
Layer_1
 62
7
100
AcDbSpline
 70
8
 71
3
 72
8
 73
4
 74
0
 40
0
 40
0
 40
0
 40
0
 40
1
 40
1
 40
1
 40
1
 10
67.773689
 20
147.838075
 30
0.0
 10
67.897345
 20
148.042368
 30
0.0
 10
67.943535
 20
148.304036
 30
0.0
 10
67.912259
 20
148.623078
 30
0.0
  0
SPLINE
  5
1d7
100
AcDbEntity
  8
Layer_1
 62
7
100
AcDbSpline
 70
8
 71
3
 72
8
 73
4
 74
0
 40
0
 40
0
 40
0
 40
0
 40
1
 40
1
 40
1
 40
1
 10
67.912259
 20
148.623078
 30
0.0
 10
67.881141
 20
148.940524
 30
0.0
 10
67.785614
 20
149.182145
 30
0.0
 10
67.625679
 20
149.347940
 30
0.0
  0
SPLINE
  5
1d8
100
AcDbEntity
  8
Layer_1
 62
7
100
AcDbSpline
 70
8
 71
3
 72
8
 73
4
 74
0
 40
0
 40
0
 40
0
 40
0
 40
1
 40
1
 40
1
 40
1
 10
67.625679
 20
149.347940
 30
0.0
 10
67.465586
 20
149.515331
 30
0.0
 10
67.264356
 20
149.582574
 30
0.0
 10
67.021988
 20
149.549669
 30
0.0
  0
LWPOLYLINE
  5
1d9
100
AcDbEntity
  8
Layer_1
 62
7
100
AcDbPolyline
 90
1
 70
1
 10
64.710455
 20
148.327227
 30
0.0
  0
SPLINE
  5
1da
100
AcDbEntity
  8
Layer_1
 62
7
100
AcDbSpline
 70
8
 71
3
 72
8
 73
4
 74
0
 40
0
 40
0
 40
0
 40
0
 40
1
 40
1
 40
1
 40
1
 10
66.985394
 20
149.922949
 30
0.0
 10
67.381101
 20
149.976669
 30
0.0
 10
67.704092
 20
149.894435
 30
0.0
 10
67.954368
 20
149.676248
 30
0.0
  0
SPLINE
  5
1db
100
AcDbEntity
  8
Layer_1
 62
7
100
AcDbSpline
 70
8
 71
3
 72
8
 73
4
 74
0
 40
0
 40
0
 40
0
 40
0
 40
1
 40
1
 40
1
 40
1
 10
67.954368
 20
149.676248
 30
0.0
 10
68.204644
 20
149.458062
 30
0.0
 10
68.351361
 20
149.128830
 30
0.0
 10
68.394521
 20
148.688553
 30
0.0
  0
SPLINE
  5
1dc
100
AcDbEntity
  8
Layer_1
 62
7
100
AcDbSpline
 70
8
 71
3
 72
8
 73
4
 74
0
 40
0
 40
0
 40
0
 40
0
 40
1
 40
1
 40
1
 40
1
 10
68.394521
 20
148.688553
 30
0.0
 10
68.437528
 20
148.249868
 30
0.0
 10
68.358366
 20
147.889970
 30
0.0
 10
68.157034
 20
147.608857
 30
0.0
  0
SPLINE
  5
1dd
100
AcDbEntity
  8
Layer_1
 62
7
100
AcDbSpline
 70
8
 71
3
 72
8
 73
4
 74
0
 40
0
 40
0
 40
0
 40
0
 40
1
 40
1
 40
1
 40
1
 10
68.157034
 20
147.608857
 30
0.0
 10
67.955550
 20
147.329337
 30
0.0
 10
67.656955
 20
147.162717
 30
0.0
 10
67.261248
 20
147.108997
 30
0.0
  0
SPLINE
  5
1de
100
AcDbEntity
  8
Layer_1
 62
7
100
AcDbSpline
 70
8
 71
3
 72
8
 73
4
 74
0
 40
0
 40
0
 40
0
 40
0
 40
1
 40
1
 40
1
 40
1
 10
67.261248
 20
147.108997
 30
0.0
 10
66.863897
 20
147.055050
 30
0.0
 10
66.540085
 20
147.137170
 30
0.0
 10
66.289809
 20
147.355357
 30
0.0
  0
SPLINE
  5
1df
100
AcDbEntity
  8
Layer_1
 62
7
100
AcDbSpline
 70
8
 71
3
 72
8
 73
4
 74
0
 40
0
 40
0
 40
0
 40
0
 40
1
 40
1
 40
1
 40
1
 10
66.289809
 20
147.355357
 30
0.0
 10
66.041024
 20
147.575363
 30
0.0
 10
65.895128
 20
147.904709
 30
0.0
 10
65.852121
 20
148.343393
 30
0.0
  0
SPLINE
  5
1e0
100
AcDbEntity
  8
Layer_1
 62
7
100
AcDbSpline
 70
8
 71
3
 72
8
 73
4
 74
0
 40
0
 40
0
 40
0
 40
0
 40
1
 40
1
 40
1
 40
1
 10
65.852121
 20
148.343393
 30
0.0
 10
65.808962
 20
148.783671
 30
0.0
 10
65.887300
 20
149.143457
 30
0.0
 10
66.087135
 20
149.422753
 30
0.0
  0
SPLINE
  5
1e1
100
AcDbEntity
  8
Layer_1
 62
7
100
AcDbSpline
 70
8
 71
3
 72
8
 73
4
 74
0
 40
0
 40
0
 40
0
 40
0
 40
1
 40
1
 40
1
 40
1
 10
66.087135
 20
149.422753
 30
0.0
 10
66.288624
 20
149.702270
 30
0.0
 10
66.588044
 20
149.869002
 30
0.0
 10
66.985394
 20
149.922949
 30
0.0
  0
LWPOLYLINE
  5
1e2
100
AcDbEntity
  8
Layer_1
 62
7
100
AcDbPolyline
 90
1
 70
1
 10
67.021988
 20
149.549669
 30
0.0
  0
LWPOLYLINE
  5
1e3
100
AcDbEntity
  8
Layer_1
 62
7
100
AcDbPolyline
 90
1
 70
1
 10
66.985394
 20
149.922949
 30
0.0
  0
SPLINE
  5
1e4
100
AcDbEntity
  8
Layer_1
 62
7
100
AcDbSpline
 70
8
 71
3
 72
8
 73
4
 74
0
 40
0
 40
0
 40
0
 40
0
 40
1
 40
1
 40
1
 40
1
 10
69.741511
 20
148.558553
 30
0.0
 10
69.717785
 20
148.252027
 30
0.0
 10
69.778156
 20
148.010899
 30
0.0
 10
69.922624
 20
147.835169
 30
0.0
  0
SPLINE
  5
1e5
100
AcDbEntity
  8
Layer_1
 62
7
100
AcDbSpline
 70
8
 71
3
 72
8
 73
4
 74
0
 40
0
 40
0
 40
0
 40
0
 40
1
 40
1
 40
1
 40
1
 10
69.922624
 20
147.835169
 30
0.0
 10
70.068958
 20
147.660895
 30
0.0
 10
70.292215
 20
147.559990
 30
0.0
 10
70.592394
 20
147.532454
 30
0.0
  0
SPLINE
  5
1e6
100
AcDbEntity
  8
Layer_1
 62
7
100
AcDbSpline
 70
8
 71
3
 72
8
 73
4
 74
0
 40
0
 40
0
 40
0
 40
0
 40
1
 40
1
 40
1
 40
1
 10
70.592394
 20
147.532454
 30
0.0
 10
70.766269
 20
147.516503
 30
0.0
 10
70.937373
 20
147.521929
 30
0.0
 10
71.105706
 20
147.548730
 30
0.0
  0
SPLINE
  5
1e7
100
AcDbEntity
  8
Layer_1
 62
7
100
AcDbSpline
 70
8
 71
3
 72
8
 73
4
 74
0
 40
0
 40
0
 40
0
 40
0
 40
1
 40
1
 40
1
 40
1
 10
71.105706
 20
147.548730
 30
0.0
 10
71.275681
 20
147.575380
 30
0.0
 10
71.446986
 20
147.623030
 30
0.0
 10
71.619621
 20
147.691680
 30
0.0
  0
LWPOLYLINE
  5
1e8
100
AcDbEntity
  8
Layer_1
 62
7
100
AcDbPolyline
 90
3
 70
0
 10
71.853940
 20
148.584109
 30
0.0
 10
71.823095
 20
148.367598
 30
0.0
 10
69.741511
 20
148.558553
 30
0.0
  0
SPLINE
  5
1e9
100
AcDbEntity
  8
Layer_1
 62
7
100
AcDbSpline
 70
8
 71
3
 72
8
 73
4
 74
0
 40
0
 40
0
 40
0
 40
0
 40
1
 40
1
 40
1
 40
1
 10
71.559989
 20
147.273089
 30
0.0
 10
71.388001
 20
147.220627
 30
0.0
 10
71.214194
 20
147.184580
 30
0.0
 10
71.038571
 20
147.164947
 30
0.0
  0
SPLINE
  5
1ea
100
AcDbEntity
  8
Layer_1
 62
7
100
AcDbSpline
 70
8
 71
3
 72
8
 73
4
 74
0
 40
0
 40
0
 40
0
 40
0
 40
1
 40
1
 40
1
 40
1
 10
71.038571
 20
147.164947
 30
0.0
 10
70.862952
 20
147.145312
 30
0.0
 10
70.687384
 20
147.143546
 30
0.0
 10
70.511866
 20
147.159648
 30
0.0
  0
SPLINE
  5
1eb
100
AcDbEntity
  8
Layer_1
 62
7
100
AcDbSpline
 70
8
 71
3
 72
8
 73
4
 74
0
 40
0
 40
0
 40
0
 40
0
 40
1
 40
1
 40
1
 40
1
 10
70.511866
 20
147.159648
 30
0.0
 10
70.072258
 20
147.199975
 30
0.0
 10
69.741508
 20
147.357048
 30
0.0
 10
69.519615
 20
147.630866
 30
0.0
  0
SPLINE
  5
1ec
100
AcDbEntity
  8
Layer_1
 62
7
100
AcDbSpline
 70
8
 71
3
 72
8
 73
4
 74
0
 40
0
 40
0
 40
0
 40
0
 40
1
 40
1
 40
1
 40
1
 10
69.519615
 20
147.630866
 30
0.0
 10
69.299370
 20
147.904530
 30
0.0
 10
69.219635
 20
148.254666
 30
0.0
 10
69.280409
 20
148.681276
 30
0.0
  0
SPLINE
  5
1ed
100
AcDbEntity
  8
Layer_1
 62
7
100
AcDbSpline
 70
8
 71
3
 72
8
 73
4
 74
0
 40
0
 40
0
 40
0
 40
0
 40
1
 40
1
 40
1
 40
1
 10
69.280409
 20
148.681276
 30
0.0
 10
69.343238
 20
149.122320
 30
0.0
 10
69.514429
 20
149.460814
 30
0.0
 10
69.793980
 20
149.696756
 30
0.0
  0
SPLINE
  5
1ee
100
AcDbEntity
  8
Layer_1
 62
7
100
AcDbSpline
 70
8
 71
3
 72
8
 73
4
 74
0
 40
0
 40
0
 40
0
 40
0
 40
1
 40
1
 40
1
 40
1
 10
69.793980
 20
149.696756
 30
0.0
 10
70.075406
 20
149.934148
 30
0.0
 10
70.422801
 20
150.033884
 30
0.0
 10
70.836165
 20
149.995963
 30
0.0
  0
SPLINE
  5
1ef
100
AcDbEntity
  8
Layer_1
 62
7
100
AcDbSpline
 70
8
 71
3
 72
8
 73
4
 74
0
 40
0
 40
0
 40
0
 40
0
 40
1
 40
1
 40
1
 40
1
 10
70.836165
 20
149.995963
 30
0.0
 10
71.206880
 20
149.961956
 30
0.0
 10
71.482999
 20
149.818020
 30
0.0
 10
71.664521
 20
149.564156
 30
0.0
  0
SPLINE
  5
1f0
100
AcDbEntity
  8
Layer_1
 62
7
100
AcDbSpline
 70
8
 71
3
 72
8
 73
4
 74
0
 40
0
 40
0
 40
0
 40
0
 40
1
 40
1
 40
1
 40
1
 10
71.664521
 20
149.564156
 30
0.0
 10
71.847919
 20
149.311741
 30
0.0
 10
71.911058
 20
148.985058
 30
0.0
 10
71.853940
 20
148.584109
 30
0.0
  0
LWPOLYLINE
  5
1f1
100
AcDbEntity
  8
Layer_1
 62
7
100
AcDbPolyline
 90
2
 70
0
 10
71.619621
 20
147.691680
 30
0.0
 10
71.559989
 20
147.273089
 30
0.0
  0
SPLINE
  5
1f2
100
AcDbEntity
  8
Layer_1
 62
7
100
AcDbSpline
 70
8
 71
3
 72
8
 73
4
 74
0
 40
0
 40
0
 40
0
 40
0
 40
1
 40
1
 40
1
 40
1
 10
71.419710
 20
148.755551
 30
0.0
 10
71.450929
 20
148.998025
 30
0.0
 10
71.408746
 20
149.197678
 30
0.0
 10
71.293161
 20
149.354510
 30
0.0
  0
SPLINE
  5
1f3
100
AcDbEntity
  8
Layer_1
 62
7
100
AcDbSpline
 70
8
 71
3
 72
8
 73
4
 74
0
 40
0
 40
0
 40
0
 40
0
 40
1
 40
1
 40
1
 40
1
 10
71.293161
 20
149.354510
 30
0.0
 10
71.179218
 20
149.511189
 30
0.0
 10
71.010704
 20
149.599761
 30
0.0
 10
70.787620
 20
149.620225
 30
0.0
  0
SPLINE
  5
1f4
100
AcDbEntity
  8
Layer_1
 62
7
100
AcDbSpline
 70
8
 71
3
 72
8
 73
4
 74
0
 40
0
 40
0
 40
0
 40
0
 40
1
 40
1
 40
1
 40
1
 10
70.787620
 20
149.620225
 30
0.0
 10
70.535007
 20
149.643400
 30
0.0
 10
70.322486
 20
149.592219
 30
0.0
 10
70.150058
 20
149.466684
 30
0.0
  0
SPLINE
  5
1f5
100
AcDbEntity
  8
Layer_1
 62
7
100
AcDbSpline
 70
8
 71
3
 72
8
 73
4
 74
0
 40
0
 40
0
 40
0
 40
0
 40
1
 40
1
 40
1
 40
1
 10
70.150058
 20
149.466684
 30
0.0
 10
69.979272
 20
149.340996
 30
0.0
 10
69.864348
 20
149.152505
 30
0.0
 10
69.805284
 20
148.901212
 30
0.0
  0
LWPOLYLINE
  5
1f6
100
AcDbEntity
  8
Layer_1
 62
7
100
AcDbPolyline
 90
1
 70
1
 10
71.853940
 20
148.584109
 30
0.0
  0
LWPOLYLINE
  5
1f7
100
AcDbEntity
  8
Layer_1
 62
7
100
AcDbPolyline
 90
2
 70
0
 10
69.805284
 20
148.901212
 30
0.0
 10
71.419710
 20
148.755551
 30
0.0
  0
SPLINE
  5
1f8
100
AcDbEntity
  8
Layer_1
 62
7
100
AcDbSpline
 70
8
 71
3
 72
8
 73
4
 74
0
 40
0
 40
0
 40
0
 40
0
 40
1
 40
1
 40
1
 40
1
 10
74.705110
 20
147.918186
 30
0.0
 10
74.799535
 20
148.161154
 30
0.0
 10
74.822278
 20
148.358797
 30
0.0
 10
74.773339
 20
148.511115
 30
0.0
  0
SPLINE
  5
1f9
100
AcDbEntity
  8
Layer_1
 62
7
100
AcDbSpline
 70
8
 71
3
 72
8
 73
4
 74
0
 40
0
 40
0
 40
0
 40
0
 40
1
 40
1
 40
1
 40
1
 10
74.773339
 20
148.511115
 30
0.0
 10
74.724400
 20
148.663431
 30
0.0
 10
74.604077
 20
148.771186
 30
0.0
 10
74.412371
 20
148.834378
 30
0.0
  0
SPLINE
  5
1fa
100
AcDbEntity
  8
Layer_1
 62
7
100
AcDbSpline
 70
8
 71
3
 72
8
 73
4
 74
0
 40
0
 40
0
 40
0
 40
0
 40
1
 40
1
 40
1
 40
1
 10
74.412371
 20
148.834378
 30
0.0
 10
74.182012
 20
148.910313
 30
0.0
 10
73.972143
 20
148.897610
 30
0.0
 10
73.782765
 20
148.796269
 30
0.0
  0
SPLINE
  5
1fb
100
AcDbEntity
  8
Layer_1
 62
7
100
AcDbSpline
 70
8
 71
3
 72
8
 73
4
 74
0
 40
0
 40
0
 40
0
 40
0
 40
1
 40
1
 40
1
 40
1
 10
73.782765
 20
148.796269
 30
0.0
 10
73.593393
 20
148.694925
 30
0.0
 10
73.450007
 20
148.518950
 30
0.0
 10
73.352608
 20
148.268345
 30
0.0
  0
LWPOLYLINE
  5
1fc
100
AcDbEntity
  8
Layer_1
 62
7
100
AcDbPolyline
 90
4
 70
0
 10
75.137154
 20
147.791286
 30
0.0
 10
74.534974
 20
146.241792
 30
0.0
 10
74.108273
 20
146.382447
 30
0.0
 10
74.705110
 20
147.918186
 30
0.0
  0
SPLINE
  5
1fd
100
AcDbEntity
  8
Layer_1
 62
7
100
AcDbSpline
 70
8
 71
3
 72
8
 73
4
 74
0
 40
0
 40
0
 40
0
 40
0
 40
1
 40
1
 40
1
 40
1
 10
73.631435
 20
148.985784
 30
0.0
 10
73.793450
 20
149.106489
 30
0.0
 10
73.958103
 20
149.182366
 30
0.0
 10
74.125395
 20
149.213413
 30
0.0
  0
SPLINE
  5
1fe
100
AcDbEntity
  8
Layer_1
 62
7
100
AcDbSpline
 70
8
 71
3
 72
8
 73
4
 74
0
 40
0
 40
0
 40
0
 40
0
 40
1
 40
1
 40
1
 40
1
 10
74.125395
 20
149.213413
 30
0.0
 10
74.294230
 20
149.243953
 30
0.0
 10
74.469092
 20
149.229408
 30
0.0
 10
74.649982
 20
149.169779
 30
0.0
  0
SPLINE
  5
1ff
100
AcDbEntity
  8
Layer_1
 62
7
100
AcDbSpline
 70
8
 71
3
 72
8
 73
4
 74
0
 40
0
 40
0
 40
0
 40
0
 40
1
 40
1
 40
1
 40
1
 10
74.649982
 20
149.169779
 30
0.0
 10
74.948362
 20
149.071424
 30
0.0
 10
75.138449
 20
148.905334
 30
0.0
 10
75.220246
 20
148.671507
 30
0.0
  0
SPLINE
  5
200
100
AcDbEntity
  8
Layer_1
 62
7
100
AcDbSpline
 70
8
 71
3
 72
8
 73
4
 74
0
 40
0
 40
0
 40
0
 40
0
 40
1
 40
1
 40
1
 40
1
 10
75.220246
 20
148.671507
 30
0.0
 10
75.302629
 20
148.439213
 30
0.0
 10
75.274932
 20
148.145806
 30
0.0
 10
75.137154
 20
147.791286
 30
0.0
  0
LWPOLYLINE
  5
201
100
AcDbEntity
  8
Layer_1
 62
7
100
AcDbPolyline
 90
6
 70
0
 10
73.352608
 20
148.268345
 30
0.0
 10
72.788732
 20
146.817413
 30
0.0
 10
72.359708
 20
146.958834
 30
0.0
 10
73.357410
 20
149.526039
 30
0.0
 10
73.786434
 20
149.384619
 30
0.0
 10
73.631435
 20
148.985784
 30
0.0
  0
LWPOLYLINE
  5
202
100
AcDbEntity
  8
Layer_1
 62
7
100
AcDbPolyline
 90
1
 70
1
 10
75.137154
 20
147.791286
 30
0.0
  0
LWPOLYLINE
  5
203
100
AcDbEntity
  8
Layer_1
 62
7
100
AcDbPolyline
 90
4
 70
1
 10
76.731286
 20
148.218144
 30
0.0
 10
77.126132
 20
148.011590
 30
0.0
 10
75.724313
 20
145.615175
 30
0.0
 10
75.329459
 20
145.821734
 30
0.0
  0
LWPOLYLINE
  5
204
100
AcDbEntity
  8
Layer_1
 62
7
100
AcDbPolyline
 90
4
 70
1
 10
77.276992
 20
149.151035
 30
0.0
 10
77.671838
 20
148.944481
 30
0.0
 10
77.380211
 20
148.445941
 30
0.0
 10
76.985364
 20
148.652494
 30
0.0
  0
SPLINE
  5
205
100
AcDbEntity
  8
Layer_1
 62
1
100
AcDbSpline
 70
8
 71
3
 72
8
 73
4
 74
0
 40
0
 40
0
 40
0
 40
0
 40
1
 40
1
 40
1
 40
1
 10
67.854813
 20
121.303783
 30
0.0
 10
67.256620
 20
122.194415
 30
0.0
 10
66.776170
 20
123.018039
 30
0.0
 10
66.787144
 20
123.133946
 30
0.0
  0
SPLINE
  5
206
100
AcDbEntity
  8
Layer_1
 62
1
100
AcDbSpline
 70
8
 71
3
 72
8
 73
4
 74
0
 40
0
 40
0
 40
0
 40
0
 40
1
 40
1
 40
1
 40
1
 10
66.787144
 20
123.133946
 30
0.0
 10
66.798124
 20
123.249853
 30
0.0
 10
67.030308
 20
124.743212
 30
0.0
 10
67.303130
 20
126.452538
 30
0.0
  0
SPLINE
  5
207
100
AcDbEntity
  8
Layer_1
 62
1
100
AcDbSpline
 70
8
 71
3
 72
8
 73
4
 74
0
 40
0
 40
0
 40
0
 40
0
 40
1
 40
1
 40
1
 40
1
 10
67.303130
 20
126.452538
 30
0.0
 10
67.575946
 20
128.161814
 30
0.0
 10
67.765374
 20
129.588819
 30
0.0
 10
67.724074
 20
129.623631
 30
0.0
  0
SPLINE
  5
208
100
AcDbEntity
  8
Layer_1
 62
1
100
AcDbSpline
 70
8
 71
3
 72
8
 73
4
 74
0
 40
0
 40
0
 40
0
 40
0
 40
1
 40
1
 40
1
 40
1
 10
67.724074
 20
129.623631
 30
0.0
 10
67.682780
 20
129.658343
 30
0.0
 10
67.413717
 20
128.833964
 30
0.0
 10
67.126162
 20
127.791506
 30
0.0
  0
LWPOLYLINE
  5
209
100
AcDbEntity
  8
Layer_1
 62
7
100
AcDbPolyline
 90
12
 70
1
 10
80.092983
 20
146.019240
 30
0.0
 10
78.459645
 20
145.538561
 30
0.0
 10
78.385740
 20
143.809467
 30
0.0
 10
77.966300
 20
144.120220
 30
0.0
 10
78.022819
 20
145.443379
 30
0.0
 10
76.706040
 20
145.053914
 30
0.0
 10
76.286601
 20
145.364667
 30
0.0
 10
78.041908
 20
145.882178
 30
0.0
 10
78.105947
 20
147.491385
 30
0.0
 10
78.525387
 20
147.180633
 30
0.0
 10
78.476802
 20
145.978793
 30
0.0
 10
79.673536
 20
146.329998
 30
0.0
  0
SPLINE
  5
20a
100
AcDbEntity
  8
Layer_1
 62
1
100
AcDbSpline
 70
8
 71
3
 72
8
 73
4
 74
0
 40
0
 40
0
 40
0
 40
0
 40
1
 40
1
 40
1
 40
1
 10
65.276994
 20
125.379493
 30
0.0
 10
64.547514
 20
125.095360
 30
0.0
 10
63.920630
 20
124.888197
 30
0.0
 10
63.883931
 20
124.919135
 30
0.0
  0
SPLINE
  5
20b
100
AcDbEntity
  8
Layer_1
 62
1
100
AcDbSpline
 70
8
 71
3
 72
8
 73
4
 74
0
 40
0
 40
0
 40
0
 40
0
 40
1
 40
1
 40
1
 40
1
 10
63.883931
 20
124.919135
 30
0.0
 10
63.847232
 20
124.950325
 30
0.0
 10
64.005385
 20
125.327275
 30
0.0
 10
64.235385
 20
125.757298
 30
0.0
  0
SPLINE
  5
20c
100
AcDbEntity
  8
Layer_1
 62
1
100
AcDbSpline
 70
8
 71
3
 72
8
 73
4
 74
0
 40
0
 40
0
 40
0
 40
0
 40
1
 40
1
 40
1
 40
1
 10
64.235385
 20
125.757298
 30
0.0
 10
66.686325
 20
130.339900
 30
0.0
 10
68.380454
 20
133.724092
 30
0.0
 10
68.286951
 20
133.850715
 30
0.0
  0
SPLINE
  5
20d
100
AcDbEntity
  8
Layer_1
 62
1
100
AcDbSpline
 70
8
 71
3
 72
8
 73
4
 74
0
 40
0
 40
0
 40
0
 40
0
 40
1
 40
1
 40
1
 40
1
 10
68.286951
 20
133.850715
 30
0.0
 10
68.223984
 20
133.935985
 30
0.0
 10
67.861968
 20
134.347294
 30
0.0
 10
67.482473
 20
134.764690
 30
0.0
  0
LWPOLYLINE
  5
20e
100
AcDbEntity
  8
Layer_1
 62
1
100
AcDbPolyline
 90
3
 70
0
 10
67.126162
 20
127.791506
 30
0.0
 10
66.603331
 20
125.896044
 30
0.0
 10
65.276994
 20
125.379493
 30
0.0
  0
SPLINE
  5
20f
100
AcDbEntity
  8
Layer_1
 62
1
100
AcDbSpline
 70
8
 71
3
 72
8
 73
4
 74
0
 40
0
 40
0
 40
0
 40
0
 40
1
 40
1
 40
1
 40
1
 10
60.685751
 20
135.976079
 30
0.0
 10
59.538400
 20
136.473563
 30
0.0
 10
59.561416
 20
136.492831
 30
0.0
 10
61.501753
 20
136.660604
 30
0.0
  0
SPLINE
  5
210
100
AcDbEntity
  8
Layer_1
 62
1
100
AcDbSpline
 70
8
 71
3
 72
8
 73
4
 74
0
 40
0
 40
0
 40
0
 40
0
 40
1
 40
1
 40
1
 40
1
 10
61.501753
 20
136.660604
 30
0.0
 10
62.087909
 20
136.711313
 30
0.0
 10
62.567488
 20
136.798545
 30
0.0
 10
62.567488
 20
136.854537
 30
0.0
  0
SPLINE
  5
211
100
AcDbEntity
  8
Layer_1
 62
1
100
AcDbSpline
 70
8
 71
3
 72
8
 73
4
 74
0
 40
0
 40
0
 40
0
 40
0
 40
1
 40
1
 40
1
 40
1
 10
62.567488
 20
136.854537
 30
0.0
 10
62.567488
 20
136.910529
 30
0.0
 10
61.874761
 20
136.996050
 30
0.0
 10
61.028093
 20
137.044647
 30
0.0
  0
SPLINE
  5
212
100
AcDbEntity
  8
Layer_1
 62
1
100
AcDbSpline
 70
8
 71
3
 72
8
 73
4
 74
0
 40
0
 40
0
 40
0
 40
0
 40
1
 40
1
 40
1
 40
1
 10
61.028093
 20
137.044647
 30
0.0
 10
58.124809
 20
137.211213
 30
0.0
 10
58.381943
 20
137.118044
 30
0.0
 10
56.560930
 20
138.663974
 30
0.0
  0
SPLINE
  5
213
100
AcDbEntity
  8
Layer_1
 62
1
100
AcDbSpline
 70
8
 71
3
 72
8
 73
4
 74
0
 40
0
 40
0
 40
0
 40
0
 40
1
 40
1
 40
1
 40
1
 10
56.560930
 20
138.663974
 30
0.0
 10
55.154392
 20
139.858007
 30
0.0
 10
54.983122
 20
140.049324
 30
0.0
 10
55.320780
 20
140.049324
 30
0.0
  0
SPLINE
  5
214
100
AcDbEntity
  8
Layer_1
 62
1
100
AcDbSpline
 70
8
 71
3
 72
8
 73
4
 74
0
 40
0
 40
0
 40
0
 40
0
 40
1
 40
1
 40
1
 40
1
 10
55.320780
 20
140.049324
 30
0.0
 10
55.719298
 20
140.049324
 30
0.0
 10
59.103331
 20
139.707791
 30
0.0
 10
59.957429
 20
139.581319
 30
0.0
  0
SPLINE
  5
215
100
AcDbEntity
  8
Layer_1
 62
1
100
AcDbSpline
 70
8
 71
3
 72
8
 73
4
 74
0
 40
0
 40
0
 40
0
 40
0
 40
1
 40
1
 40
1
 40
1
 10
59.957429
 20
139.581319
 30
0.0
 10
60.234368
 20
139.540068
 30
0.0
 10
60.363567
 20
139.560191
 30
0.0
 10
60.273198
 20
139.629614
 30
0.0
  0
SPLINE
  5
216
100
AcDbEntity
  8
Layer_1
 62
1
100
AcDbSpline
 70
8
 71
3
 72
8
 73
4
 74
0
 40
0
 40
0
 40
0
 40
0
 40
1
 40
1
 40
1
 40
1
 10
60.273198
 20
139.629614
 30
0.0
 10
60.139588
 20
139.732542
 30
0.0
 10
54.952641
 20
141.099329
 30
0.0
 10
53.881529
 20
141.313887
 30
0.0
  0
SPLINE
  5
217
100
AcDbEntity
  8
Layer_1
 62
1
100
AcDbSpline
 70
8
 71
3
 72
8
 73
4
 74
0
 40
0
 40
0
 40
0
 40
0
 40
1
 40
1
 40
1
 40
1
 10
53.881529
 20
141.313887
 30
0.0
 10
53.549427
 20
141.380393
 30
0.0
 10
53.209920
 20
141.854233
 30
0.0
 10
51.802666
 20
144.215285
 30
0.0
  0
SPLINE
  5
218
100
AcDbEntity
  8
Layer_1
 62
1
100
AcDbSpline
 70
8
 71
3
 72
8
 73
4
 74
0
 40
0
 40
0
 40
0
 40
0
 40
1
 40
1
 40
1
 40
1
 10
51.802666
 20
144.215285
 30
0.0
 10
50.877599
 20
145.767302
 30
0.0
 10
50.136936
 20
147.050831
 30
0.0
 10
50.156741
 20
147.067533
 30
0.0
  0
SPLINE
  5
219
100
AcDbEntity
  8
Layer_1
 62
1
100
AcDbSpline
 70
8
 71
3
 72
8
 73
4
 74
0
 40
0
 40
0
 40
0
 40
0
 40
1
 40
1
 40
1
 40
1
 10
50.156741
 20
147.067533
 30
0.0
 10
50.194336
 20
147.099226
 30
0.0
 10
51.807995
 20
146.267805
 30
0.0
 10
53.567956
 20
145.310012
 30
0.0
  0
SPLINE
  5
21a
100
AcDbEntity
  8
Layer_1
 62
1
100
AcDbSpline
 70
8
 71
3
 72
8
 73
4
 74
0
 40
0
 40
0
 40
0
 40
0
 40
1
 40
1
 40
1
 40
1
 10
53.567956
 20
145.310012
 30
0.0
 10
54.132403
 20
145.002889
 30
0.0
 10
56.441493
 20
143.773993
 30
0.0
 10
58.699269
 20
142.579256
 30
0.0
  0
SPLINE
  5
21b
100
AcDbEntity
  8
Layer_1
 62
1
100
AcDbSpline
 70
8
 71
3
 72
8
 73
4
 74
0
 40
0
 40
0
 40
0
 40
0
 40
1
 40
1
 40
1
 40
1
 10
58.699269
 20
142.579256
 30
0.0
 10
60.957046
 20
141.384518
 30
0.0
 10
63.532465
 20
140.020549
 30
0.0
 10
64.422420
 20
139.548268
 30
0.0
  0
SPLINE
  5
21c
100
AcDbEntity
  8
Layer_1
 62
1
100
AcDbSpline
 70
8
 71
3
 72
8
 73
4
 74
0
 40
0
 40
0
 40
0
 40
0
 40
1
 40
1
 40
1
 40
1
 10
64.422420
 20
139.548268
 30
0.0
 10
65.312375
 20
139.075987
 30
0.0
 10
66.129439
 20
138.719764
 30
0.0
 10
66.238116
 20
138.756639
 30
0.0
  0
SPLINE
  5
21d
100
AcDbEntity
  8
Layer_1
 62
1
100
AcDbSpline
 70
8
 71
3
 72
8
 73
4
 74
0
 40
0
 40
0
 40
0
 40
0
 40
1
 40
1
 40
1
 40
1
 10
66.238116
 20
138.756639
 30
0.0
 10
66.346788
 20
138.793363
 30
0.0
 10
66.723430
 20
139.001281
 30
0.0
 10
67.075087
 20
139.218355
 30
0.0
  0
SPLINE
  5
21e
100
AcDbEntity
  8
Layer_1
 62
1
100
AcDbSpline
 70
8
 71
3
 72
8
 73
4
 74
0
 40
0
 40
0
 40
0
 40
0
 40
1
 40
1
 40
1
 40
1
 10
67.075087
 20
139.218355
 30
0.0
 10
67.597965
 20
139.541074
 30
0.0
 10
67.768322
 20
139.762877
 30
0.0
 10
68.009988
 20
140.435781
 30
0.0
  0
SPLINE
  5
21f
100
AcDbEntity
  8
Layer_1
 62
1
100
AcDbSpline
 70
8
 71
3
 72
8
 73
4
 74
0
 40
0
 40
0
 40
0
 40
0
 40
1
 40
1
 40
1
 40
1
 10
68.009988
 20
140.435781
 30
0.0
 10
68.280781
 20
141.189780
 30
0.0
 10
68.284385
 20
141.276409
 30
0.0
 10
68.053072
 20
141.471398
 30
0.0
  0
SPLINE
  5
220
100
AcDbEntity
  8
Layer_1
 62
1
100
AcDbSpline
 70
8
 71
3
 72
8
 73
4
 74
0
 40
0
 40
0
 40
0
 40
0
 40
1
 40
1
 40
1
 40
1
 10
68.053072
 20
141.471398
 30
0.0
 10
67.821783
 20
141.666388
 30
0.0
 10
67.753463
 20
141.660703
 30
0.0
 10
67.236588
 20
141.403635
 30
0.0
  0
SPLINE
  5
221
100
AcDbEntity
  8
Layer_1
 62
1
100
AcDbSpline
 70
8
 71
3
 72
8
 73
4
 74
0
 40
0
 40
0
 40
0
 40
0
 40
1
 40
1
 40
1
 40
1
 10
67.236588
 20
141.403635
 30
0.0
 10
66.926350
 20
141.249293
 30
0.0
 10
66.672517
 20
141.153358
 30
0.0
 10
66.672517
 20
141.190434
 30
0.0
  0
SPLINE
  5
222
100
AcDbEntity
  8
Layer_1
 62
1
100
AcDbSpline
 70
8
 71
3
 72
8
 73
4
 74
0
 40
0
 40
0
 40
0
 40
0
 40
1
 40
1
 40
1
 40
1
 10
66.672517
 20
141.190434
 30
0.0
 10
66.672517
 20
141.345380
 30
0.0
 10
67.297729
 20
142.275000
 30
0.0
 10
67.494587
 20
142.412690
 30
0.0
  0
SPLINE
  5
223
100
AcDbEntity
  8
Layer_1
 62
1
100
AcDbSpline
 70
8
 71
3
 72
8
 73
4
 74
0
 40
0
 40
0
 40
0
 40
0
 40
1
 40
1
 40
1
 40
1
 10
67.494587
 20
142.412690
 30
0.0
 10
67.693067
 20
142.551587
 30
0.0
 10
70.787862
 20
142.842914
 30
0.0
 10
72.040657
 20
142.840700
 30
0.0
  0
SPLINE
  5
224
100
AcDbEntity
  8
Layer_1
 62
1
100
AcDbSpline
 70
8
 71
3
 72
8
 73
4
 74
0
 40
0
 40
0
 40
0
 40
0
 40
1
 40
1
 40
1
 40
1
 10
72.040657
 20
142.840700
 30
0.0
 10
72.579629
 20
142.840700
 30
0.0
 10
72.562109
 20
142.823093
 30
0.0
 10
71.330170
 20
142.162363
 30
0.0
  0
SPLINE
  5
225
100
AcDbEntity
  8
Layer_1
 62
1
100
AcDbSpline
 70
8
 71
3
 72
8
 73
4
 74
0
 40
0
 40
0
 40
0
 40
0
 40
1
 40
1
 40
1
 40
1
 10
71.330170
 20
142.162363
 30
0.0
 10
70.635468
 20
141.789841
 30
0.0
 10
70.012200
 20
141.442170
 30
0.0
 10
69.945133
 20
141.389750
 30
0.0
  0
SPLINE
  5
226
100
AcDbEntity
  8
Layer_1
 62
1
100
AcDbSpline
 70
8
 71
3
 72
8
 73
4
 74
0
 40
0
 40
0
 40
0
 40
0
 40
1
 40
1
 40
1
 40
1
 10
69.945133
 20
141.389750
 30
0.0
 10
69.878066
 20
141.337330
 30
0.0
 10
69.969181
 20
140.896039
 30
0.0
 10
70.147570
 20
140.409119
 30
0.0
  0
SPLINE
  5
227
100
AcDbEntity
  8
Layer_1
 62
1
100
AcDbSpline
 70
8
 71
3
 72
8
 73
4
 74
0
 40
0
 40
0
 40
0
 40
0
 40
1
 40
1
 40
1
 40
1
 10
70.147570
 20
140.409119
 30
0.0
 10
70.430924
 20
139.635701
 30
0.0
 10
70.562278
 20
139.471349
 30
0.0
 10
71.186047
 20
139.109542
 30
0.0
  0
SPLINE
  5
228
100
AcDbEntity
  8
Layer_1
 62
1
100
AcDbSpline
 70
8
 71
3
 72
8
 73
4
 74
0
 40
0
 40
0
 40
0
 40
0
 40
1
 40
1
 40
1
 40
1
 10
71.186047
 20
139.109542
 30
0.0
 10
71.578795
 20
138.881752
 30
0.0
 10
72.006142
 20
138.729624
 30
0.0
 10
72.135693
 20
138.771530
 30
0.0
  0
SPLINE
  5
229
100
AcDbEntity
  8
Layer_1
 62
1
100
AcDbSpline
 70
8
 71
3
 72
8
 73
4
 74
0
 40
0
 40
0
 40
0
 40
0
 40
1
 40
1
 40
1
 40
1
 10
72.135693
 20
138.771530
 30
0.0
 10
72.265251
 20
138.813285
 30
0.0
 10
73.486937
 20
139.437945
 30
0.0
 10
74.850552
 20
140.159295
 30
0.0
  0
SPLINE
  5
22a
100
AcDbEntity
  8
Layer_1
 62
1
100
AcDbSpline
 70
8
 71
3
 72
8
 73
4
 74
0
 40
0
 40
0
 40
0
 40
0
 40
1
 40
1
 40
1
 40
1
 10
74.850552
 20
140.159295
 30
0.0
 10
79.669062
 20
142.708343
 30
0.0
 10
84.141543
 20
145.088461
 30
0.0
 10
85.998306
 20
146.091781
 30
0.0
  0
SPLINE
  5
22b
100
AcDbEntity
  8
Layer_1
 62
1
100
AcDbSpline
 70
8
 71
3
 72
8
 73
4
 74
0
 40
0
 40
0
 40
0
 40
0
 40
1
 40
1
 40
1
 40
1
 10
85.998306
 20
146.091781
 30
0.0
 10
87.031937
 20
146.650388
 30
0.0
 10
87.906503
 20
147.083027
 30
0.0
 10
87.941782
 20
147.053296
 30
0.0
  0
SPLINE
  5
22c
100
AcDbEntity
  8
Layer_1
 62
1
100
AcDbSpline
 70
8
 71
3
 72
8
 73
4
 74
0
 40
0
 40
0
 40
0
 40
0
 40
1
 40
1
 40
1
 40
1
 10
87.941782
 20
147.053296
 30
0.0
 10
88.017197
 20
146.989708
 30
0.0
 10
85.447005
 20
142.631977
 30
0.0
 10
84.915289
 20
141.921896
 30
0.0
  0
SPLINE
  5
22d
100
AcDbEntity
  8
Layer_1
 62
1
100
AcDbSpline
 70
8
 71
3
 72
8
 73
4
 74
0
 40
0
 40
0
 40
0
 40
0
 40
1
 40
1
 40
1
 40
1
 10
84.915289
 20
141.921896
 30
0.0
 10
84.560529
 20
141.448106
 30
0.0
 10
84.465994
 20
141.413696
 30
0.0
 10
81.256262
 20
140.589771
 30
0.0
  0
SPLINE
  5
22e
100
AcDbEntity
  8
Layer_1
 62
1
100
AcDbSpline
 70
8
 71
3
 72
8
 73
4
 74
0
 40
0
 40
0
 40
0
 40
0
 40
1
 40
1
 40
1
 40
1
 10
81.256262
 20
140.589771
 30
0.0
 10
79.444086
 20
140.124583
 30
0.0
 10
77.890352
 20
139.686561
 30
0.0
 10
77.803515
 20
139.616383
 30
0.0
  0
SPLINE
  5
22f
100
AcDbEntity
  8
Layer_1
 62
1
100
AcDbSpline
 70
8
 71
3
 72
8
 73
4
 74
0
 40
0
 40
0
 40
0
 40
0
 40
1
 40
1
 40
1
 40
1
 10
77.803515
 20
139.616383
 30
0.0
 10
77.702016
 20
139.534383
 30
0.0
 10
77.814793
 20
139.515468
 30
0.0
 10
78.119290
 20
139.563460
 30
0.0
  0
SPLINE
  5
230
100
AcDbEntity
  8
Layer_1
 62
1
100
AcDbSpline
 70
8
 71
3
 72
8
 73
4
 74
0
 40
0
 40
0
 40
0
 40
0
 40
1
 40
1
 40
1
 40
1
 10
78.119290
 20
139.563460
 30
0.0
 10
79.065201
 20
139.712520
 30
0.0
 10
82.783699
 20
140.069547
 30
0.0
 10
82.938277
 20
140.026082
 30
0.0
  0
SPLINE
  5
231
100
AcDbEntity
  8
Layer_1
 62
1
100
AcDbSpline
 70
8
 71
3
 72
8
 73
4
 74
0
 40
0
 40
0
 40
0
 40
0
 40
1
 40
1
 40
1
 40
1
 10
82.938277
 20
140.026082
 30
0.0
 10
83.025550
 20
140.001432
 30
0.0
 10
82.367749
 20
139.369829
 30
0.0
 10
81.476499
 20
138.622219
 30
0.0
  0
LWPOLYLINE
  5
232
100
AcDbEntity
  8
Layer_1
 62
1
100
AcDbPolyline
 90
5
 70
0
 10
67.482473
 20
134.764690
 30
0.0
 10
66.792484
 20
135.523669
 30
0.0
 10
64.245798
 20
135.530209
 30
0.0
 10
61.699111
 20
135.536749
 30
0.0
 10
60.685751
 20
135.976079
 30
0.0
  0
SPLINE
  5
233
100
AcDbEntity
  8
Layer_1
 62
1
100
AcDbSpline
 70
8
 71
3
 72
8
 73
4
 74
0
 40
0
 40
0
 40
0
 40
0
 40
1
 40
1
 40
1
 40
1
 10
77.685104
 20
137.098676
 30
0.0
 10
76.491082
 20
137.008375
 30
0.0
 10
75.514165
 20
136.893575
 30
0.0
 10
75.514165
 20
136.843570
 30
0.0
  0
SPLINE
  5
234
100
AcDbEntity
  8
Layer_1
 62
1
100
AcDbSpline
 70
8
 71
3
 72
8
 73
4
 74
0
 40
0
 40
0
 40
0
 40
0
 40
1
 40
1
 40
1
 40
1
 10
75.514165
 20
136.843570
 30
0.0
 10
75.514165
 20
136.793766
 30
0.0
 10
75.993744
 20
136.711213
 30
0.0
 10
76.579894
 20
136.660503
 30
0.0
  0
SPLINE
  5
235
100
AcDbEntity
  8
Layer_1
 62
1
100
AcDbSpline
 70
8
 71
3
 72
8
 73
4
 74
0
 40
0
 40
0
 40
0
 40
0
 40
1
 40
1
 40
1
 40
1
 10
76.579894
 20
136.660503
 30
0.0
 10
78.498909
 20
136.494591
 30
0.0
 10
78.517557
 20
136.478795
 30
0.0
 10
77.392154
 20
135.971903
 30
0.0
  0
LWPOLYLINE
  5
236
100
AcDbEntity
  8
Layer_1
 62
1
100
AcDbPolyline
 90
3
 70
0
 10
81.476499
 20
138.622219
 30
0.0
 10
79.856043
 20
137.262928
 30
0.0
 10
77.685104
 20
137.098676
 30
0.0
  0
SPLINE
  5
237
100
AcDbEntity
  8
Layer_1
 62
1
100
AcDbSpline
 70
8
 71
3
 72
8
 73
4
 74
0
 40
0
 40
0
 40
0
 40
0
 40
1
 40
1
 40
1
 40
1
 10
69.981564
 20
133.219012
 30
0.0
 10
70.140600
 20
132.912643
 30
0.0
 10
70.737856
 20
131.751712
 30
0.0
 10
71.308807
 20
130.639175
 30
0.0
  0
SPLINE
  5
238
100
AcDbEntity
  8
Layer_1
 62
1
100
AcDbSpline
 70
8
 71
3
 72
8
 73
4
 74
0
 40
0
 40
0
 40
0
 40
0
 40
1
 40
1
 40
1
 40
1
 10
71.308807
 20
130.639175
 30
0.0
 10
71.879759
 20
129.526589
 30
0.0
 10
72.781105
 20
127.799454
 30
0.0
 10
73.311795
 20
126.801064
 30
0.0
  0
SPLINE
  5
239
100
AcDbEntity
  8
Layer_1
 62
1
100
AcDbSpline
 70
8
 71
3
 72
8
 73
4
 74
0
 40
0
 40
0
 40
0
 40
0
 40
1
 40
1
 40
1
 40
1
 10
73.311795
 20
126.801064
 30
0.0
 10
73.842491
 20
125.802674
 30
0.0
 10
74.245109
 20
124.959129
 30
0.0
 10
74.206500
 20
124.926631
 30
0.0
  0
SPLINE
  5
23a
100
AcDbEntity
  8
Layer_1
 62
1
100
AcDbSpline
 70
8
 71
3
 72
8
 73
4
 74
0
 40
0
 40
0
 40
0
 40
0
 40
1
 40
1
 40
1
 40
1
 10
74.206500
 20
124.926631
 30
0.0
 10
74.167891
 20
124.893931
 30
0.0
 10
73.542881
 20
125.109345
 30
0.0
 10
72.817578
 20
125.405049
 30
0.0
  0
LWPOLYLINE
  5
23b
100
AcDbEntity
  8
Layer_1
 62
1
100
AcDbPolyline
 90
7
 70
0
 10
77.392154
 20
135.971903
 30
0.0
 10
76.397197
 20
135.523719
 30
0.0
 10
73.829506
 20
135.523719
 30
0.0
 10
71.261814
 20
135.523719
 30
0.0
 10
70.477112
 20
134.649889
 30
0.0
 10
69.692415
 20
133.776009
 30
0.0
 10
69.981564
 20
133.219012
 30
0.0
  0
SPLINE
  5
23c
100
AcDbEntity
  8
Layer_1
 62
1
100
AcDbSpline
 70
8
 71
3
 72
8
 73
4
 74
0
 40
0
 40
0
 40
0
 40
0
 40
1
 40
1
 40
1
 40
1
 10
70.998158
 20
127.745525
 30
0.0
 10
70.722782
 20
128.737073
 30
0.0
 10
70.453922
 20
129.585046
 30
0.0
 10
70.400688
 20
129.629970
 30
0.0
  0
SPLINE
  5
23d
100
AcDbEntity
  8
Layer_1
 62
1
100
AcDbSpline
 70
8
 71
3
 72
8
 73
4
 74
0
 40
0
 40
0
 40
0
 40
0
 40
1
 40
1
 40
1
 40
1
 10
70.400688
 20
129.629970
 30
0.0
 10
70.269990
 20
129.740142
 30
0.0
 10
70.252232
 20
129.879844
 30
0.0
 10
70.832212
 20
126.234760
 30
0.0
  0
LWPOLYLINE
  5
23e
100
AcDbEntity
  8
Layer_1
 62
1
100
AcDbPolyline
 90
3
 70
0
 10
72.817578
 20
125.405049
 30
0.0
 10
71.498844
 20
125.942678
 30
0.0
 10
70.998158
 20
127.745525
 30
0.0
  0
SPLINE
  5
23f
100
AcDbEntity
  8
Layer_1
 62
1
100
AcDbSpline
 70
8
 71
3
 72
8
 73
4
 74
0
 40
0
 40
0
 40
0
 40
0
 40
1
 40
1
 40
1
 40
1
 10
70.245184
 20
121.343223
 30
0.0
 10
69.639419
 20
120.430858
 30
0.0
 10
69.098483
 20
119.684405
 30
0.0
 10
69.043106
 20
119.684405
 30
0.0
  0
SPLINE
  5
240
100
AcDbEntity
  8
Layer_1
 62
1
100
AcDbSpline
 70
8
 71
3
 72
8
 73
4
 74
0
 40
0
 40
0
 40
0
 40
0
 40
1
 40
1
 40
1
 40
1
 10
69.043106
 20
119.684405
 30
0.0
 10
68.987729
 20
119.684405
 30
0.0
 10
68.452987
 20
120.413150
 30
0.0
 10
67.854789
 20
121.303833
 30
0.0
  0
LWPOLYLINE
  5
241
100
AcDbEntity
  8
Layer_1
 62
1
100
AcDbPolyline
 90
3
 70
0
 10
70.832212
 20
126.234760
 30
0.0
 10
71.346581
 20
123.002042
 30
0.0
 10
70.245184
 20
121.343223
 30
0.0
  0
SPLINE
  5
242
100
AcDbEntity
  8
Layer_1
 62
1
100
AcDbSpline
 70
8
 71
3
 72
8
 73
4
 74
0
 40
0
 40
0
 40
0
 40
0
 40
1
 40
1
 40
1
 40
1
 10
67.935631
 20
121.247643
 30
0.0
 10
67.371186
 20
122.100698
 30
0.0
 10
66.886558
 20
122.875876
 30
0.0
 10
66.858684
 20
122.970246
 30
0.0
  0
SPLINE
  5
243
100
AcDbEntity
  8
Layer_1
 62
1
100
AcDbSpline
 70
8
 71
3
 72
8
 73
4
 74
0
 40
0
 40
0
 40
0
 40
0
 40
1
 40
1
 40
1
 40
1
 10
66.858684
 20
122.970246
 30
0.0
 10
66.992716
 20
122.960692
 30
0.0
 10
69.018246
 20
125.167749
 30
0.0
 10
69.018246
 20
125.167749
 30
0.0
  0
SPLINE
  5
244
100
AcDbEntity
  8
Layer_1
 62
1
100
AcDbSpline
 70
8
 71
3
 72
8
 73
4
 74
0
 40
0
 40
0
 40
0
 40
0
 40
1
 40
1
 40
1
 40
1
 10
69.018246
 20
125.167749
 30
0.0
 10
69.037104
 20
123.245326
 30
0.0
 10
69.091359
 20
121.863194
 30
0.0
 10
69.001951
 20
119.806251
 30
0.0
  0
LWPOLYLINE
  5
245
100
AcDbEntity
  8
Layer_1
 62
1
100
AcDbPolyline
 90
1
 70
1
 10
67.854789
 20
121.303833
 30
0.0
  0
SPLINE
  5
246
100
AcDbEntity
  8
Layer_1
 62
1
100
AcDbSpline
 70
8
 71
3
 72
8
 73
4
 74
0
 40
0
 40
0
 40
0
 40
0
 40
1
 40
1
 40
1
 40
1
 10
63.830586
 20
124.925022
 30
0.0
 10
63.830586
 20
125.111555
 30
0.0
 10
64.504773
 20
126.206437
 30
0.0
 10
64.619626
 20
126.206437
 30
0.0
  0
SPLINE
  5
247
100
AcDbEntity
  8
Layer_1
 62
1
100
AcDbSpline
 70
8
 71
3
 72
8
 73
4
 74
0
 40
0
 40
0
 40
0
 40
0
 40
1
 40
1
 40
1
 40
1
 10
64.619626
 20
126.206437
 30
0.0
 10
64.698128
 20
126.206437
 30
0.0
 10
65.136394
 20
126.138823
 30
0.0
 10
65.593544
 20
126.056173
 30
0.0
  0
LWPOLYLINE
  5
248
100
AcDbEntity
  8
Layer_1
 62
1
100
AcDbPolyline
 90
2
 70
0
 10
69.001951
 20
119.806251
 30
0.0
 10
67.935631
 20
121.247643
 30
0.0
  0
SPLINE
  5
249
100
AcDbEntity
  8
Layer_1
 62
1
100
AcDbSpline
 70
8
 71
3
 72
8
 73
4
 74
0
 40
0
 40
0
 40
0
 40
0
 40
1
 40
1
 40
1
 40
1
 10
65.246069
 20
125.397198
 30
0.0
 10
64.120492
 20
124.911486
 30
0.0
 10
63.830586
 20
124.814750
 30
0.0
 10
63.830586
 20
124.925022
 30
0.0
  0
LWPOLYLINE
  5
24a
100
AcDbEntity
  8
Layer_1
 62
1
100
AcDbPolyline
 90
3
 70
0
 10
65.593544
 20
126.056173
 30
0.0
 10
66.424736
 20
125.905850
 30
0.0
 10
65.246069
 20
125.397198
 30
0.0
  0
SPLINE
  5
24b
100
AcDbEntity
  8
Layer_1
 62
1
100
AcDbSpline
 70
8
 71
3
 72
8
 73
4
 74
0
 40
0
 40
0
 40
0
 40
0
 40
1
 40
1
 40
1
 40
1
 10
67.368183
 20
134.719769
 30
0.0
 10
67.779335
 20
134.278572
 30
0.0
 10
68.136560
 20
133.934978
 30
0.0
 10
68.162039
 20
133.956611
 30
0.0
  0
SPLINE
  5
24c
100
AcDbEntity
  8
Layer_1
 62
1
100
AcDbSpline
 70
8
 71
3
 72
8
 73
4
 74
0
 40
0
 40
0
 40
0
 40
0
 40
1
 40
1
 40
1
 40
1
 10
68.162039
 20
133.956611
 30
0.0
 10
68.204461
 20
133.992329
 30
0.0
 10
68.855927
 20
136.379039
 30
0.0
 10
68.855927
 20
136.498666
 30
0.0
  0
SPLINE
  5
24d
100
AcDbEntity
  8
Layer_1
 62
1
100
AcDbSpline
 70
8
 71
3
 72
8
 73
4
 74
0
 40
0
 40
0
 40
0
 40
0
 40
1
 40
1
 40
1
 40
1
 10
68.855927
 20
136.498666
 30
0.0
 10
68.855927
 20
136.527337
 30
0.0
 10
68.241106
 20
136.971200
 30
0.0
 10
67.567105
 20
137.581569
 30
0.0
  0
SPLINE
  5
24e
100
AcDbEntity
  8
Layer_1
 62
1
100
AcDbSpline
 70
8
 71
3
 72
8
 73
4
 74
0
 40
0
 40
0
 40
0
 40
0
 40
1
 40
1
 40
1
 40
1
 10
67.567105
 20
137.581569
 30
0.0
 10
66.873081
 20
138.210057
 30
0.0
 10
66.269292
 20
138.789089
 30
0.0
 10
66.176502
 20
138.745324
 30
0.0
  0
SPLINE
  5
24f
100
AcDbEntity
  8
Layer_1
 62
1
100
AcDbSpline
 70
8
 71
3
 72
8
 73
4
 74
0
 40
0
 40
0
 40
0
 40
0
 40
1
 40
1
 40
1
 40
1
 10
66.176502
 20
138.745324
 30
0.0
 10
66.083704
 20
138.701550
 30
0.0
 10
66.150425
 20
137.719763
 30
0.0
 10
66.317297
 20
136.939854
 30
0.0
  0
SPLINE
  5
250
100
AcDbEntity
  8
Layer_1
 62
1
100
AcDbSpline
 70
8
 71
3
 72
8
 73
4
 74
0
 40
0
 40
0
 40
0
 40
0
 40
1
 40
1
 40
1
 40
1
 10
66.317297
 20
136.939854
 30
0.0
 10
66.600321
 20
135.616789
 30
0.0
 10
66.670693
 20
135.468083
 30
0.0
 10
67.368183
 20
134.719669
 30
0.0
  0
LWPOLYLINE
  5
251
100
AcDbEntity
  8
Layer_1
 62
1
100
AcDbPolyline
 90
1
 70
1
 10
63.830586
 20
124.925022
 30
0.0
  0
SPLINE
  5
252
100
AcDbEntity
  8
Layer_1
 62
1
100
AcDbSpline
 70
8
 71
3
 72
8
 73
4
 74
0
 40
0
 40
0
 40
0
 40
0
 40
1
 40
1
 40
1
 40
1
 10
60.594778
 20
136.028947
 30
0.0
 10
60.398252
 20
136.129915
 30
0.0
 10
60.229170
 20
136.234056
 30
0.0
 10
60.042562
 20
136.394183
 30
0.0
  0
SPLINE
  5
253
100
AcDbEntity
  8
Layer_1
 62
1
100
AcDbSpline
 70
8
 71
3
 72
8
 73
4
 74
0
 40
0
 40
0
 40
0
 40
0
 40
1
 40
1
 40
1
 40
1
 10
60.042562
 20
136.394183
 30
0.0
 10
60.270791
 20
136.551944
 30
0.0
 10
60.746689
 20
136.583381
 30
0.0
 10
61.107912
 20
136.622624
 30
0.0
  0
SPLINE
  5
254
100
AcDbEntity
  8
Layer_1
 62
1
100
AcDbSpline
 70
8
 71
3
 72
8
 73
4
 74
0
 40
0
 40
0
 40
0
 40
0
 40
1
 40
1
 40
1
 40
1
 10
61.107912
 20
136.622624
 30
0.0
 10
61.585868
 20
136.674436
 30
0.0
 10
62.234585
 20
136.705224
 30
0.0
 10
62.551901
 20
136.783451
 30
0.0
  0
SPLINE
  5
255
100
AcDbEntity
  8
Layer_1
 62
1
100
AcDbSpline
 70
8
 71
3
 72
8
 73
4
 74
0
 40
0
 40
0
 40
0
 40
0
 40
1
 40
1
 40
1
 40
1
 10
62.551901
 20
136.783451
 30
0.0
 10
62.475153
 20
136.620608
 30
0.0
 10
61.751037
 20
135.729677
 30
0.0
 10
61.751037
 20
135.586801
 30
0.0
  0
SPLINE
  5
256
100
AcDbEntity
  8
Layer_1
 62
1
100
AcDbSpline
 70
8
 71
3
 72
8
 73
4
 74
0
 40
0
 40
0
 40
0
 40
0
 40
1
 40
1
 40
1
 40
1
 10
61.751037
 20
135.586801
 30
0.0
 10
61.751037
 20
135.548575
 30
0.0
 10
60.961424
 20
135.840549
 30
0.0
 10
60.594778
 20
136.028947
 30
0.0
  0
LWPOLYLINE
  5
257
100
AcDbEntity
  8
Layer_1
 62
1
100
AcDbPolyline
 90
1
 70
1
 10
67.368183
 20
134.719669
 30
0.0
  0
LWPOLYLINE
  5
258
100
AcDbEntity
  8
Layer_1
 62
1
100
AcDbPolyline
 90
1
 70
1
 10
60.594778
 20
136.028947
 30
0.0
  0
SPLINE
  5
259
100
AcDbEntity
  8
Layer_1
 62
1
100
AcDbSpline
 70
8
 71
3
 72
8
 73
4
 74
0
 40
0
 40
0
 40
0
 40
0
 40
1
 40
1
 40
1
 40
1
 10
57.622799
 20
139.314643
 30
0.0
 10
58.664930
 20
139.410380
 30
0.0
 10
60.241331
 20
139.447706
 30
0.0
 10
60.279461
 20
139.479902
 30
0.0
  0
SPLINE
  5
25a
100
AcDbEntity
  8
Layer_1
 62
1
100
AcDbSpline
 70
8
 71
3
 72
8
 73
4
 74
0
 40
0
 40
0
 40
0
 40
0
 40
1
 40
1
 40
1
 40
1
 10
60.279461
 20
139.479902
 30
0.0
 10
60.317599
 20
139.512097
 30
0.0
 10
58.530882
 20
139.696572
 30
0.0
 10
57.310475
 20
139.826817
 30
0.0
  0
SPLINE
  5
25b
100
AcDbEntity
  8
Layer_1
 62
1
100
AcDbSpline
 70
8
 71
3
 72
8
 73
4
 74
0
 40
0
 40
0
 40
0
 40
0
 40
1
 40
1
 40
1
 40
1
 10
57.310475
 20
139.826817
 30
0.0
 10
56.090060
 20
139.957263
 30
0.0
 10
55.229560
 20
140.030207
 30
0.0
 10
55.172277
 20
139.981913
 30
0.0
  0
SPLINE
  5
25c
100
AcDbEntity
  8
Layer_1
 62
1
100
AcDbSpline
 70
8
 71
3
 72
8
 73
4
 74
0
 40
0
 40
0
 40
0
 40
0
 40
1
 40
1
 40
1
 40
1
 10
55.172277
 20
139.981913
 30
0.0
 10
55.114986
 20
139.933618
 30
0.0
 10
55.286708
 20
139.729426
 30
0.0
 10
55.553910
 20
139.528149
 30
0.0
  0
LWPOLYLINE
  5
25d
100
AcDbEntity
  8
Layer_1
 62
1
100
AcDbPolyline
 90
2
 70
0
 10
55.898400
 20
139.207795
 30
0.0
 10
57.622799
 20
139.314643
 30
0.0
  0
SPLINE
  5
25e
100
AcDbEntity
  8
Layer_1
 62
1
100
AcDbSpline
 70
8
 71
3
 72
8
 73
4
 74
0
 40
0
 40
0
 40
0
 40
0
 40
1
 40
1
 40
1
 40
1
 10
51.702589
 20
144.539412
 30
0.0
 10
51.266760
 20
145.339744
 30
0.0
 10
50.288288
 20
146.980703
 30
0.0
 10
50.351390
 20
146.927529
 30
0.0
  0
SPLINE
  5
25f
100
AcDbEntity
  8
Layer_1
 62
1
100
AcDbSpline
 70
8
 71
3
 72
8
 73
4
 74
0
 40
0
 40
0
 40
0
 40
0
 40
1
 40
1
 40
1
 40
1
 10
50.351390
 20
146.927529
 30
0.0
 10
50.378539
 20
146.904388
 30
0.0
 10
55.058867
 20
144.472403
 30
0.0
 10
55.766494
 20
144.135197
 30
0.0
  0
SPLINE
  5
260
100
AcDbEntity
  8
Layer_1
 62
1
100
AcDbSpline
 70
8
 71
3
 72
8
 73
4
 74
0
 40
0
 40
0
 40
0
 40
0
 40
1
 40
1
 40
1
 40
1
 10
55.766494
 20
144.135197
 30
0.0
 10
54.200290
 20
144.349856
 30
0.0
 10
53.093529
 20
144.420436
 30
0.0
 10
51.702589
 20
144.539412
 30
0.0
  0
LWPOLYLINE
  5
261
100
AcDbEntity
  8
Layer_1
 62
1
100
AcDbPolyline
 90
2
 70
0
 10
55.553910
 20
139.528149
 30
0.0
 10
55.898400
 20
139.207795
 30
0.0
  0
SPLINE
  5
262
100
AcDbEntity
  8
Layer_1
 62
1
100
AcDbSpline
 70
8
 71
3
 72
8
 73
4
 74
0
 40
0
 40
0
 40
0
 40
0
 40
1
 40
1
 40
1
 40
1
 10
84.606807
 20
141.642418
 30
0.0
 10
85.418821
 20
145.258498
 30
0.0
 10
85.525990
 20
145.806992
 30
0.0
 10
85.525990
 20
145.806992
 30
0.0
  0
LWPOLYLINE
  5
263
100
AcDbEntity
  8
Layer_1
 62
1
100
AcDbPolyline
 90
1
 70
1
 10
51.702589
 20
144.539412
 30
0.0
  0
SPLINE
  5
264
100
AcDbEntity
  8
Layer_1
 62
1
100
AcDbSpline
 70
8
 71
3
 72
8
 73
4
 74
0
 40
0
 40
0
 40
0
 40
0
 40
1
 40
1
 40
1
 40
1
 10
87.824212
 20
146.975211
 30
0.0
 10
87.824212
 20
146.975211
 30
0.0
 10
86.130716
 20
143.914624
 30
0.0
 10
84.606807
 20
141.642418
 30
0.0
  0
LWPOLYLINE
  5
265
100
AcDbEntity
  8
Layer_1
 62
1
100
AcDbPolyline
 90
2
 70
0
 10
85.525990
 20
145.806992
 30
0.0
 10
87.824212
 20
146.975211
 30
0.0
  0
SPLINE
  5
266
100
AcDbEntity
  8
Layer_1
 62
1
100
AcDbSpline
 70
8
 71
3
 72
8
 73
4
 74
0
 40
0
 40
0
 40
0
 40
0
 40
1
 40
1
 40
1
 40
1
 10
82.781539
 20
139.986855
 30
0.0
 10
82.781539
 20
139.986855
 30
0.0
 10
81.330888
 20
139.956184
 30
0.0
 10
80.471526
 20
139.888545
 30
0.0
  0
SPLINE
  5
267
100
AcDbEntity
  8
Layer_1
 62
1
100
AcDbSpline
 70
8
 71
3
 72
8
 73
4
 74
0
 40
0
 40
0
 40
0
 40
0
 40
1
 40
1
 40
1
 40
1
 10
80.471526
 20
139.888545
 30
0.0
 10
79.612165
 20
139.820905
 30
0.0
 10
77.815781
 20
139.422641
 30
0.0
 10
77.815781
 20
139.422641
 30
0.0
  0
LWPOLYLINE
  5
268
100
AcDbEntity
  8
Layer_1
 62
1
100
AcDbPolyline
 90
1
 70
1
 10
84.606807
 20
141.642418
 30
0.0
  0
LWPOLYLINE
  5
269
100
AcDbEntity
  8
Layer_1
 62
1
100
AcDbPolyline
 90
3
 70
0
 10
77.815781
 20
139.422641
 30
0.0
 10
82.187179
 20
139.147144
 30
0.0
 10
82.781539
 20
139.986855
 30
0.0
  0
LWPOLYLINE
  5
26a
100
AcDbEntity
  8
Layer_1
 62
1
100
AcDbPolyline
 90
3
 70
1
 10
76.446196
 20
135.493880
 30
0.0
 10
75.483528
 20
136.753171
 30
0.0
 10
78.102786
 20
136.393375
 30
0.0
  0
ENDSEC
  0
SECTION
  2
OBJECTS
  0
DICTIONARY
  5
C
330
0
100
AcDbDictionary
  3
ACAD_GROUP
350
D
  3
ACAD_MLINESTYLE
350
17
  0
DICTIONARY
  5
D
330
C
100
AcDbDictionary
  0
DICTIONARY
  5
1A
330
C
100
AcDbDictionary
  0
DICTIONARY
  5
17
330
C
100
AcDbDictionary
  3
STANDARD
350
18
  0
DICTIONARY
  5
19
330
C
100
AcDbDictionary
  0
ENDSEC
  0
EOF
