G04 EAGLE Gerber RS-274X export*
G75*
%MOMM*%
%FSLAX34Y34*%
%LPD*%
%IN*%
%IPPOS*%
%AMOC8*
5,1,8,0,0,1.08239X$1,22.5*%
G01*
%ADD10C,0.254000*%


D10*
X-25161Y-59933D02*
X-18896Y-62713D01*
X-5750Y-69582D01*
X6748Y-77570D01*
X18502Y-86617D01*
X29422Y-96654D01*
X39426Y-107605D01*
X48438Y-119386D01*
X62382Y-141273D01*
X74849Y-165131D01*
X85190Y-189985D01*
X93325Y-215646D01*
X99193Y-241918D01*
X102748Y-268602D01*
X103965Y-295494D01*
X102833Y-322389D01*
X102108Y-329205D01*
X99603Y-343825D01*
X95833Y-358170D01*
X90827Y-372133D01*
X84624Y-385606D01*
X77269Y-398487D01*
X68820Y-410678D01*
X65925Y-414812D01*
X63067Y-419709D01*
X60646Y-424837D01*
X58681Y-430156D01*
X57187Y-435626D01*
X56175Y-441206D01*
X55654Y-446853D01*
X55627Y-452523D01*
X56094Y-458174D01*
X57052Y-463763D01*
X58493Y-469248D01*
X60407Y-474586D01*
X62779Y-479736D01*
X65590Y-484661D01*
X68820Y-489321D01*
X72444Y-493683D01*
X76435Y-497712D01*
X80761Y-501377D01*
X85391Y-504652D01*
X90288Y-507511D01*
X95416Y-509932D01*
X100735Y-511897D01*
X106205Y-513391D01*
X111785Y-514402D01*
X117431Y-514924D01*
X123102Y-514951D01*
X128753Y-514484D01*
X135569Y-513759D01*
X150388Y-513135D01*
X165206Y-513804D01*
X179909Y-515762D01*
X194385Y-518994D01*
X208524Y-523476D01*
X222219Y-529173D01*
X245238Y-541155D01*
X267964Y-555583D01*
X289346Y-571937D01*
X309222Y-590093D01*
X327440Y-609911D01*
X343861Y-631242D01*
X358360Y-653923D01*
X370828Y-677781D01*
X373608Y-684046D01*
X378748Y-697960D01*
X382656Y-712268D01*
X385302Y-726863D01*
X386666Y-741633D01*
X386738Y-756465D01*
X385516Y-771247D01*
X385249Y-773740D01*
X385000Y-779405D01*
X385245Y-785070D01*
X385984Y-790692D01*
X387210Y-796229D01*
X388913Y-801637D01*
X391082Y-806877D01*
X393698Y-811907D01*
X396744Y-816690D01*
X400194Y-821190D01*
X404024Y-825372D01*
X408204Y-829204D01*
X412701Y-832658D01*
X417483Y-835706D01*
X422512Y-838325D01*
X427750Y-840497D01*
X433158Y-842204D01*
X438693Y-843433D01*
X444315Y-844175D01*
X449980Y-844424D01*
X455645Y-844178D01*
X461267Y-843439D01*
X466804Y-842214D01*
X472212Y-840510D01*
X477452Y-838342D01*
X482482Y-835725D01*
X487266Y-832680D01*
X491766Y-829229D01*
X497058Y-824968D01*
X509178Y-816421D01*
X521997Y-808963D01*
X535417Y-802650D01*
X549336Y-797531D01*
X563648Y-793645D01*
X578245Y-791021D01*
X593015Y-789679D01*
X607845Y-789629D01*
X622624Y-790872D01*
X637238Y-793399D01*
X651576Y-797189D01*
X716587Y-814609D01*
X788276Y-827495D01*
X860815Y-834084D01*
X933653Y-834325D01*
X1006234Y-828218D01*
X1078006Y-815807D01*
X1148424Y-797189D01*
X1154950Y-795298D01*
X1169428Y-792083D01*
X1184131Y-790143D01*
X1198948Y-789491D01*
X1213764Y-790133D01*
X1228469Y-792064D01*
X1242949Y-795270D01*
X1257094Y-799725D01*
X1270798Y-805396D01*
X1283955Y-812240D01*
X1296466Y-820204D01*
X1308235Y-829229D01*
X1310186Y-830802D01*
X1314816Y-834077D01*
X1319713Y-836936D01*
X1324841Y-839357D01*
X1330160Y-841321D01*
X1335630Y-842815D01*
X1341209Y-843826D01*
X1346856Y-844347D01*
X1352526Y-844374D01*
X1358178Y-843907D01*
X1363767Y-842949D01*
X1369251Y-841508D01*
X1374588Y-839594D01*
X1379739Y-837222D01*
X1384663Y-834410D01*
X1389324Y-831180D01*
X1393685Y-827555D01*
X1397714Y-823565D01*
X1401379Y-819239D01*
X1404654Y-814609D01*
X1407512Y-809712D01*
X1409933Y-804584D01*
X1411898Y-799265D01*
X1413392Y-793795D01*
X1414403Y-788215D01*
X1414924Y-782569D01*
X1414951Y-776898D01*
X1414484Y-771247D01*
X1413759Y-764431D01*
X1413135Y-749612D01*
X1413804Y-734794D01*
X1415762Y-720092D01*
X1418994Y-705615D01*
X1423476Y-691476D01*
X1429173Y-677781D01*
X1441155Y-654762D01*
X1455583Y-632036D01*
X1471937Y-610654D01*
X1490093Y-590778D01*
X1509911Y-572560D01*
X1531242Y-556139D01*
X1553923Y-541640D01*
X1577781Y-529173D01*
X1584046Y-526392D01*
X1597960Y-521252D01*
X1612268Y-517344D01*
X1626863Y-514698D01*
X1641633Y-513334D01*
X1656465Y-513262D01*
X1671247Y-514484D01*
X1676275Y-514924D01*
X1681945Y-514951D01*
X1687597Y-514484D01*
X1693186Y-513526D01*
X1698670Y-512085D01*
X1704008Y-510171D01*
X1709159Y-507799D01*
X1714083Y-504987D01*
X1718744Y-501757D01*
X1723105Y-498133D01*
X1727134Y-494143D01*
X1730800Y-489816D01*
X1734075Y-485187D01*
X1736933Y-480290D01*
X1739354Y-475162D01*
X1741319Y-469843D01*
X1742813Y-464373D01*
X1743825Y-458793D01*
X1744346Y-453146D01*
X1744373Y-447476D01*
X1743906Y-441825D01*
X1742948Y-436236D01*
X1741507Y-430751D01*
X1739593Y-425413D01*
X1737221Y-420263D01*
X1734410Y-415338D01*
X1731180Y-410678D01*
X1727144Y-405137D01*
X1719193Y-392616D01*
X1712364Y-379449D01*
X1706709Y-365737D01*
X1702270Y-351584D01*
X1699081Y-337098D01*
X1697167Y-322389D01*
X1696035Y-296463D01*
X1697167Y-269568D01*
X1700639Y-242873D01*
X1706424Y-216583D01*
X1714479Y-190896D01*
X1724741Y-166010D01*
X1737134Y-142113D01*
X1751562Y-119386D01*
X1755597Y-113846D01*
X1765077Y-102438D01*
X1775514Y-91899D01*
X1786831Y-82310D01*
X1798939Y-73744D01*
X1811749Y-66266D01*
X1825161Y-59933D01*
X1827454Y-58918D01*
X1832484Y-56301D01*
X1837268Y-53256D01*
X1841767Y-49805D01*
X1845949Y-45975D01*
X1849781Y-41796D01*
X1853235Y-37298D01*
X1856283Y-32516D01*
X1858903Y-27487D01*
X1861074Y-22249D01*
X1862781Y-16842D01*
X1864010Y-11306D01*
X1864752Y-5684D01*
X1865001Y-19D01*
X1864755Y5646D01*
X1864017Y11268D01*
X1862791Y16805D01*
X1861088Y22213D01*
X1858919Y27453D01*
X1856302Y32483D01*
X1853257Y37266D01*
X1849806Y41766D01*
X1845977Y45948D01*
X1841797Y49780D01*
X1837299Y53233D01*
X1832518Y56282D01*
X1827489Y58901D01*
X1822251Y61073D01*
X1815915Y63526D01*
X1802453Y69749D01*
X1789584Y77121D01*
X1777407Y85587D01*
X1766014Y95082D01*
X1755493Y105533D01*
X1745922Y116862D01*
X1737374Y128982D01*
X1729916Y141801D01*
X1723603Y155221D01*
X1718484Y169140D01*
X1714598Y183453D01*
X1697178Y248464D01*
X1672493Y316992D01*
X1641930Y383107D01*
X1605721Y446307D01*
X1564141Y506110D01*
X1517507Y562062D01*
X1466174Y613736D01*
X1461273Y618442D01*
X1451250Y629373D01*
X1442218Y641136D01*
X1434246Y653642D01*
X1427393Y666794D01*
X1421714Y680494D01*
X1417249Y694637D01*
X1414035Y709115D01*
X1412094Y723818D01*
X1411443Y738635D01*
X1412085Y753452D01*
X1414016Y768156D01*
X1414403Y770633D01*
X1414924Y776279D01*
X1414951Y781950D01*
X1414484Y787601D01*
X1413526Y793190D01*
X1412084Y798674D01*
X1410170Y804012D01*
X1407798Y809162D01*
X1404987Y814087D01*
X1401756Y818747D01*
X1398132Y823108D01*
X1394142Y827137D01*
X1389815Y830802D01*
X1385186Y834077D01*
X1380289Y836936D01*
X1375161Y839357D01*
X1369842Y841321D01*
X1364371Y842815D01*
X1358792Y843826D01*
X1353145Y844347D01*
X1347475Y844374D01*
X1341824Y843907D01*
X1336235Y842949D01*
X1330751Y841508D01*
X1325413Y839594D01*
X1320262Y837222D01*
X1315338Y834410D01*
X1310678Y831180D01*
X1267498Y800945D01*
X1216352Y771088D01*
X1162798Y745801D01*
X1107244Y725279D01*
X1050113Y709676D01*
X991839Y699112D01*
X932867Y693668D01*
X873644Y693383D01*
X814622Y698262D01*
X756249Y708266D01*
X698971Y723319D01*
X643223Y743307D01*
X589428Y768078D01*
X537998Y797444D01*
X489322Y831180D01*
X487297Y832657D01*
X482516Y835706D01*
X477487Y838325D01*
X472249Y840497D01*
X466841Y842204D01*
X461305Y843433D01*
X455684Y844175D01*
X450019Y844424D01*
X444353Y844178D01*
X438731Y843439D01*
X433195Y842214D01*
X427786Y840510D01*
X422547Y838342D01*
X417516Y835725D01*
X412733Y832680D01*
X408233Y829229D01*
X404051Y825399D01*
X400219Y821220D01*
X396766Y816722D01*
X393718Y811940D01*
X391098Y806911D01*
X388926Y801673D01*
X387220Y796266D01*
X385991Y790730D01*
X385249Y785108D01*
X385000Y779443D01*
X385245Y773778D01*
X385984Y768156D01*
X387028Y761442D01*
X388370Y746673D01*
X388419Y731842D01*
X387176Y717064D01*
X384650Y702450D01*
X380859Y688112D01*
X375834Y674158D01*
X369611Y660696D01*
X362239Y647828D01*
X353773Y635651D01*
X344278Y624258D01*
X333826Y613736D01*
X286234Y566144D01*
X239230Y510503D01*
X197255Y450977D01*
X160627Y388019D01*
X129626Y322108D01*
X104487Y253746D01*
X85402Y183453D01*
X83777Y176856D01*
X79322Y162710D01*
X73651Y149006D01*
X66807Y135849D01*
X58842Y123339D01*
X49818Y111570D01*
X39802Y100632D01*
X28871Y90610D01*
X17108Y81578D01*
X4602Y73605D01*
X-8551Y66753D01*
X-22251Y61073D01*
X-24589Y60170D01*
X-29740Y57798D01*
X-34664Y54986D01*
X-39324Y51756D01*
X-43686Y48131D01*
X-47714Y44141D01*
X-51380Y39814D01*
X-54654Y35185D01*
X-57513Y30288D01*
X-59934Y25160D01*
X-61899Y19841D01*
X-63392Y14371D01*
X-64404Y8791D01*
X-64925Y3145D01*
X-64952Y-2526D01*
X-64484Y-8177D01*
X-63526Y-13766D01*
X-62085Y-19250D01*
X-60171Y-24588D01*
X-57799Y-29738D01*
X-54987Y-34663D01*
X-51757Y-39323D01*
X-48133Y-43684D01*
X-44142Y-47713D01*
X-39816Y-51378D01*
X-35186Y-54653D01*
X-30289Y-57512D01*
X-25161Y-59933D01*
X915000Y524898D02*
X915000Y525970D01*
X914924Y527039D01*
X914771Y528099D01*
X914543Y529146D01*
X914241Y530174D01*
X913867Y531178D01*
X913422Y532153D01*
X912908Y533093D01*
X912329Y533994D01*
X911687Y534852D01*
X910985Y535662D01*
X910228Y536420D01*
X909418Y537121D01*
X908560Y537763D01*
X907659Y538343D01*
X906719Y538856D01*
X905744Y539301D01*
X904740Y539676D01*
X903712Y539978D01*
X902665Y540205D01*
X901604Y540358D01*
X900536Y540434D01*
X899464Y540434D01*
X898396Y540358D01*
X897335Y540205D01*
X896288Y539978D01*
X895260Y539676D01*
X894256Y539301D01*
X893281Y538856D01*
X892341Y538343D01*
X891440Y537763D01*
X890582Y537121D01*
X889772Y536420D01*
X889015Y535662D01*
X888313Y534852D01*
X887671Y533994D01*
X887092Y533093D01*
X886578Y532153D01*
X886133Y531178D01*
X885759Y530174D01*
X885457Y529146D01*
X885229Y528099D01*
X885076Y527039D01*
X885000Y525970D01*
X885000Y524898D01*
X885076Y523830D01*
X885229Y522769D01*
X885457Y521722D01*
X885759Y520694D01*
X886133Y519690D01*
X886578Y518716D01*
X887092Y517775D01*
X887671Y516874D01*
X888313Y516016D01*
X889015Y515206D01*
X889772Y514449D01*
X890582Y513747D01*
X891440Y513105D01*
X892341Y512526D01*
X893281Y512012D01*
X894256Y511567D01*
X895260Y511193D01*
X896288Y510891D01*
X897335Y510663D01*
X898396Y510511D01*
X899464Y510434D01*
X900536Y510434D01*
X901604Y510511D01*
X902665Y510663D01*
X903712Y510891D01*
X904740Y511193D01*
X905744Y511567D01*
X906719Y512012D01*
X907659Y512526D01*
X908560Y513105D01*
X909418Y513747D01*
X910228Y514449D01*
X910985Y515206D01*
X911687Y516016D01*
X912329Y516874D01*
X912908Y517775D01*
X913422Y518716D01*
X913867Y519690D01*
X914241Y520694D01*
X914543Y521722D01*
X914771Y522769D01*
X914924Y523830D01*
X915000Y524898D01*
X15000Y-536D02*
X15000Y536D01*
X14924Y1604D01*
X14771Y2665D01*
X14543Y3712D01*
X14241Y4740D01*
X13867Y5744D01*
X13422Y6719D01*
X12908Y7659D01*
X12329Y8560D01*
X11687Y9418D01*
X10985Y10228D01*
X10228Y10985D01*
X9418Y11687D01*
X8560Y12329D01*
X7659Y12908D01*
X6719Y13422D01*
X5744Y13867D01*
X4740Y14241D01*
X3712Y14543D01*
X2665Y14771D01*
X1604Y14924D01*
X536Y15000D01*
X-536Y15000D01*
X-1604Y14924D01*
X-2665Y14771D01*
X-3712Y14543D01*
X-4740Y14241D01*
X-5744Y13867D01*
X-6719Y13422D01*
X-7659Y12908D01*
X-8560Y12329D01*
X-9418Y11687D01*
X-10228Y10985D01*
X-10985Y10228D01*
X-11687Y9418D01*
X-12329Y8560D01*
X-12908Y7659D01*
X-13422Y6719D01*
X-13867Y5744D01*
X-14241Y4740D01*
X-14543Y3712D01*
X-14771Y2665D01*
X-14924Y1604D01*
X-15000Y536D01*
X-15000Y-536D01*
X-14924Y-1604D01*
X-14771Y-2665D01*
X-14543Y-3712D01*
X-14241Y-4740D01*
X-13867Y-5744D01*
X-13422Y-6719D01*
X-12908Y-7659D01*
X-12329Y-8560D01*
X-11687Y-9418D01*
X-10985Y-10228D01*
X-10228Y-10985D01*
X-9418Y-11687D01*
X-8560Y-12329D01*
X-7659Y-12908D01*
X-6719Y-13422D01*
X-5744Y-13867D01*
X-4740Y-14241D01*
X-3712Y-14543D01*
X-2665Y-14771D01*
X-1604Y-14924D01*
X-536Y-15000D01*
X536Y-15000D01*
X1604Y-14924D01*
X2665Y-14771D01*
X3712Y-14543D01*
X4740Y-14241D01*
X5744Y-13867D01*
X6719Y-13422D01*
X7659Y-12908D01*
X8560Y-12329D01*
X9418Y-11687D01*
X10228Y-10985D01*
X10985Y-10228D01*
X11687Y-9418D01*
X12329Y-8560D01*
X12908Y-7659D01*
X13422Y-6719D01*
X13867Y-5744D01*
X14241Y-4740D01*
X14543Y-3712D01*
X14771Y-2665D01*
X14924Y-1604D01*
X15000Y-536D01*
X1165000Y654898D02*
X1165000Y655970D01*
X1164924Y657039D01*
X1164771Y658099D01*
X1164543Y659146D01*
X1164241Y660174D01*
X1163867Y661178D01*
X1163422Y662153D01*
X1162908Y663093D01*
X1162329Y663994D01*
X1161687Y664852D01*
X1160985Y665662D01*
X1160228Y666420D01*
X1159418Y667121D01*
X1158560Y667763D01*
X1157659Y668343D01*
X1156719Y668856D01*
X1155744Y669301D01*
X1154740Y669676D01*
X1153712Y669978D01*
X1152665Y670205D01*
X1151604Y670358D01*
X1150536Y670434D01*
X1149464Y670434D01*
X1148396Y670358D01*
X1147335Y670205D01*
X1146288Y669978D01*
X1145260Y669676D01*
X1144256Y669301D01*
X1143281Y668856D01*
X1142341Y668343D01*
X1141440Y667763D01*
X1140582Y667121D01*
X1139772Y666420D01*
X1139015Y665662D01*
X1138313Y664852D01*
X1137671Y663994D01*
X1137092Y663093D01*
X1136578Y662153D01*
X1136133Y661178D01*
X1135759Y660174D01*
X1135457Y659146D01*
X1135229Y658099D01*
X1135076Y657039D01*
X1135000Y655970D01*
X1135000Y654898D01*
X1135076Y653830D01*
X1135229Y652769D01*
X1135457Y651722D01*
X1135759Y650694D01*
X1136133Y649690D01*
X1136578Y648716D01*
X1137092Y647775D01*
X1137671Y646874D01*
X1138313Y646016D01*
X1139015Y645206D01*
X1139772Y644449D01*
X1140582Y643747D01*
X1141440Y643105D01*
X1142341Y642526D01*
X1143281Y642012D01*
X1144256Y641567D01*
X1145260Y641193D01*
X1146288Y640891D01*
X1147335Y640663D01*
X1148396Y640511D01*
X1149464Y640434D01*
X1150536Y640434D01*
X1151604Y640511D01*
X1152665Y640663D01*
X1153712Y640891D01*
X1154740Y641193D01*
X1155744Y641567D01*
X1156719Y642012D01*
X1157659Y642526D01*
X1158560Y643105D01*
X1159418Y643747D01*
X1160228Y644449D01*
X1160985Y645206D01*
X1161687Y646016D01*
X1162329Y646874D01*
X1162908Y647775D01*
X1163422Y648716D01*
X1163867Y649690D01*
X1164241Y650694D01*
X1164543Y651722D01*
X1164771Y652769D01*
X1164924Y653830D01*
X1165000Y654898D01*
X135577Y-450536D02*
X135577Y-449464D01*
X135501Y-448396D01*
X135348Y-447335D01*
X135120Y-446288D01*
X134819Y-445260D01*
X134444Y-444256D01*
X133999Y-443281D01*
X133486Y-442341D01*
X132906Y-441440D01*
X132264Y-440582D01*
X131563Y-439772D01*
X130805Y-439015D01*
X129995Y-438313D01*
X129137Y-437671D01*
X128236Y-437092D01*
X127296Y-436578D01*
X126321Y-436133D01*
X125317Y-435759D01*
X124289Y-435457D01*
X123242Y-435229D01*
X122182Y-435076D01*
X121113Y-435000D01*
X120041Y-435000D01*
X118973Y-435076D01*
X117912Y-435229D01*
X116865Y-435457D01*
X115837Y-435759D01*
X114833Y-436133D01*
X113859Y-436578D01*
X112918Y-437092D01*
X112017Y-437671D01*
X111159Y-438313D01*
X110349Y-439015D01*
X109592Y-439772D01*
X108890Y-440582D01*
X108248Y-441440D01*
X107669Y-442341D01*
X107155Y-443281D01*
X106710Y-444256D01*
X106336Y-445260D01*
X106034Y-446288D01*
X105806Y-447335D01*
X105654Y-448396D01*
X105577Y-449464D01*
X105577Y-450536D01*
X105654Y-451604D01*
X105806Y-452665D01*
X106034Y-453712D01*
X106336Y-454740D01*
X106710Y-455744D01*
X107155Y-456719D01*
X107669Y-457659D01*
X108248Y-458560D01*
X108890Y-459418D01*
X109592Y-460228D01*
X110349Y-460985D01*
X111159Y-461687D01*
X112017Y-462329D01*
X112918Y-462908D01*
X113859Y-463422D01*
X114833Y-463867D01*
X115837Y-464241D01*
X116865Y-464543D01*
X117912Y-464771D01*
X118973Y-464924D01*
X120041Y-465000D01*
X121113Y-465000D01*
X122182Y-464924D01*
X123242Y-464771D01*
X124289Y-464543D01*
X125317Y-464241D01*
X126321Y-463867D01*
X127296Y-463422D01*
X128236Y-462908D01*
X129137Y-462329D01*
X129995Y-461687D01*
X130805Y-460985D01*
X131563Y-460228D01*
X132264Y-459418D01*
X132906Y-458560D01*
X133486Y-457659D01*
X133999Y-456719D01*
X134444Y-455744D01*
X134819Y-454740D01*
X135120Y-453712D01*
X135348Y-452665D01*
X135501Y-451604D01*
X135577Y-450536D01*
X1365000Y-779959D02*
X1365000Y-778887D01*
X1364924Y-777818D01*
X1364771Y-776758D01*
X1364543Y-775711D01*
X1364241Y-774683D01*
X1363867Y-773679D01*
X1363422Y-772704D01*
X1362908Y-771764D01*
X1362329Y-770863D01*
X1361687Y-770005D01*
X1360985Y-769195D01*
X1360228Y-768438D01*
X1359418Y-767736D01*
X1358560Y-767094D01*
X1357659Y-766514D01*
X1356719Y-766001D01*
X1355744Y-765556D01*
X1354740Y-765181D01*
X1353712Y-764880D01*
X1352665Y-764652D01*
X1351604Y-764499D01*
X1350536Y-764423D01*
X1349464Y-764423D01*
X1348396Y-764499D01*
X1347335Y-764652D01*
X1346288Y-764880D01*
X1345260Y-765181D01*
X1344256Y-765556D01*
X1343281Y-766001D01*
X1342341Y-766514D01*
X1341440Y-767094D01*
X1340582Y-767736D01*
X1339772Y-768438D01*
X1339015Y-769195D01*
X1338313Y-770005D01*
X1337671Y-770863D01*
X1337092Y-771764D01*
X1336578Y-772704D01*
X1336133Y-773679D01*
X1335759Y-774683D01*
X1335457Y-775711D01*
X1335229Y-776758D01*
X1335076Y-777818D01*
X1335000Y-778887D01*
X1335000Y-779959D01*
X1335076Y-781027D01*
X1335229Y-782088D01*
X1335457Y-783135D01*
X1335759Y-784163D01*
X1336133Y-785167D01*
X1336578Y-786141D01*
X1337092Y-787082D01*
X1337671Y-787983D01*
X1338313Y-788841D01*
X1339015Y-789651D01*
X1339772Y-790408D01*
X1340582Y-791110D01*
X1341440Y-791752D01*
X1342341Y-792331D01*
X1343281Y-792845D01*
X1344256Y-793290D01*
X1345260Y-793664D01*
X1346288Y-793966D01*
X1347335Y-794194D01*
X1348396Y-794346D01*
X1349464Y-794423D01*
X1350536Y-794423D01*
X1351604Y-794346D01*
X1352665Y-794194D01*
X1353712Y-793966D01*
X1354740Y-793664D01*
X1355744Y-793290D01*
X1356719Y-792845D01*
X1357659Y-792331D01*
X1358560Y-791752D01*
X1359418Y-791110D01*
X1360228Y-790408D01*
X1360985Y-789651D01*
X1361687Y-788841D01*
X1362329Y-787983D01*
X1362908Y-787082D01*
X1363422Y-786141D01*
X1363867Y-785167D01*
X1364241Y-784163D01*
X1364543Y-783135D01*
X1364771Y-782088D01*
X1364924Y-781027D01*
X1365000Y-779959D01*
X1365000Y778887D02*
X1365000Y779959D01*
X1364924Y781027D01*
X1364771Y782088D01*
X1364543Y783135D01*
X1364241Y784163D01*
X1363867Y785167D01*
X1363422Y786141D01*
X1362908Y787082D01*
X1362329Y787983D01*
X1361687Y788841D01*
X1360985Y789651D01*
X1360228Y790408D01*
X1359418Y791110D01*
X1358560Y791752D01*
X1357659Y792331D01*
X1356719Y792845D01*
X1355744Y793290D01*
X1354740Y793664D01*
X1353712Y793966D01*
X1352665Y794194D01*
X1351604Y794346D01*
X1350536Y794423D01*
X1349464Y794423D01*
X1348396Y794346D01*
X1347335Y794194D01*
X1346288Y793966D01*
X1345260Y793664D01*
X1344256Y793290D01*
X1343281Y792845D01*
X1342341Y792331D01*
X1341440Y791752D01*
X1340582Y791110D01*
X1339772Y790408D01*
X1339015Y789651D01*
X1338313Y788841D01*
X1337671Y787983D01*
X1337092Y787082D01*
X1336578Y786141D01*
X1336133Y785167D01*
X1335759Y784163D01*
X1335457Y783135D01*
X1335229Y782088D01*
X1335076Y781027D01*
X1335000Y779959D01*
X1335000Y778887D01*
X1335076Y777818D01*
X1335229Y776758D01*
X1335457Y775711D01*
X1335759Y774683D01*
X1336133Y773679D01*
X1336578Y772704D01*
X1337092Y771764D01*
X1337671Y770863D01*
X1338313Y770005D01*
X1339015Y769195D01*
X1339772Y768438D01*
X1340582Y767736D01*
X1341440Y767094D01*
X1342341Y766514D01*
X1343281Y766001D01*
X1344256Y765556D01*
X1345260Y765181D01*
X1346288Y764880D01*
X1347335Y764652D01*
X1348396Y764499D01*
X1349464Y764423D01*
X1350536Y764423D01*
X1351604Y764499D01*
X1352665Y764652D01*
X1353712Y764880D01*
X1354740Y765181D01*
X1355744Y765556D01*
X1356719Y766001D01*
X1357659Y766514D01*
X1358560Y767094D01*
X1359418Y767736D01*
X1360228Y768438D01*
X1360985Y769195D01*
X1361687Y770005D01*
X1362329Y770863D01*
X1362908Y771764D01*
X1363422Y772704D01*
X1363867Y773679D01*
X1364241Y774683D01*
X1364543Y775711D01*
X1364771Y776758D01*
X1364924Y777818D01*
X1365000Y778887D01*
X1815000Y-536D02*
X1815000Y536D01*
X1814924Y1604D01*
X1814771Y2665D01*
X1814543Y3712D01*
X1814241Y4740D01*
X1813867Y5744D01*
X1813422Y6719D01*
X1812908Y7659D01*
X1812329Y8560D01*
X1811687Y9418D01*
X1810985Y10228D01*
X1810228Y10985D01*
X1809418Y11687D01*
X1808560Y12329D01*
X1807659Y12908D01*
X1806719Y13422D01*
X1805744Y13867D01*
X1804740Y14241D01*
X1803712Y14543D01*
X1802665Y14771D01*
X1801604Y14924D01*
X1800536Y15000D01*
X1799464Y15000D01*
X1798396Y14924D01*
X1797335Y14771D01*
X1796288Y14543D01*
X1795260Y14241D01*
X1794256Y13867D01*
X1793281Y13422D01*
X1792341Y12908D01*
X1791440Y12329D01*
X1790582Y11687D01*
X1789772Y10985D01*
X1789015Y10228D01*
X1788313Y9418D01*
X1787671Y8560D01*
X1787092Y7659D01*
X1786578Y6719D01*
X1786133Y5744D01*
X1785759Y4740D01*
X1785457Y3712D01*
X1785229Y2665D01*
X1785076Y1604D01*
X1785000Y536D01*
X1785000Y-536D01*
X1785076Y-1604D01*
X1785229Y-2665D01*
X1785457Y-3712D01*
X1785759Y-4740D01*
X1786133Y-5744D01*
X1786578Y-6719D01*
X1787092Y-7659D01*
X1787671Y-8560D01*
X1788313Y-9418D01*
X1789015Y-10228D01*
X1789772Y-10985D01*
X1790582Y-11687D01*
X1791440Y-12329D01*
X1792341Y-12908D01*
X1793281Y-13422D01*
X1794256Y-13867D01*
X1795260Y-14241D01*
X1796288Y-14543D01*
X1797335Y-14771D01*
X1798396Y-14924D01*
X1799464Y-15000D01*
X1800536Y-15000D01*
X1801604Y-14924D01*
X1802665Y-14771D01*
X1803712Y-14543D01*
X1804740Y-14241D01*
X1805744Y-13867D01*
X1806719Y-13422D01*
X1807659Y-12908D01*
X1808560Y-12329D01*
X1809418Y-11687D01*
X1810228Y-10985D01*
X1810985Y-10228D01*
X1811687Y-9418D01*
X1812329Y-8560D01*
X1812908Y-7659D01*
X1813422Y-6719D01*
X1813867Y-5744D01*
X1814241Y-4740D01*
X1814543Y-3712D01*
X1814771Y-2665D01*
X1814924Y-1604D01*
X1815000Y-536D01*
X465000Y778887D02*
X465000Y779959D01*
X464924Y781027D01*
X464771Y782088D01*
X464543Y783135D01*
X464241Y784163D01*
X463867Y785167D01*
X463422Y786141D01*
X462908Y787082D01*
X462329Y787983D01*
X461687Y788841D01*
X460985Y789651D01*
X460228Y790408D01*
X459418Y791110D01*
X458560Y791752D01*
X457659Y792331D01*
X456719Y792845D01*
X455744Y793290D01*
X454740Y793664D01*
X453712Y793966D01*
X452665Y794194D01*
X451604Y794346D01*
X450536Y794423D01*
X449464Y794423D01*
X448396Y794346D01*
X447335Y794194D01*
X446288Y793966D01*
X445260Y793664D01*
X444256Y793290D01*
X443281Y792845D01*
X442341Y792331D01*
X441440Y791752D01*
X440582Y791110D01*
X439772Y790408D01*
X439015Y789651D01*
X438313Y788841D01*
X437671Y787983D01*
X437092Y787082D01*
X436578Y786141D01*
X436133Y785167D01*
X435759Y784163D01*
X435457Y783135D01*
X435229Y782088D01*
X435076Y781027D01*
X435000Y779959D01*
X435000Y778887D01*
X435076Y777818D01*
X435229Y776758D01*
X435457Y775711D01*
X435759Y774683D01*
X436133Y773679D01*
X436578Y772704D01*
X437092Y771764D01*
X437671Y770863D01*
X438313Y770005D01*
X439015Y769195D01*
X439772Y768438D01*
X440582Y767736D01*
X441440Y767094D01*
X442341Y766514D01*
X443281Y766001D01*
X444256Y765556D01*
X445260Y765181D01*
X446288Y764880D01*
X447335Y764652D01*
X448396Y764499D01*
X449464Y764423D01*
X450536Y764423D01*
X451604Y764499D01*
X452665Y764652D01*
X453712Y764880D01*
X454740Y765181D01*
X455744Y765556D01*
X456719Y766001D01*
X457659Y766514D01*
X458560Y767094D01*
X459418Y767736D01*
X460228Y768438D01*
X460985Y769195D01*
X461687Y770005D01*
X462329Y770863D01*
X462908Y771764D01*
X463422Y772704D01*
X463867Y773679D01*
X464241Y774683D01*
X464543Y775711D01*
X464771Y776758D01*
X464924Y777818D01*
X465000Y778887D01*
X465000Y-779959D02*
X465000Y-778887D01*
X464924Y-777818D01*
X464771Y-776758D01*
X464543Y-775711D01*
X464241Y-774683D01*
X463867Y-773679D01*
X463422Y-772704D01*
X462908Y-771764D01*
X462329Y-770863D01*
X461687Y-770005D01*
X460985Y-769195D01*
X460228Y-768438D01*
X459418Y-767736D01*
X458560Y-767094D01*
X457659Y-766514D01*
X456719Y-766001D01*
X455744Y-765556D01*
X454740Y-765181D01*
X453712Y-764880D01*
X452665Y-764652D01*
X451604Y-764499D01*
X450536Y-764423D01*
X449464Y-764423D01*
X448396Y-764499D01*
X447335Y-764652D01*
X446288Y-764880D01*
X445260Y-765181D01*
X444256Y-765556D01*
X443281Y-766001D01*
X442341Y-766514D01*
X441440Y-767094D01*
X440582Y-767736D01*
X439772Y-768438D01*
X439015Y-769195D01*
X438313Y-770005D01*
X437671Y-770863D01*
X437092Y-771764D01*
X436578Y-772704D01*
X436133Y-773679D01*
X435759Y-774683D01*
X435457Y-775711D01*
X435229Y-776758D01*
X435076Y-777818D01*
X435000Y-778887D01*
X435000Y-779959D01*
X435076Y-781027D01*
X435229Y-782088D01*
X435457Y-783135D01*
X435759Y-784163D01*
X436133Y-785167D01*
X436578Y-786141D01*
X437092Y-787082D01*
X437671Y-787983D01*
X438313Y-788841D01*
X439015Y-789651D01*
X439772Y-790408D01*
X440582Y-791110D01*
X441440Y-791752D01*
X442341Y-792331D01*
X443281Y-792845D01*
X444256Y-793290D01*
X445260Y-793664D01*
X446288Y-793966D01*
X447335Y-794194D01*
X448396Y-794346D01*
X449464Y-794423D01*
X450536Y-794423D01*
X451604Y-794346D01*
X452665Y-794194D01*
X453712Y-793966D01*
X454740Y-793664D01*
X455744Y-793290D01*
X456719Y-792845D01*
X457659Y-792331D01*
X458560Y-791752D01*
X459418Y-791110D01*
X460228Y-790408D01*
X460985Y-789651D01*
X461687Y-788841D01*
X462329Y-787983D01*
X462908Y-787082D01*
X463422Y-786141D01*
X463867Y-785167D01*
X464241Y-784163D01*
X464543Y-783135D01*
X464771Y-782088D01*
X464924Y-781027D01*
X465000Y-779959D01*
X1694423Y-450536D02*
X1694423Y-449464D01*
X1694346Y-448396D01*
X1694194Y-447335D01*
X1693966Y-446288D01*
X1693664Y-445260D01*
X1693290Y-444256D01*
X1692845Y-443281D01*
X1692331Y-442341D01*
X1691752Y-441440D01*
X1691110Y-440582D01*
X1690408Y-439772D01*
X1689651Y-439015D01*
X1688841Y-438313D01*
X1687983Y-437671D01*
X1687082Y-437092D01*
X1686141Y-436578D01*
X1685167Y-436133D01*
X1684163Y-435759D01*
X1683135Y-435457D01*
X1682088Y-435229D01*
X1681027Y-435076D01*
X1679959Y-435000D01*
X1678887Y-435000D01*
X1677818Y-435076D01*
X1676758Y-435229D01*
X1675711Y-435457D01*
X1674683Y-435759D01*
X1673679Y-436133D01*
X1672704Y-436578D01*
X1671764Y-437092D01*
X1670863Y-437671D01*
X1670005Y-438313D01*
X1669195Y-439015D01*
X1668438Y-439772D01*
X1667736Y-440582D01*
X1667094Y-441440D01*
X1666514Y-442341D01*
X1666001Y-443281D01*
X1665556Y-444256D01*
X1665181Y-445260D01*
X1664880Y-446288D01*
X1664652Y-447335D01*
X1664499Y-448396D01*
X1664423Y-449464D01*
X1664423Y-450536D01*
X1664499Y-451604D01*
X1664652Y-452665D01*
X1664880Y-453712D01*
X1665181Y-454740D01*
X1665556Y-455744D01*
X1666001Y-456719D01*
X1666514Y-457659D01*
X1667094Y-458560D01*
X1667736Y-459418D01*
X1668438Y-460228D01*
X1669195Y-460985D01*
X1670005Y-461687D01*
X1670863Y-462329D01*
X1671764Y-462908D01*
X1672704Y-463422D01*
X1673679Y-463867D01*
X1674683Y-464241D01*
X1675711Y-464543D01*
X1676758Y-464771D01*
X1677818Y-464924D01*
X1678887Y-465000D01*
X1679959Y-465000D01*
X1681027Y-464924D01*
X1682088Y-464771D01*
X1683135Y-464543D01*
X1684163Y-464241D01*
X1685167Y-463867D01*
X1686141Y-463422D01*
X1687082Y-462908D01*
X1687983Y-462329D01*
X1688841Y-461687D01*
X1689651Y-460985D01*
X1690408Y-460228D01*
X1691110Y-459418D01*
X1691752Y-458560D01*
X1692331Y-457659D01*
X1692845Y-456719D01*
X1693290Y-455744D01*
X1693664Y-454740D01*
X1693966Y-453712D01*
X1694194Y-452665D01*
X1694346Y-451604D01*
X1694423Y-450536D01*
X665000Y654898D02*
X665000Y655970D01*
X664924Y657039D01*
X664771Y658099D01*
X664543Y659146D01*
X664241Y660174D01*
X663867Y661178D01*
X663422Y662153D01*
X662908Y663093D01*
X662329Y663994D01*
X661687Y664852D01*
X660985Y665662D01*
X660228Y666420D01*
X659418Y667121D01*
X658560Y667763D01*
X657659Y668343D01*
X656719Y668856D01*
X655744Y669301D01*
X654740Y669676D01*
X653712Y669978D01*
X652665Y670205D01*
X651604Y670358D01*
X650536Y670434D01*
X649464Y670434D01*
X648396Y670358D01*
X647335Y670205D01*
X646288Y669978D01*
X645260Y669676D01*
X644256Y669301D01*
X643281Y668856D01*
X642341Y668343D01*
X641440Y667763D01*
X640582Y667121D01*
X639772Y666420D01*
X639015Y665662D01*
X638313Y664852D01*
X637671Y663994D01*
X637092Y663093D01*
X636578Y662153D01*
X636133Y661178D01*
X635759Y660174D01*
X635457Y659146D01*
X635229Y658099D01*
X635076Y657039D01*
X635000Y655970D01*
X635000Y654898D01*
X635076Y653830D01*
X635229Y652769D01*
X635457Y651722D01*
X635759Y650694D01*
X636133Y649690D01*
X636578Y648716D01*
X637092Y647775D01*
X637671Y646874D01*
X638313Y646016D01*
X639015Y645206D01*
X639772Y644449D01*
X640582Y643747D01*
X641440Y643105D01*
X642341Y642526D01*
X643281Y642012D01*
X644256Y641567D01*
X645260Y641193D01*
X646288Y640891D01*
X647335Y640663D01*
X648396Y640511D01*
X649464Y640434D01*
X650536Y640434D01*
X651604Y640511D01*
X652665Y640663D01*
X653712Y640891D01*
X654740Y641193D01*
X655744Y641567D01*
X656719Y642012D01*
X657659Y642526D01*
X658560Y643105D01*
X659418Y643747D01*
X660228Y644449D01*
X660985Y645206D01*
X661687Y646016D01*
X662329Y646874D01*
X662908Y647775D01*
X663422Y648716D01*
X663867Y649690D01*
X664241Y650694D01*
X664543Y651722D01*
X664771Y652769D01*
X664924Y653830D01*
X665000Y654898D01*
X1438910Y-583678D02*
X1438910Y-582182D01*
X1438837Y-580687D01*
X1438690Y-579198D01*
X1438470Y-577718D01*
X1438178Y-576250D01*
X1437815Y-574798D01*
X1437380Y-573366D01*
X1436876Y-571957D01*
X1436304Y-570575D01*
X1435664Y-569222D01*
X1434958Y-567902D01*
X1434189Y-566618D01*
X1433358Y-565374D01*
X1432466Y-564172D01*
X1431517Y-563015D01*
X1430512Y-561906D01*
X1429454Y-560848D01*
X1428345Y-559843D01*
X1427188Y-558894D01*
X1425986Y-558003D01*
X1424742Y-557171D01*
X1423458Y-556402D01*
X1422138Y-555696D01*
X1420785Y-555057D01*
X1419403Y-554484D01*
X1417994Y-553980D01*
X1416562Y-553545D01*
X1415110Y-553182D01*
X1413643Y-552890D01*
X1412162Y-552670D01*
X1410673Y-552523D01*
X1409178Y-552450D01*
X1407682Y-552450D01*
X1406187Y-552523D01*
X1404698Y-552670D01*
X1403218Y-552890D01*
X1401750Y-553182D01*
X1400298Y-553545D01*
X1398866Y-553980D01*
X1397457Y-554484D01*
X1396075Y-555057D01*
X1394722Y-555696D01*
X1393402Y-556402D01*
X1392118Y-557171D01*
X1390874Y-558003D01*
X1389672Y-558894D01*
X1388515Y-559843D01*
X1387406Y-560848D01*
X1386348Y-561906D01*
X1385343Y-563015D01*
X1384394Y-564172D01*
X1383503Y-565374D01*
X1382671Y-566618D01*
X1381902Y-567902D01*
X1381196Y-569222D01*
X1380557Y-570575D01*
X1379984Y-571957D01*
X1379480Y-573366D01*
X1379045Y-574798D01*
X1378682Y-576250D01*
X1378390Y-577718D01*
X1378170Y-579198D01*
X1378023Y-580687D01*
X1377950Y-582182D01*
X1377950Y-583678D01*
X1378023Y-585173D01*
X1378170Y-586662D01*
X1378390Y-588143D01*
X1378682Y-589610D01*
X1379045Y-591062D01*
X1379480Y-592494D01*
X1379984Y-593903D01*
X1380557Y-595285D01*
X1381196Y-596638D01*
X1381902Y-597958D01*
X1382671Y-599242D01*
X1383503Y-600486D01*
X1384394Y-601688D01*
X1385343Y-602845D01*
X1386348Y-603954D01*
X1387406Y-605012D01*
X1388515Y-606017D01*
X1389672Y-606966D01*
X1390874Y-607858D01*
X1392118Y-608689D01*
X1393402Y-609458D01*
X1394722Y-610164D01*
X1396075Y-610804D01*
X1397457Y-611376D01*
X1398866Y-611880D01*
X1400298Y-612315D01*
X1401750Y-612678D01*
X1403218Y-612970D01*
X1404698Y-613190D01*
X1406187Y-613337D01*
X1407682Y-613410D01*
X1409178Y-613410D01*
X1410673Y-613337D01*
X1412162Y-613190D01*
X1413643Y-612970D01*
X1415110Y-612678D01*
X1416562Y-612315D01*
X1417994Y-611880D01*
X1419403Y-611376D01*
X1420785Y-610804D01*
X1422138Y-610164D01*
X1423458Y-609458D01*
X1424742Y-608689D01*
X1425986Y-607858D01*
X1427188Y-606966D01*
X1428345Y-606017D01*
X1429454Y-605012D01*
X1430512Y-603954D01*
X1431517Y-602845D01*
X1432466Y-601688D01*
X1433358Y-600486D01*
X1434189Y-599242D01*
X1434958Y-597958D01*
X1435664Y-596638D01*
X1436304Y-595285D01*
X1436876Y-593903D01*
X1437380Y-592494D01*
X1437815Y-591062D01*
X1438178Y-589610D01*
X1438470Y-588143D01*
X1438690Y-586662D01*
X1438837Y-585173D01*
X1438910Y-583678D01*
X1286510Y-697978D02*
X1286510Y-696482D01*
X1286437Y-694987D01*
X1286290Y-693498D01*
X1286070Y-692018D01*
X1285778Y-690550D01*
X1285415Y-689098D01*
X1284980Y-687666D01*
X1284476Y-686257D01*
X1283904Y-684875D01*
X1283264Y-683522D01*
X1282558Y-682202D01*
X1281789Y-680918D01*
X1280958Y-679674D01*
X1280066Y-678472D01*
X1279117Y-677315D01*
X1278112Y-676206D01*
X1277054Y-675148D01*
X1275945Y-674143D01*
X1274788Y-673194D01*
X1273586Y-672303D01*
X1272342Y-671471D01*
X1271058Y-670702D01*
X1269738Y-669996D01*
X1268385Y-669357D01*
X1267003Y-668784D01*
X1265594Y-668280D01*
X1264162Y-667845D01*
X1262710Y-667482D01*
X1261243Y-667190D01*
X1259762Y-666970D01*
X1258273Y-666823D01*
X1256778Y-666750D01*
X1255282Y-666750D01*
X1253787Y-666823D01*
X1252298Y-666970D01*
X1250818Y-667190D01*
X1249350Y-667482D01*
X1247898Y-667845D01*
X1246466Y-668280D01*
X1245057Y-668784D01*
X1243675Y-669357D01*
X1242322Y-669996D01*
X1241002Y-670702D01*
X1239718Y-671471D01*
X1238474Y-672303D01*
X1237272Y-673194D01*
X1236115Y-674143D01*
X1235006Y-675148D01*
X1233948Y-676206D01*
X1232943Y-677315D01*
X1231994Y-678472D01*
X1231103Y-679674D01*
X1230271Y-680918D01*
X1229502Y-682202D01*
X1228796Y-683522D01*
X1228157Y-684875D01*
X1227584Y-686257D01*
X1227080Y-687666D01*
X1226645Y-689098D01*
X1226282Y-690550D01*
X1225990Y-692018D01*
X1225770Y-693498D01*
X1225623Y-694987D01*
X1225550Y-696482D01*
X1225550Y-697978D01*
X1225623Y-699473D01*
X1225770Y-700962D01*
X1225990Y-702443D01*
X1226282Y-703910D01*
X1226645Y-705362D01*
X1227080Y-706794D01*
X1227584Y-708203D01*
X1228157Y-709585D01*
X1228796Y-710938D01*
X1229502Y-712258D01*
X1230271Y-713542D01*
X1231103Y-714786D01*
X1231994Y-715988D01*
X1232943Y-717145D01*
X1233948Y-718254D01*
X1235006Y-719312D01*
X1236115Y-720317D01*
X1237272Y-721266D01*
X1238474Y-722158D01*
X1239718Y-722989D01*
X1241002Y-723758D01*
X1242322Y-724464D01*
X1243675Y-725104D01*
X1245057Y-725676D01*
X1246466Y-726180D01*
X1247898Y-726615D01*
X1249350Y-726978D01*
X1250818Y-727270D01*
X1252298Y-727490D01*
X1253787Y-727637D01*
X1255282Y-727710D01*
X1256778Y-727710D01*
X1258273Y-727637D01*
X1259762Y-727490D01*
X1261243Y-727270D01*
X1262710Y-726978D01*
X1264162Y-726615D01*
X1265594Y-726180D01*
X1267003Y-725676D01*
X1268385Y-725104D01*
X1269738Y-724464D01*
X1271058Y-723758D01*
X1272342Y-722989D01*
X1273586Y-722158D01*
X1274788Y-721266D01*
X1275945Y-720317D01*
X1277054Y-719312D01*
X1278112Y-718254D01*
X1279117Y-717145D01*
X1280066Y-715988D01*
X1280958Y-714786D01*
X1281789Y-713542D01*
X1282558Y-712258D01*
X1283264Y-710938D01*
X1283904Y-709585D01*
X1284476Y-708203D01*
X1284980Y-706794D01*
X1285415Y-705362D01*
X1285778Y-703910D01*
X1286070Y-702443D01*
X1286290Y-700962D01*
X1286437Y-699473D01*
X1286510Y-697978D01*
X1155176Y-657100D02*
X1154131Y-657169D01*
X1153092Y-657305D01*
X1152065Y-657510D01*
X1151053Y-657781D01*
X1150061Y-658117D01*
X1149093Y-658518D01*
X1148154Y-658982D01*
X1147246Y-659506D01*
X1146375Y-660088D01*
X1145544Y-660725D01*
X1144757Y-661416D01*
X1144016Y-662157D01*
X1143325Y-662944D01*
X1142688Y-663775D01*
X1142106Y-664646D01*
X1141582Y-665554D01*
X1141118Y-666493D01*
X1140717Y-667461D01*
X1140381Y-668453D01*
X1140110Y-669465D01*
X1139905Y-670492D01*
X1139769Y-671531D01*
X1139700Y-672576D01*
X1139700Y-673624D01*
X1139769Y-674669D01*
X1139905Y-675708D01*
X1140110Y-676735D01*
X1140381Y-677747D01*
X1140717Y-678739D01*
X1141118Y-679707D01*
X1141582Y-680646D01*
X1142106Y-681554D01*
X1142688Y-682425D01*
X1143325Y-683256D01*
X1144016Y-684043D01*
X1144757Y-684784D01*
X1145544Y-685475D01*
X1146375Y-686113D01*
X1147246Y-686695D01*
X1148154Y-687218D01*
X1149093Y-687682D01*
X1150061Y-688083D01*
X1151053Y-688419D01*
X1152065Y-688690D01*
X1153092Y-688895D01*
X1154131Y-689032D01*
X1155176Y-689100D01*
X1156224Y-689100D01*
X1157269Y-689032D01*
X1158308Y-688895D01*
X1159335Y-688690D01*
X1160347Y-688419D01*
X1161339Y-688083D01*
X1162307Y-687682D01*
X1163246Y-687218D01*
X1164154Y-686695D01*
X1165025Y-686113D01*
X1165856Y-685475D01*
X1166643Y-684784D01*
X1167384Y-684043D01*
X1168075Y-683256D01*
X1168713Y-682425D01*
X1169295Y-681554D01*
X1169818Y-680646D01*
X1170282Y-679707D01*
X1170683Y-678739D01*
X1171019Y-677747D01*
X1171290Y-676735D01*
X1171495Y-675708D01*
X1171632Y-674669D01*
X1171700Y-673624D01*
X1171700Y-672576D01*
X1171632Y-671531D01*
X1171495Y-670492D01*
X1171290Y-669465D01*
X1171019Y-668453D01*
X1170683Y-667461D01*
X1170282Y-666493D01*
X1169818Y-665554D01*
X1169295Y-664646D01*
X1168713Y-663775D01*
X1168075Y-662944D01*
X1167384Y-662157D01*
X1166643Y-661416D01*
X1165856Y-660725D01*
X1165025Y-660088D01*
X1164154Y-659506D01*
X1163246Y-658982D01*
X1162307Y-658518D01*
X1161339Y-658117D01*
X1160347Y-657781D01*
X1159335Y-657510D01*
X1158308Y-657305D01*
X1157269Y-657169D01*
X1156224Y-657100D01*
X1155176Y-657100D01*
X672576Y-669800D02*
X671531Y-669869D01*
X670492Y-670005D01*
X669465Y-670210D01*
X668453Y-670481D01*
X667461Y-670817D01*
X666493Y-671218D01*
X665554Y-671682D01*
X664646Y-672206D01*
X663775Y-672788D01*
X662944Y-673425D01*
X662157Y-674116D01*
X661416Y-674857D01*
X660725Y-675644D01*
X660088Y-676475D01*
X659506Y-677346D01*
X658982Y-678254D01*
X658518Y-679193D01*
X658117Y-680161D01*
X657781Y-681153D01*
X657510Y-682165D01*
X657305Y-683192D01*
X657169Y-684231D01*
X657100Y-685276D01*
X657100Y-686324D01*
X657169Y-687369D01*
X657305Y-688408D01*
X657510Y-689435D01*
X657781Y-690447D01*
X658117Y-691439D01*
X658518Y-692407D01*
X658982Y-693346D01*
X659506Y-694254D01*
X660088Y-695125D01*
X660725Y-695956D01*
X661416Y-696743D01*
X662157Y-697484D01*
X662944Y-698175D01*
X663775Y-698813D01*
X664646Y-699395D01*
X665554Y-699918D01*
X666493Y-700382D01*
X667461Y-700783D01*
X668453Y-701119D01*
X669465Y-701390D01*
X670492Y-701595D01*
X671531Y-701732D01*
X672576Y-701800D01*
X673624Y-701800D01*
X674669Y-701732D01*
X675708Y-701595D01*
X676735Y-701390D01*
X677747Y-701119D01*
X678739Y-700783D01*
X679707Y-700382D01*
X680646Y-699918D01*
X681554Y-699395D01*
X682425Y-698813D01*
X683256Y-698175D01*
X684043Y-697484D01*
X684784Y-696743D01*
X685475Y-695956D01*
X686113Y-695125D01*
X686695Y-694254D01*
X687218Y-693346D01*
X687682Y-692407D01*
X688083Y-691439D01*
X688419Y-690447D01*
X688690Y-689435D01*
X688895Y-688408D01*
X689032Y-687369D01*
X689100Y-686324D01*
X689100Y-685276D01*
X689032Y-684231D01*
X688895Y-683192D01*
X688690Y-682165D01*
X688419Y-681153D01*
X688083Y-680161D01*
X687682Y-679193D01*
X687218Y-678254D01*
X686695Y-677346D01*
X686113Y-676475D01*
X685475Y-675644D01*
X684784Y-674857D01*
X684043Y-674116D01*
X683256Y-673425D01*
X682425Y-672788D01*
X681554Y-672206D01*
X680646Y-671682D01*
X679707Y-671218D01*
X678739Y-670817D01*
X677747Y-670481D01*
X676735Y-670210D01*
X675708Y-670005D01*
X674669Y-669869D01*
X673624Y-669800D01*
X672576Y-669800D01*
X1002776Y-149100D02*
X1001731Y-149169D01*
X1000692Y-149305D01*
X999665Y-149510D01*
X998653Y-149781D01*
X997661Y-150117D01*
X996693Y-150518D01*
X995754Y-150982D01*
X994846Y-151506D01*
X993975Y-152088D01*
X993144Y-152725D01*
X992357Y-153416D01*
X991616Y-154157D01*
X990925Y-154944D01*
X990288Y-155775D01*
X989706Y-156646D01*
X989182Y-157554D01*
X988718Y-158493D01*
X988317Y-159461D01*
X987981Y-160453D01*
X987710Y-161465D01*
X987505Y-162492D01*
X987369Y-163531D01*
X987300Y-164576D01*
X987300Y-165624D01*
X987369Y-166669D01*
X987505Y-167708D01*
X987710Y-168735D01*
X987981Y-169747D01*
X988317Y-170739D01*
X988718Y-171707D01*
X989182Y-172646D01*
X989706Y-173554D01*
X990288Y-174425D01*
X990925Y-175256D01*
X991616Y-176043D01*
X992357Y-176784D01*
X993144Y-177475D01*
X993975Y-178113D01*
X994846Y-178695D01*
X995754Y-179218D01*
X996693Y-179682D01*
X997661Y-180083D01*
X998653Y-180419D01*
X999665Y-180690D01*
X1000692Y-180895D01*
X1001731Y-181032D01*
X1002776Y-181100D01*
X1003824Y-181100D01*
X1004869Y-181032D01*
X1005908Y-180895D01*
X1006935Y-180690D01*
X1007947Y-180419D01*
X1008939Y-180083D01*
X1009907Y-179682D01*
X1010846Y-179218D01*
X1011754Y-178695D01*
X1012625Y-178113D01*
X1013456Y-177475D01*
X1014243Y-176784D01*
X1014984Y-176043D01*
X1015675Y-175256D01*
X1016313Y-174425D01*
X1016895Y-173554D01*
X1017418Y-172646D01*
X1017882Y-171707D01*
X1018283Y-170739D01*
X1018619Y-169747D01*
X1018890Y-168735D01*
X1019095Y-167708D01*
X1019232Y-166669D01*
X1019300Y-165624D01*
X1019300Y-164576D01*
X1019232Y-163531D01*
X1019095Y-162492D01*
X1018890Y-161465D01*
X1018619Y-160453D01*
X1018283Y-159461D01*
X1017882Y-158493D01*
X1017418Y-157554D01*
X1016895Y-156646D01*
X1016313Y-155775D01*
X1015675Y-154944D01*
X1014984Y-154157D01*
X1014243Y-153416D01*
X1013456Y-152725D01*
X1012625Y-152088D01*
X1011754Y-151506D01*
X1010846Y-150982D01*
X1009907Y-150518D01*
X1008939Y-150117D01*
X1007947Y-149781D01*
X1006935Y-149510D01*
X1005908Y-149305D01*
X1004869Y-149169D01*
X1003824Y-149100D01*
X1002776Y-149100D01*
X723376Y-149100D02*
X722331Y-149169D01*
X721292Y-149305D01*
X720265Y-149510D01*
X719253Y-149781D01*
X718261Y-150117D01*
X717293Y-150518D01*
X716354Y-150982D01*
X715446Y-151506D01*
X714575Y-152088D01*
X713744Y-152725D01*
X712957Y-153416D01*
X712216Y-154157D01*
X711525Y-154944D01*
X710888Y-155775D01*
X710306Y-156646D01*
X709782Y-157554D01*
X709318Y-158493D01*
X708917Y-159461D01*
X708581Y-160453D01*
X708310Y-161465D01*
X708105Y-162492D01*
X707969Y-163531D01*
X707900Y-164576D01*
X707900Y-165624D01*
X707969Y-166669D01*
X708105Y-167708D01*
X708310Y-168735D01*
X708581Y-169747D01*
X708917Y-170739D01*
X709318Y-171707D01*
X709782Y-172646D01*
X710306Y-173554D01*
X710888Y-174425D01*
X711525Y-175256D01*
X712216Y-176043D01*
X712957Y-176784D01*
X713744Y-177475D01*
X714575Y-178113D01*
X715446Y-178695D01*
X716354Y-179218D01*
X717293Y-179682D01*
X718261Y-180083D01*
X719253Y-180419D01*
X720265Y-180690D01*
X721292Y-180895D01*
X722331Y-181032D01*
X723376Y-181100D01*
X724424Y-181100D01*
X725469Y-181032D01*
X726508Y-180895D01*
X727535Y-180690D01*
X728547Y-180419D01*
X729539Y-180083D01*
X730507Y-179682D01*
X731446Y-179218D01*
X732354Y-178695D01*
X733225Y-178113D01*
X734056Y-177475D01*
X734843Y-176784D01*
X735584Y-176043D01*
X736275Y-175256D01*
X736913Y-174425D01*
X737495Y-173554D01*
X738018Y-172646D01*
X738482Y-171707D01*
X738883Y-170739D01*
X739219Y-169747D01*
X739490Y-168735D01*
X739695Y-167708D01*
X739832Y-166669D01*
X739900Y-165624D01*
X739900Y-164576D01*
X739832Y-163531D01*
X739695Y-162492D01*
X739490Y-161465D01*
X739219Y-160453D01*
X738883Y-159461D01*
X738482Y-158493D01*
X738018Y-157554D01*
X737495Y-156646D01*
X736913Y-155775D01*
X736275Y-154944D01*
X735584Y-154157D01*
X734843Y-153416D01*
X734056Y-152725D01*
X733225Y-152088D01*
X732354Y-151506D01*
X731446Y-150982D01*
X730507Y-150518D01*
X729539Y-150117D01*
X728547Y-149781D01*
X727535Y-149510D01*
X726508Y-149305D01*
X725469Y-149169D01*
X724424Y-149100D01*
X723376Y-149100D01*
X1155176Y92200D02*
X1154131Y92132D01*
X1153092Y91995D01*
X1152065Y91790D01*
X1151053Y91519D01*
X1150061Y91183D01*
X1149093Y90782D01*
X1148154Y90318D01*
X1147246Y89795D01*
X1146375Y89213D01*
X1145544Y88575D01*
X1144757Y87884D01*
X1144016Y87143D01*
X1143325Y86356D01*
X1142688Y85525D01*
X1142106Y84654D01*
X1141582Y83746D01*
X1141118Y82807D01*
X1140717Y81839D01*
X1140381Y80847D01*
X1140110Y79835D01*
X1139905Y78808D01*
X1139769Y77769D01*
X1139700Y76724D01*
X1139700Y75676D01*
X1139769Y74631D01*
X1139905Y73592D01*
X1140110Y72565D01*
X1140381Y71553D01*
X1140717Y70561D01*
X1141118Y69593D01*
X1141582Y68654D01*
X1142106Y67746D01*
X1142688Y66875D01*
X1143325Y66044D01*
X1144016Y65257D01*
X1144757Y64516D01*
X1145544Y63825D01*
X1146375Y63188D01*
X1147246Y62606D01*
X1148154Y62082D01*
X1149093Y61618D01*
X1150061Y61217D01*
X1151053Y60881D01*
X1152065Y60610D01*
X1153092Y60405D01*
X1154131Y60269D01*
X1155176Y60200D01*
X1156224Y60200D01*
X1157269Y60269D01*
X1158308Y60405D01*
X1159335Y60610D01*
X1160347Y60881D01*
X1161339Y61217D01*
X1162307Y61618D01*
X1163246Y62082D01*
X1164154Y62606D01*
X1165025Y63188D01*
X1165856Y63825D01*
X1166643Y64516D01*
X1167384Y65257D01*
X1168075Y66044D01*
X1168713Y66875D01*
X1169295Y67746D01*
X1169818Y68654D01*
X1170282Y69593D01*
X1170683Y70561D01*
X1171019Y71553D01*
X1171290Y72565D01*
X1171495Y73592D01*
X1171632Y74631D01*
X1171700Y75676D01*
X1171700Y76724D01*
X1171632Y77769D01*
X1171495Y78808D01*
X1171290Y79835D01*
X1171019Y80847D01*
X1170683Y81839D01*
X1170282Y82807D01*
X1169818Y83746D01*
X1169295Y84654D01*
X1168713Y85525D01*
X1168075Y86356D01*
X1167384Y87143D01*
X1166643Y87884D01*
X1165856Y88575D01*
X1165025Y89213D01*
X1164154Y89795D01*
X1163246Y90318D01*
X1162307Y90782D01*
X1161339Y91183D01*
X1160347Y91519D01*
X1159335Y91790D01*
X1158308Y91995D01*
X1157269Y92132D01*
X1156224Y92200D01*
X1155176Y92200D01*
X672576Y155700D02*
X671531Y155632D01*
X670492Y155495D01*
X669465Y155290D01*
X668453Y155019D01*
X667461Y154683D01*
X666493Y154282D01*
X665554Y153818D01*
X664646Y153295D01*
X663775Y152713D01*
X662944Y152075D01*
X662157Y151384D01*
X661416Y150643D01*
X660725Y149856D01*
X660088Y149025D01*
X659506Y148154D01*
X658982Y147246D01*
X658518Y146307D01*
X658117Y145339D01*
X657781Y144347D01*
X657510Y143335D01*
X657305Y142308D01*
X657169Y141269D01*
X657100Y140224D01*
X657100Y139176D01*
X657169Y138131D01*
X657305Y137092D01*
X657510Y136065D01*
X657781Y135053D01*
X658117Y134061D01*
X658518Y133093D01*
X658982Y132154D01*
X659506Y131246D01*
X660088Y130375D01*
X660725Y129544D01*
X661416Y128757D01*
X662157Y128016D01*
X662944Y127325D01*
X663775Y126688D01*
X664646Y126106D01*
X665554Y125582D01*
X666493Y125118D01*
X667461Y124717D01*
X668453Y124381D01*
X669465Y124110D01*
X670492Y123905D01*
X671531Y123769D01*
X672576Y123700D01*
X673624Y123700D01*
X674669Y123769D01*
X675708Y123905D01*
X676735Y124110D01*
X677747Y124381D01*
X678739Y124717D01*
X679707Y125118D01*
X680646Y125582D01*
X681554Y126106D01*
X682425Y126688D01*
X683256Y127325D01*
X684043Y128016D01*
X684784Y128757D01*
X685475Y129544D01*
X686113Y130375D01*
X686695Y131246D01*
X687218Y132154D01*
X687682Y133093D01*
X688083Y134061D01*
X688419Y135053D01*
X688690Y136065D01*
X688895Y137092D01*
X689032Y138131D01*
X689100Y139176D01*
X689100Y140224D01*
X689032Y141269D01*
X688895Y142308D01*
X688690Y143335D01*
X688419Y144347D01*
X688083Y145339D01*
X687682Y146307D01*
X687218Y147246D01*
X686695Y148154D01*
X686113Y149025D01*
X685475Y149856D01*
X684784Y150643D01*
X684043Y151384D01*
X683256Y152075D01*
X682425Y152713D01*
X681554Y153295D01*
X680646Y153818D01*
X679707Y154282D01*
X678739Y154683D01*
X677747Y155019D01*
X676735Y155290D01*
X675708Y155495D01*
X674669Y155632D01*
X673624Y155700D01*
X672576Y155700D01*
M02*
