  0
SECTION
  2
HEADER
  9
$ACADVER
  1
AC1009
  9
$EXTMIN
 10
0.0
 20
0.0
 30
0.0
  9
$EXTMAX
 10
1000.0
 20
1000.0
 30
0.0
  9
$FILLMODE
 70
 0
  9
$SPLFRAME
 70
 1
  0
ENDSEC
  0
SECTION
  2
TABLES
  0
TABLE
  2
LAYER
 70
1
  0
LAYER
  2
0
 70
     0
 62
     7
  6
CONTINUOUS
  0
ENDTAB
  0
ENDSEC
  0
SECTION
  2
ENTITIES
  0
POLYLINE
  8
0
 62
     7
 66
     1
 10
0
 20
0
 30
0.0
 40
2.70553
 41
2.70553
  0
VERTEX
  8
0
 10
2.26183
 20
6.19054
 30
0.0
 40
0.0375768
 41
0.0375768
  0
VERTEX
  8
0
 10
2.26676
 20
6.19738
 30
0.0
 40
0.0375768
 41
0.0375768
  0
VERTEX
  8
0
 10
2.28217
 20
6.21739
 30
0.0
 40
0.0375768
 41
0.0375768
  0
VERTEX
  8
0
 10
2.30106
 20
6.23975
 30
0.0
 40
0.0375768
 41
0.0375768
  0
VERTEX
  8
0
 10
2.32101
 20
6.26112
 30
0.0
 40
0.0375768
 41
0.0375768
  0
VERTEX
  8
0
 10
2.33871
 20
6.27914
 30
0.0
 40
0.0375768
 41
0.0375768
  0
VERTEX
  8
0
 10
2.34463
 20
6.2851
 30
0.0
 40
0.0375768
 41
0.0375768
  0
VERTEX
  8
0
 10
2.3769
 20
6.31765
 30
0.0
 40
0.0375768
 41
0.0375768
  0
VERTEX
  8
0
 10
2.48633
 20
6.403
 30
0.0
 40
0.0375768
 41
0.0375768
  0
VERTEX
  8
0
 10
2.64903
 20
6.49203
 30
0.0
 40
0.0375768
 41
0.0375768
  0
VERTEX
  8
0
 10
2.82883
 20
6.54829
 30
0.0
 40
0.0375768
 41
0.0375768
  0
VERTEX
  8
0
 10
2.97358
 20
6.56787
 30
0.0
 40
0.0375768
 41
0.0375768
  0
VERTEX
  8
0
 10
3.02186
 20
6.56787
 30
0.0
 40
0.0375768
 41
0.0375768
  0
VERTEX
  8
0
 10
3.0785
 20
6.56787
 30
0.0
 40
0.0375768
 41
0.0375768
  0
VERTEX
  8
0
 10
3.24849
 20
6.54069
 30
0.0
 40
0.0375768
 41
0.0375768
  0
VERTEX
  8
0
 10
3.45568
 20
6.46338
 30
0.0
 40
0.0375768
 41
0.0375768
  0
VERTEX
  8
0
 10
3.6371
 20
6.34233
 30
0.0
 40
0.0375768
 41
0.0375768
  0
VERTEX
  8
0
 10
3.75401
 20
6.22726
 30
0.0
 40
0.0375768
 41
0.0375768
  0
VERTEX
  8
0
 10
3.78646
 20
6.18397
 30
0.0
 40
0.0375768
 41
0.0375768
  0
SEQEND
 8
0
  0
POLYLINE
  8
0
 62
     7
 66
     1
 10
0
 20
0
 30
0.0
 40
2.70553
 41
2.70553
  0
VERTEX
  8
0
 10
3.91749
 20
5.94532
 30
0.0
 40
0.0375768
 41
0.0375768
  0
VERTEX
  8
0
 10
3.92751
 20
5.91868
 30
0.0
 40
0.0375768
 41
0.0375768
  0
VERTEX
  8
0
 10
3.9636
 20
5.77924
 30
0.0
 40
0.0375768
 41
0.0375768
  0
VERTEX
  8
0
 10
3.97965
 20
5.64665
 30
0.0
 40
0.0375768
 41
0.0375768
  0
VERTEX
  8
0
 10
3.97965
 20
5.60243
 30
0.0
 40
0.0375768
 41
0.0375768
  0
VERTEX
  8
0
 10
3.97965
 20
5.55382
 30
0.0
 40
0.0375768
 41
0.0375768
  0
VERTEX
  8
0
 10
3.96018
 20
5.40788
 30
0.0
 40
0.0375768
 41
0.0375768
  0
VERTEX
  8
0
 10
3.90435
 20
5.22667
 30
0.0
 40
0.0375768
 41
0.0375768
  0
VERTEX
  8
0
 10
3.81603
 20
5.06267
 30
0.0
 40
0.0375768
 41
0.0375768
  0
VERTEX
  8
0
 10
3.69911
 20
4.91976
 30
0.0
 40
0.0375768
 41
0.0375768
  0
VERTEX
  8
0
 10
3.55735
 20
4.80186
 30
0.0
 40
0.0375768
 41
0.0375768
  0
VERTEX
  8
0
 10
3.39464
 20
4.71283
 30
0.0
 40
0.0375768
 41
0.0375768
  0
VERTEX
  8
0
 10
3.21485
 20
4.65657
 30
0.0
 40
0.0375768
 41
0.0375768
  0
VERTEX
  8
0
 10
3.0701
 20
4.63693
 30
0.0
 40
0.0375768
 41
0.0375768
  0
VERTEX
  8
0
 10
3.02186
 20
4.63693
 30
0.0
 40
0.0375768
 41
0.0375768
  0
VERTEX
  8
0
 10
2.97358
 20
4.63693
 30
0.0
 40
0.0375768
 41
0.0375768
  0
VERTEX
  8
0
 10
2.82883
 20
4.65657
 30
0.0
 40
0.0375768
 41
0.0375768
  0
VERTEX
  8
0
 10
2.64903
 20
4.71283
 30
0.0
 40
0.0375768
 41
0.0375768
  0
VERTEX
  8
0
 10
2.48639
 20
4.80186
 30
0.0
 40
0.0375768
 41
0.0375768
  0
VERTEX
  8
0
 10
2.34463
 20
4.91976
 30
0.0
 40
0.0375768
 41
0.0375768
  0
VERTEX
  8
0
 10
2.22765
 20
5.06267
 30
0.0
 40
0.0375768
 41
0.0375768
  0
VERTEX
  8
0
 10
2.13938
 20
5.22667
 30
0.0
 40
0.0375768
 41
0.0375768
  0
VERTEX
  8
0
 10
2.08356
 20
5.40788
 30
0.0
 40
0.0375768
 41
0.0375768
  0
VERTEX
  8
0
 10
2.06413
 20
5.55382
 30
0.0
 40
0.0375768
 41
0.0375768
  0
VERTEX
  8
0
 10
2.06413
 20
5.60243
 30
0.0
 40
0.0375768
 41
0.0375768
  0
VERTEX
  8
0
 10
2.06413
 20
5.64708
 30
0.0
 40
0.0375768
 41
0.0375768
  0
VERTEX
  8
0
 10
2.07764
 20
5.78093
 30
0.0
 40
0.0375768
 41
0.0375768
  0
VERTEX
  8
0
 10
2.11317
 20
5.91976
 30
0.0
 40
0.0375768
 41
0.0375768
  0
VERTEX
  8
0
 10
2.12418
 20
5.94749
 30
0.0
 40
0.0375768
 41
0.0375768
  0
SEQEND
 8
0
  0
POLYLINE
  8
0
 62
     7
 66
     1
 10
0
 20
0
 30
0.0
 70
     1
 40
0
 41
0
  0
VERTEX
  8
0
 10
3.3655
 20
4.84131
 30
0.0
 40
0
 41
0
  0
VERTEX
  8
0
 10
3.36089
 20
4.83903
 30
0.0
 40
0
 41
0
  0
VERTEX
  8
0
 10
3.33197
 20
4.81787
 30
0.0
 40
0
 41
0
  0
VERTEX
  8
0
 10
3.33078
 20
4.81597
 30
0.0
 40
0
 41
0
  0
VERTEX
  8
0
 10
3.32954
 20
4.81407
 30
0.0
 40
0
 41
0
  0
VERTEX
  8
0
 10
3.33003
 20
4.79249
 30
0.0
 40
0
 41
0
  0
VERTEX
  8
0
 10
3.33132
 20
4.79004
 30
0.0
 40
0
 41
0
  0
VERTEX
  8
0
 10
3.33236
 20
4.78814
 30
0.0
 40
0
 41
0
  0
VERTEX
  8
0
 10
3.34722
 20
4.7761
 30
0.0
 40
0
 41
0
  0
VERTEX
  8
0
 10
3.34918
 20
4.77561
 30
0.0
 40
0
 41
0
  0
VERTEX
  8
0
 10
3.35107
 20
4.77518
 30
0.0
 40
0
 41
0
  0
VERTEX
  8
0
 10
3.37218
 20
4.77875
 30
0.0
 40
0
 41
0
  0
VERTEX
  8
0
 10
3.37446
 20
4.77989
 30
0.0
 40
0
 41
0
  0
VERTEX
  8
0
 10
3.37756
 20
4.78153
 30
0.0
 40
0
 41
0
  0
VERTEX
  8
0
 10
3.39686
 20
4.80485
 30
0.0
 40
0
 41
0
  0
VERTEX
  8
0
 10
3.39762
 20
4.80794
 30
0.0
 40
0
 41
0
  0
VERTEX
  8
0
 10
3.39833
 20
4.81108
 30
0.0
 40
0
 41
0
  0
VERTEX
  8
0
 10
3.39253
 20
4.84435
 30
0.0
 40
0
 41
0
  0
VERTEX
  8
0
 10
3.39063
 20
4.84787
 30
0.0
 40
0
 41
0
  0
VERTEX
  8
0
 10
3.38797
 20
4.85275
 30
0.0
 40
0
 41
0
  0
VERTEX
  8
0
 10
3.3655
 20
4.84131
 30
0.0
 40
0
 41
0
  0
SEQEND
 8
0
  0
POLYLINE
  8
0
 62
     7
 66
     1
 10
0
 20
0
 30
0.0
 70
     1
 40
0
 41
0
  0
VERTEX
  8
0
 10
3.40571
 20
4.87321
 30
0.0
 40
0
 41
0
  0
VERTEX
  8
0
 10
3.44656
 20
4.79769
 30
0.0
 40
0
 41
0
  0
VERTEX
  8
0
 10
3.42393
 20
4.78624
 30
0.0
 40
0
 41
0
  0
VERTEX
  8
0
 10
3.41308
 20
4.80632
 30
0.0
 40
0
 41
0
  0
VERTEX
  8
0
 10
3.41288
 20
4.80365
 30
0.0
 40
0
 41
0
  0
VERTEX
  8
0
 10
3.40483
 20
4.7806
 30
0.0
 40
0
 41
0
  0
VERTEX
  8
0
 10
3.40349
 20
4.77865
 30
0.0
 40
0
 41
0
  0
VERTEX
  8
0
 10
3.40201
 20
4.77675
 30
0.0
 40
0
 41
0
  0
VERTEX
  8
0
 10
3.38103
 20
4.76004
 30
0.0
 40
0
 41
0
  0
VERTEX
  8
0
 10
3.37825
 20
4.75863
 30
0.0
 40
0
 41
0
  0
VERTEX
  8
0
 10
3.37472
 20
4.75683
 30
0.0
 40
0
 41
0
  0
VERTEX
  8
0
 10
3.34153
 20
4.75201
 30
0.0
 40
0
 41
0
  0
VERTEX
  8
0
 10
3.33843
 20
4.75282
 30
0.0
 40
0
 41
0
  0
VERTEX
  8
0
 10
3.33535
 20
4.75369
 30
0.0
 40
0
 41
0
  0
VERTEX
  8
0
 10
3.31119
 20
4.77399
 30
0.0
 40
0
 41
0
  0
VERTEX
  8
0
 10
3.30951
 20
4.77713
 30
0.0
 40
0
 41
0
  0
VERTEX
  8
0
 10
3.30746
 20
4.78087
 30
0.0
 40
0
 41
0
  0
VERTEX
  8
0
 10
3.30518
 20
4.81549
 30
0.0
 40
0
 41
0
  0
VERTEX
  8
0
 10
3.30675
 20
4.81868
 30
0.0
 40
0
 41
0
  0
VERTEX
  8
0
 10
3.30832
 20
4.82194
 30
0.0
 40
0
 41
0
  0
VERTEX
  8
0
 10
3.3419
 20
4.85101
 30
0.0
 40
0
 41
0
  0
VERTEX
  8
0
 10
3.34706
 20
4.85363
 30
0.0
 40
0
 41
0
  0
VERTEX
  8
0
 10
3.37879
 20
4.86974
 30
0.0
 40
0
 41
0
  0
VERTEX
  8
0
 10
3.37761
 20
4.87185
 30
0.0
 40
0
 41
0
  0
VERTEX
  8
0
 10
3.37625
 20
4.8744
 30
0.0
 40
0
 41
0
  0
VERTEX
  8
0
 10
3.35721
 20
4.88932
 30
0.0
 40
0
 41
0
  0
VERTEX
  8
0
 10
3.35476
 20
4.88976
 30
0.0
 40
0
 41
0
  0
VERTEX
  8
0
 10
3.35232
 20
4.89031
 30
0.0
 40
0
 41
0
  0
VERTEX
  8
0
 10
3.32465
 20
4.88499
 30
0.0
 40
0
 41
0
  0
VERTEX
  8
0
 10
3.32156
 20
4.8834
 30
0.0
 40
0
 41
0
  0
VERTEX
  8
0
 10
3.31956
 20
4.88243
 30
0.0
 40
0
 41
0
  0
VERTEX
  8
0
 10
3.30165
 20
4.87044
 30
0.0
 40
0
 41
0
  0
VERTEX
  8
0
 10
3.30003
 20
4.86903
 30
0.0
 40
0
 41
0
  0
VERTEX
  8
0
 10
3.29839
 20
4.86768
 30
0.0
 40
0
 41
0
  0
VERTEX
  8
0
 10
3.28413
 20
4.85172
 30
0.0
 40
0
 41
0
  0
VERTEX
  8
0
 10
3.28293
 20
4.84993
 30
0.0
 40
0
 41
0
  0
VERTEX
  8
0
 10
3.27208
 20
4.87001
 30
0.0
 40
0
 41
0
  0
VERTEX
  8
0
 10
3.27371
 20
4.87185
 30
0.0
 40
0
 41
0
  0
VERTEX
  8
0
 10
3.29069
 20
4.88775
 30
0.0
 40
0
 41
0
  0
VERTEX
  8
0
 10
3.29249
 20
4.88911
 30
0.0
 40
0
 41
0
  0
VERTEX
  8
0
 10
3.29417
 20
4.89051
 30
0.0
 40
0
 41
0
  0
VERTEX
  8
0
 10
3.31207
 20
4.90213
 30
0.0
 40
0
 41
0
  0
VERTEX
  8
0
 10
3.31392
 20
4.90306
 30
0.0
 40
0
 41
0
  0
VERTEX
  8
0
 10
3.31885
 20
4.9056
 30
0.0
 40
0
 41
0
  0
VERTEX
  8
0
 10
3.34201
 20
4.9126
 30
0.0
 40
0
 41
0
  0
VERTEX
  8
0
 10
3.36279
 20
4.91211
 30
0.0
 40
0
 41
0
  0
VERTEX
  8
0
 10
3.3666
 20
4.91086
 30
0.0
 40
0
 41
0
  0
VERTEX
  8
0
 10
3.37039
 20
4.90967
 30
0.0
 40
0
 41
0
  0
VERTEX
  8
0
 10
3.38775
 20
4.89779
 30
0.0
 40
0
 41
0
  0
VERTEX
  8
0
 10
3.40294
 20
4.87825
 30
0.0
 40
0
 41
0
  0
VERTEX
  8
0
 10
3.40571
 20
4.87321
 30
0.0
 40
0
 41
0
  0
SEQEND
 8
0
  0
POLYLINE
  8
0
 62
     7
 66
     1
 10
0
 20
0
 30
0.0
 70
     1
 40
0
 41
0
  0
VERTEX
  8
0
 10
3.65483
 20
5.06728
 30
0.0
 40
0
 41
0
  0
VERTEX
  8
0
 10
3.72011
 20
5.0039
 30
0.0
 40
0
 41
0
  0
VERTEX
  8
0
 10
3.70193
 20
4.98622
 30
0.0
 40
0
 41
0
  0
VERTEX
  8
0
 10
3.63726
 20
5.04904
 30
0.0
 40
0
 41
0
  0
VERTEX
  8
0
 10
3.63465
 20
5.05154
 30
0.0
 40
0
 41
0
  0
VERTEX
  8
0
 10
3.61046
 20
5.06521
 30
0.0
 40
0
 41
0
  0
VERTEX
  8
0
 10
3.60818
 20
5.06543
 30
0.0
 40
0
 41
0
  0
VERTEX
  8
0
 10
3.60585
 20
5.06569
 30
0.0
 40
0
 41
0
  0
VERTEX
  8
0
 10
3.58421
 20
5.05697
 30
0.0
 40
0
 41
0
  0
VERTEX
  8
0
 10
3.58219
 20
5.05496
 30
0.0
 40
0
 41
0
  0
VERTEX
  8
0
 10
3.57969
 20
5.05263
 30
0.0
 40
0
 41
0
  0
VERTEX
  8
0
 10
3.56803
 20
5.02642
 30
0.0
 40
0
 41
0
  0
VERTEX
  8
0
 10
3.56819
 20
5.02354
 30
0.0
 40
0
 41
0
  0
VERTEX
  8
0
 10
3.56831
 20
5.02072
 30
0.0
 40
0
 41
0
  0
VERTEX
  8
0
 10
3.58203
 20
4.9936
 30
0.0
 40
0
 41
0
  0
VERTEX
  8
0
 10
3.58469
 20
4.991
 30
0.0
 40
0
 41
0
  0
VERTEX
  8
0
 10
3.64583
 20
4.93164
 30
0.0
 40
0
 41
0
  0
VERTEX
  8
0
 10
3.62756
 20
4.9139
 30
0.0
 40
0
 41
0
  0
VERTEX
  8
0
 10
3.47732
 20
5.05979
 30
0.0
 40
0
 41
0
  0
VERTEX
  8
0
 10
3.49556
 20
5.07753
 30
0.0
 40
0
 41
0
  0
VERTEX
  8
0
 10
3.55447
 20
5.02035
 30
0.0
 40
0
 41
0
  0
VERTEX
  8
0
 10
3.55393
 20
5.023
 30
0.0
 40
0
 41
0
  0
VERTEX
  8
0
 10
3.55453
 20
5.04719
 30
0.0
 40
0
 41
0
  0
VERTEX
  8
0
 10
3.55518
 20
5.04937
 30
0.0
 40
0
 41
0
  0
VERTEX
  8
0
 10
3.55583
 20
5.0516
 30
0.0
 40
0
 41
0
  0
VERTEX
  8
0
 10
3.56885
 20
5.07206
 30
0.0
 40
0
 41
0
  0
VERTEX
  8
0
 10
3.57081
 20
5.07389
 30
0.0
 40
0
 41
0
  0
VERTEX
  8
0
 10
3.57394
 20
5.07699
 30
0.0
 40
0
 41
0
  0
VERTEX
  8
0
 10
3.60758
 20
5.09099
 30
0.0
 40
0
 41
0
  0
VERTEX
  8
0
 10
3.61117
 20
5.09065
 30
0.0
 40
0
 41
0
  0
VERTEX
  8
0
 10
3.61469
 20
5.09039
 30
0.0
 40
0
 41
0
  0
VERTEX
  8
0
 10
3.6511
 20
5.0709
 30
0.0
 40
0
 41
0
  0
VERTEX
  8
0
 10
3.65483
 20
5.06728
 30
0.0
 40
0
 41
0
  0
SEQEND
 8
0
  0
POLYLINE
  8
0
 62
     7
 66
     1
 10
0
 20
0
 30
0.0
 70
     1
 40
0
 41
0
  0
VERTEX
  8
0
 10
3.47803
 20
5.00168
 30
0.0
 40
0
 41
0
  0
VERTEX
  8
0
 10
3.49388
 20
4.98421
 30
0.0
 40
0
 41
0
  0
VERTEX
  8
0
 10
3.49192
 20
4.98378
 30
0.0
 40
0
 41
0
  0
VERTEX
  8
0
 10
3.47325
 20
4.97683
 30
0.0
 40
0
 41
0
  0
VERTEX
  8
0
 10
3.47151
 20
4.97592
 30
0.0
 40
0
 41
0
  0
VERTEX
  8
0
 10
3.46972
 20
4.97504
 30
0.0
 40
0
 41
0
  0
VERTEX
  8
0
 10
3.45307
 20
4.96392
 30
0.0
 40
0
 41
0
  0
VERTEX
  8
0
 10
3.45156
 20
4.96257
 30
0.0
 40
0
 41
0
  0
VERTEX
  8
0
 10
3.44917
 20
4.96056
 30
0.0
 40
0
 41
0
  0
VERTEX
  8
0
 10
3.4344
 20
4.94189
 30
0.0
 40
0
 41
0
  0
VERTEX
  8
0
 10
3.43386
 20
4.94015
 30
0.0
 40
0
 41
0
  0
VERTEX
  8
0
 10
3.43332
 20
4.93847
 30
0.0
 40
0
 41
0
  0
VERTEX
  8
0
 10
3.43696
 20
4.9229
 30
0.0
 40
0
 41
0
  0
VERTEX
  8
0
 10
3.43826
 20
4.9215
 30
0.0
 40
0
 41
0
  0
VERTEX
  8
0
 10
3.43924
 20
4.92046
 30
0.0
 40
0
 41
0
  0
VERTEX
  8
0
 10
3.45111
 20
4.91564
 30
0.0
 40
0
 41
0
  0
VERTEX
  8
0
 10
3.45258
 20
4.91575
 30
0.0
 40
0
 41
0
  0
VERTEX
  8
0
 10
3.45394
 20
4.91585
 30
0.0
 40
0
 41
0
  0
VERTEX
  8
0
 10
3.47635
 20
4.92458
 30
0.0
 40
0
 41
0
  0
VERTEX
  8
0
 10
3.47944
 20
4.92622
 30
0.0
 40
0
 41
0
  0
VERTEX
  8
0
 10
3.48725
 20
4.93033
 30
0.0
 40
0
 41
0
  0
VERTEX
  8
0
 10
3.49126
 20
4.93257
 30
0.0
 40
0
 41
0
  0
VERTEX
  8
0
 10
3.52453
 20
4.94308
 30
0.0
 40
0
 41
0
  0
VERTEX
  8
0
 10
3.52713
 20
4.94299
 30
0.0
 40
0
 41
0
  0
VERTEX
  8
0
 10
3.52968
 20
4.94299
 30
0.0
 40
0
 41
0
  0
VERTEX
  8
0
 10
3.55306
 20
4.93126
 30
0.0
 40
0
 41
0
  0
VERTEX
  8
0
 10
3.55518
 20
4.92899
 30
0.0
 40
0
 41
0
  0
VERTEX
  8
0
 10
3.55751
 20
4.92638
 30
0.0
 40
0
 41
0
  0
VERTEX
  8
0
 10
3.56549
 20
4.8966
 30
0.0
 40
0
 41
0
  0
VERTEX
  8
0
 10
3.56472
 20
4.89324
 30
0.0
 40
0
 41
0
  0
VERTEX
  8
0
 10
3.56396
 20
4.88992
 30
0.0
 40
0
 41
0
  0
VERTEX
  8
0
 10
3.54139
 20
4.85736
 30
0.0
 40
0
 41
0
  0
VERTEX
  8
0
 10
3.53765
 20
4.85417
 30
0.0
 40
0
 41
0
  0
VERTEX
  8
0
 10
3.53608
 20
4.85286
 30
0.0
 40
0
 41
0
  0
VERTEX
  8
0
 10
3.51833
 20
4.84056
 30
0.0
 40
0
 41
0
  0
VERTEX
  8
0
 10
3.51639
 20
4.83936
 30
0.0
 40
0
 41
0
  0
VERTEX
  8
0
 10
3.51443
 20
4.83822
 30
0.0
 40
0
 41
0
  0
VERTEX
  8
0
 10
3.49262
 20
4.82753
 30
0.0
 40
0
 41
0
  0
VERTEX
  8
0
 10
3.49024
 20
4.8265
 30
0.0
 40
0
 41
0
  0
VERTEX
  8
0
 10
3.47293
 20
4.84554
 30
0.0
 40
0
 41
0
  0
VERTEX
  8
0
 10
3.47547
 20
4.84619
 30
0.0
 40
0
 41
0
  0
VERTEX
  8
0
 10
3.49903
 20
4.85428
 30
0.0
 40
0
 41
0
  0
VERTEX
  8
0
 10
3.50119
 20
4.85525
 30
0.0
 40
0
 41
0
  0
VERTEX
  8
0
 10
3.50331
 20
4.85628
 30
0.0
 40
0
 41
0
  0
VERTEX
  8
0
 10
3.52235
 20
4.86854
 30
0.0
 40
0
 41
0
  0
VERTEX
  8
0
 10
3.52403
 20
4.86996
 30
0.0
 40
0
 41
0
  0
VERTEX
  8
0
 10
3.52626
 20
4.8719
 30
0.0
 40
0
 41
0
  0
VERTEX
  8
0
 10
3.54031
 20
4.89031
 30
0.0
 40
0
 41
0
  0
VERTEX
  8
0
 10
3.5409
 20
4.89204
 30
0.0
 40
0
 41
0
  0
VERTEX
  8
0
 10
3.54139
 20
4.89382
 30
0.0
 40
0
 41
0
  0
VERTEX
  8
0
 10
3.53792
 20
4.9095
 30
0.0
 40
0
 41
0
  0
VERTEX
  8
0
 10
3.53674
 20
4.91086
 30
0.0
 40
0
 41
0
  0
VERTEX
  8
0
 10
3.5356
 20
4.91211
 30
0.0
 40
0
 41
0
  0
VERTEX
  8
0
 10
3.5224
 20
4.91803
 30
0.0
 40
0
 41
0
  0
VERTEX
  8
0
 10
3.52094
 20
4.91792
 30
0.0
 40
0
 41
0
  0
VERTEX
  8
0
 10
3.51942
 20
4.91786
 30
0.0
 40
0
 41
0
  0
VERTEX
  8
0
 10
3.49436
 20
4.90799
 30
0.0
 40
0
 41
0
  0
VERTEX
  8
0
 10
3.49083
 20
4.90608
 30
0.0
 40
0
 41
0
  0
VERTEX
  8
0
 10
3.48281
 20
4.90196
 30
0.0
 40
0
 41
0
  0
VERTEX
  8
0
 10
3.47928
 20
4.90007
 30
0.0
 40
0
 41
0
  0
VERTEX
  8
0
 10
3.44943
 20
4.89106
 30
0.0
 40
0
 41
0
  0
VERTEX
  8
0
 10
3.447
 20
4.89117
 30
0.0
 40
0
 41
0
  0
VERTEX
  8
0
 10
3.4445
 20
4.89133
 30
0.0
 40
0
 41
0
  0
VERTEX
  8
0
 10
3.42236
 20
4.90283
 30
0.0
 40
0
 41
0
  0
VERTEX
  8
0
 10
3.42042
 20
4.905
 30
0.0
 40
0
 41
0
  0
VERTEX
  8
0
 10
3.41797
 20
4.90767
 30
0.0
 40
0
 41
0
  0
VERTEX
  8
0
 10
3.40924
 20
4.93631
 30
0.0
 40
0
 41
0
  0
VERTEX
  8
0
 10
3.40989
 20
4.93935
 30
0.0
 40
0
 41
0
  0
VERTEX
  8
0
 10
3.41049
 20
4.94243
 30
0.0
 40
0
 41
0
  0
VERTEX
  8
0
 10
3.43164
 20
4.97304
 30
0.0
 40
0
 41
0
  0
VERTEX
  8
0
 10
3.43522
 20
4.97607
 30
0.0
 40
0
 41
0
  0
VERTEX
  8
0
 10
3.43696
 20
4.9776
 30
0.0
 40
0
 41
0
  0
VERTEX
  8
0
 10
3.45481
 20
4.9905
 30
0.0
 40
0
 41
0
  0
VERTEX
  8
0
 10
3.4566
 20
4.99154
 30
0.0
 40
0
 41
0
  0
VERTEX
  8
0
 10
3.45839
 20
4.99262
 30
0.0
 40
0
 41
0
  0
VERTEX
  8
0
 10
3.47624
 20
5.00108
 30
0.0
 40
0
 41
0
  0
VERTEX
  8
0
 10
3.47803
 20
5.00168
 30
0.0
 40
0
 41
0
  0
SEQEND
 8
0
  0
POLYLINE
  8
0
 62
     7
 66
     1
 10
0
 20
0
 30
0.0
 70
     1
 40
0
 41
0
  0
VERTEX
  8
0
 10
3.74522
 20
5.21218
 30
0.0
 40
0
 41
0
  0
VERTEX
  8
0
 10
3.75504
 20
5.20486
 30
0.0
 40
0
 41
0
  0
VERTEX
  8
0
 10
3.68283
 20
5.11481
 30
0.0
 40
0
 41
0
  0
VERTEX
  8
0
 10
3.68642
 20
5.11247
 30
0.0
 40
0
 41
0
  0
VERTEX
  8
0
 10
3.72086
 20
5.10303
 30
0.0
 40
0
 41
0
  0
VERTEX
  8
0
 10
3.72418
 20
5.10346
 30
0.0
 40
0
 41
0
  0
VERTEX
  8
0
 10
3.72743
 20
5.10394
 30
0.0
 40
0
 41
0
  0
VERTEX
  8
0
 10
3.75672
 20
5.12267
 30
0.0
 40
0
 41
0
  0
VERTEX
  8
0
 10
3.75933
 20
5.12587
 30
0.0
 40
0
 41
0
  0
VERTEX
  8
0
 10
3.76085
 20
5.12776
 30
0.0
 40
0
 41
0
  0
VERTEX
  8
0
 10
3.77306
 20
5.14774
 30
0.0
 40
0
 41
0
  0
VERTEX
  8
0
 10
3.77403
 20
5.14979
 30
0.0
 40
0
 41
0
  0
VERTEX
  8
0
 10
3.77496
 20
5.15196
 30
0.0
 40
0
 41
0
  0
VERTEX
  8
0
 10
3.7819
 20
5.17475
 30
0.0
 40
0
 41
0
  0
VERTEX
  8
0
 10
3.78239
 20
5.17719
 30
0.0
 40
0
 41
0
  0
VERTEX
  8
0
 10
3.80138
 20
5.16308
 30
0.0
 40
0
 41
0
  0
VERTEX
  8
0
 10
3.80072
 20
5.16081
 30
0.0
 40
0
 41
0
  0
VERTEX
  8
0
 10
3.7921
 20
5.13846
 30
0.0
 40
0
 41
0
  0
VERTEX
  8
0
 10
3.79101
 20
5.13629
 30
0.0
 40
0
 41
0
  0
VERTEX
  8
0
 10
3.78993
 20
5.13417
 30
0.0
 40
0
 41
0
  0
VERTEX
  8
0
 10
3.77692
 20
5.11393
 30
0.0
 40
0
 41
0
  0
VERTEX
  8
0
 10
3.77539
 20
5.11203
 30
0.0
 40
0
 41
0
  0
VERTEX
  8
0
 10
3.77154
 20
5.10732
 30
0.0
 40
0
 41
0
  0
VERTEX
  8
0
 10
3.75065
 20
5.08963
 30
0.0
 40
0
 41
0
  0
VERTEX
  8
0
 10
3.72721
 20
5.08014
 30
0.0
 40
0
 41
0
  0
VERTEX
  8
0
 10
3.72217
 20
5.07943
 30
0.0
 40
0
 41
0
  0
VERTEX
  8
0
 10
3.71707
 20
5.07878
 30
0.0
 40
0
 41
0
  0
VERTEX
  8
0
 10
3.66769
 20
5.09347
 30
0.0
 40
0
 41
0
  0
VERTEX
  8
0
 10
3.66287
 20
5.09706
 30
0.0
 40
0
 41
0
  0
VERTEX
  8
0
 10
3.65788
 20
5.10081
 30
0.0
 40
0
 41
0
  0
VERTEX
  8
0
 10
3.63917
 20
5.12099
 30
0.0
 40
0
 41
0
  0
VERTEX
  8
0
 10
3.62885
 20
5.14333
 30
0.0
 40
0
 41
0
  0
VERTEX
  8
0
 10
3.62804
 20
5.14811
 30
0.0
 40
0
 41
0
  0
VERTEX
  8
0
 10
3.62717
 20
5.15294
 30
0.0
 40
0
 41
0
  0
VERTEX
  8
0
 10
3.62967
 20
5.1766
 30
0.0
 40
0
 41
0
  0
VERTEX
  8
0
 10
3.641
 20
5.19949
 30
0.0
 40
0
 41
0
  0
VERTEX
  8
0
 10
3.64458
 20
5.20394
 30
0.0
 40
0
 41
0
  0
VERTEX
  8
0
 10
3.64779
 20
5.20796
 30
0.0
 40
0
 41
0
  0
VERTEX
  8
0
 10
3.66581
 20
5.22254
 30
0.0
 40
0
 41
0
  0
VERTEX
  8
0
 10
3.68642
 20
5.22982
 30
0.0
 40
0
 41
0
  0
VERTEX
  8
0
 10
3.69097
 20
5.23014
 30
0.0
 40
0
 41
0
  0
VERTEX
  8
0
 10
3.69547
 20
5.23053
 30
0.0
 40
0
 41
0
  0
VERTEX
  8
0
 10
3.74067
 20
5.2156
 30
0.0
 40
0
 41
0
  0
VERTEX
  8
0
 10
3.74522
 20
5.21218
 30
0.0
 40
0
 41
0
  0
SEQEND
 8
0
  0
POLYLINE
  8
0
 62
     7
 66
     1
 10
0
 20
0
 30
0.0
 70
     1
 40
0
 41
0
  0
VERTEX
  8
0
 10
3.72364
 20
5.19694
 30
0.0
 40
0
 41
0
  0
VERTEX
  8
0
 10
3.72086
 20
5.19894
 30
0.0
 40
0
 41
0
  0
VERTEX
  8
0
 10
3.69293
 20
5.20768
 30
0.0
 40
0
 41
0
  0
VERTEX
  8
0
 10
3.69015
 20
5.20742
 30
0.0
 40
0
 41
0
  0
VERTEX
  8
0
 10
3.68733
 20
5.20719
 30
0.0
 40
0
 41
0
  0
VERTEX
  8
0
 10
3.66363
 20
5.19396
 30
0.0
 40
0
 41
0
  0
VERTEX
  8
0
 10
3.66174
 20
5.19151
 30
0.0
 40
0
 41
0
  0
VERTEX
  8
0
 10
3.6595
 20
5.18881
 30
0.0
 40
0
 41
0
  0
VERTEX
  8
0
 10
3.6499
 20
5.16103
 30
0.0
 40
0
 41
0
  0
VERTEX
  8
0
 10
3.65018
 20
5.15815
 30
0.0
 40
0
 41
0
  0
VERTEX
  8
0
 10
3.65044
 20
5.15539
 30
0.0
 40
0
 41
0
  0
VERTEX
  8
0
 10
3.6651
 20
5.12939
 30
0.0
 40
0
 41
0
  0
VERTEX
  8
0
 10
3.66781
 20
5.12701
 30
0.0
 40
0
 41
0
  0
VERTEX
  8
0
 10
3.72364
 20
5.19694
 30
0.0
 40
0
 41
0
  0
SEQEND
 8
0
  0
POLYLINE
  8
0
 62
     7
 66
     1
 10
0
 20
0
 30
0.0
 70
     1
 40
0
 41
0
  0
VERTEX
  8
0
 10
3.74333
 20
5.36301
 30
0.0
 40
0
 41
0
  0
VERTEX
  8
0
 10
3.76426
 20
5.35183
 30
0.0
 40
0
 41
0
  0
VERTEX
  8
0
 10
3.76253
 20
5.35075
 30
0.0
 40
0
 41
0
  0
VERTEX
  8
0
 10
3.74735
 20
5.33817
 30
0.0
 40
0
 41
0
  0
VERTEX
  8
0
 10
3.74599
 20
5.33669
 30
0.0
 40
0
 41
0
  0
VERTEX
  8
0
 10
3.74463
 20
5.33529
 30
0.0
 40
0
 41
0
  0
VERTEX
  8
0
 10
3.73269
 20
5.31933
 30
0.0
 40
0
 41
0
  0
VERTEX
  8
0
 10
3.73167
 20
5.31754
 30
0.0
 40
0
 41
0
  0
VERTEX
  8
0
 10
3.73008
 20
5.31489
 30
0.0
 40
0
 41
0
  0
VERTEX
  8
0
 10
3.7226
 20
5.29254
 30
0.0
 40
0
 41
0
  0
VERTEX
  8
0
 10
3.72265
 20
5.29069
 30
0.0
 40
0
 41
0
  0
VERTEX
  8
0
 10
3.72271
 20
5.28896
 30
0.0
 40
0
 41
0
  0
VERTEX
  8
0
 10
3.7315
 20
5.27556
 30
0.0
 40
0
 41
0
  0
VERTEX
  8
0
 10
3.73318
 20
5.27463
 30
0.0
 40
0
 41
0
  0
VERTEX
  8
0
 10
3.73443
 20
5.27399
 30
0.0
 40
0
 41
0
  0
VERTEX
  8
0
 10
3.7474
 20
5.27333
 30
0.0
 40
0
 41
0
  0
VERTEX
  8
0
 10
3.74869
 20
5.27387
 30
0.0
 40
0
 41
0
  0
VERTEX
  8
0
 10
3.74994
 20
5.27447
 30
0.0
 40
0
 41
0
  0
VERTEX
  8
0
 10
3.76807
 20
5.28999
 30
0.0
 40
0
 41
0
  0
VERTEX
  8
0
 10
3.77046
 20
5.29254
 30
0.0
 40
0
 41
0
  0
VERTEX
  8
0
 10
3.77642
 20
5.29899
 30
0.0
 40
0
 41
0
  0
VERTEX
  8
0
 10
3.77946
 20
5.3024
 30
0.0
 40
0
 41
0
  0
VERTEX
  8
0
 10
3.80724
 20
5.32319
 30
0.0
 40
0
 41
0
  0
VERTEX
  8
0
 10
3.80974
 20
5.32394
 30
0.0
 40
0
 41
0
  0
VERTEX
  8
0
 10
3.81218
 20
5.32476
 30
0.0
 40
0
 41
0
  0
VERTEX
  8
0
 10
3.83826
 20
5.32146
 30
0.0
 40
0
 41
0
  0
VERTEX
  8
0
 10
3.84104
 20
5.31993
 30
0.0
 40
0
 41
0
  0
VERTEX
  8
0
 10
3.84413
 20
5.31831
 30
0.0
 40
0
 41
0
  0
VERTEX
  8
0
 10
3.86187
 20
5.29292
 30
0.0
 40
0
 41
0
  0
VERTEX
  8
0
 10
3.86231
 20
5.2895
 30
0.0
 40
0
 41
0
  0
VERTEX
  8
0
 10
3.86268
 20
5.28614
 30
0.0
 40
0
 41
0
  0
VERTEX
  8
0
 10
3.85254
 20
5.2481
 30
0.0
 40
0
 41
0
  0
VERTEX
  8
0
 10
3.8501
 20
5.24387
 30
0.0
 40
0
 41
0
  0
VERTEX
  8
0
 10
3.84907
 20
5.24214
 30
0.0
 40
0
 41
0
  0
VERTEX
  8
0
 10
3.83653
 20
5.22472
 30
0.0
 40
0
 41
0
  0
VERTEX
  8
0
 10
3.83507
 20
5.22299
 30
0.0
 40
0
 41
0
  0
VERTEX
  8
0
 10
3.83361
 20
5.22131
 30
0.0
 40
0
 41
0
  0
VERTEX
  8
0
 10
3.81674
 20
5.20404
 30
0.0
 40
0
 41
0
  0
VERTEX
  8
0
 10
3.81483
 20
5.20231
 30
0.0
 40
0
 41
0
  0
VERTEX
  8
0
 10
3.79194
 20
5.21451
 30
0.0
 40
0
 41
0
  0
VERTEX
  8
0
 10
3.79417
 20
5.21599
 30
0.0
 40
0
 41
0
  0
VERTEX
  8
0
 10
3.81364
 20
5.23133
 30
0.0
 40
0
 41
0
  0
VERTEX
  8
0
 10
3.81532
 20
5.23296
 30
0.0
 40
0
 41
0
  0
VERTEX
  8
0
 10
3.81694
 20
5.23465
 30
0.0
 40
0
 41
0
  0
VERTEX
  8
0
 10
3.83068
 20
5.25239
 30
0.0
 40
0
 41
0
  0
VERTEX
  8
0
 10
3.83182
 20
5.25429
 30
0.0
 40
0
 41
0
  0
VERTEX
  8
0
 10
3.83328
 20
5.25683
 30
0.0
 40
0
 41
0
  0
VERTEX
  8
0
 10
3.84022
 20
5.27875
 30
0.0
 40
0
 41
0
  0
VERTEX
  8
0
 10
3.84017
 20
5.28054
 30
0.0
 40
0
 41
0
  0
VERTEX
  8
0
 10
3.84006
 20
5.28244
 30
0.0
 40
0
 41
0
  0
VERTEX
  8
0
 10
3.83143
 20
5.29601
 30
0.0
 40
0
 41
0
  0
VERTEX
  8
0
 10
3.82981
 20
5.29688
 30
0.0
 40
0
 41
0
  0
VERTEX
  8
0
 10
3.82829
 20
5.29769
 30
0.0
 40
0
 41
0
  0
VERTEX
  8
0
 10
3.81386
 20
5.29889
 30
0.0
 40
0
 41
0
  0
VERTEX
  8
0
 10
3.8125
 20
5.29829
 30
0.0
 40
0
 41
0
  0
VERTEX
  8
0
 10
3.81108
 20
5.29775
 30
0.0
 40
0
 41
0
  0
VERTEX
  8
0
 10
3.79081
 20
5.28033
 30
0.0
 40
0
 41
0
  0
VERTEX
  8
0
 10
3.78814
 20
5.27735
 30
0.0
 40
0
 41
0
  0
VERTEX
  8
0
 10
3.78196
 20
5.27083
 30
0.0
 40
0
 41
0
  0
VERTEX
  8
0
 10
3.77924
 20
5.2679
 30
0.0
 40
0
 41
0
  0
VERTEX
  8
0
 10
3.75418
 20
5.24962
 30
0.0
 40
0
 41
0
  0
VERTEX
  8
0
 10
3.75185
 20
5.24892
 30
0.0
 40
0
 41
0
  0
VERTEX
  8
0
 10
3.74946
 20
5.24826
 30
0.0
 40
0
 41
0
  0
VERTEX
  8
0
 10
3.72461
 20
5.25185
 30
0.0
 40
0
 41
0
  0
VERTEX
  8
0
 10
3.722
 20
5.25319
 30
0.0
 40
0
 41
0
  0
VERTEX
  8
0
 10
3.71881
 20
5.25493
 30
0.0
 40
0
 41
0
  0
VERTEX
  8
0
 10
3.70068
 20
5.27897
 30
0.0
 40
0
 41
0
  0
VERTEX
  8
0
 10
3.70025
 20
5.28207
 30
0.0
 40
0
 41
0
  0
VERTEX
  8
0
 10
3.69976
 20
5.28521
 30
0.0
 40
0
 41
0
  0
VERTEX
  8
0
 10
3.70925
 20
5.3209
 30
0.0
 40
0
 41
0
  0
VERTEX
  8
0
 10
3.71164
 20
5.32493
 30
0.0
 40
0
 41
0
  0
VERTEX
  8
0
 10
3.71278
 20
5.32693
 30
0.0
 40
0
 41
0
  0
VERTEX
  8
0
 10
3.72521
 20
5.34489
 30
0.0
 40
0
 41
0
  0
VERTEX
  8
0
 10
3.72657
 20
5.34646
 30
0.0
 40
0
 41
0
  0
VERTEX
  8
0
 10
3.72786
 20
5.3481
 30
0.0
 40
0
 41
0
  0
VERTEX
  8
0
 10
3.74181
 20
5.36187
 30
0.0
 40
0
 41
0
  0
VERTEX
  8
0
 10
3.74333
 20
5.36301
 30
0.0
 40
0
 41
0
  0
SEQEND
 8
0
  0
POLYLINE
  8
0
 62
     7
 66
     1
 10
0
 20
0
 30
0.0
 70
     1
 40
0
 41
0
  0
VERTEX
  8
0
 10
2.42768
 20
5.24094
 30
0.0
 40
0
 41
0
  0
VERTEX
  8
0
 10
2.41092
 20
5.22857
 30
0.0
 40
0
 41
0
  0
VERTEX
  8
0
 10
2.39606
 20
5.24729
 30
0.0
 40
0
 41
0
  0
VERTEX
  8
0
 10
2.39464
 20
5.24908
 30
0.0
 40
0
 41
0
  0
VERTEX
  8
0
 10
2.38124
 20
5.25857
 30
0.0
 40
0
 41
0
  0
VERTEX
  8
0
 10
2.37999
 20
5.25874
 30
0.0
 40
0
 41
0
  0
VERTEX
  8
0
 10
2.37869
 20
5.2589
 30
0.0
 40
0
 41
0
  0
VERTEX
  8
0
 10
2.3629
 20
5.2525
 30
0.0
 40
0
 41
0
  0
VERTEX
  8
0
 10
2.361
 20
5.25108
 30
0.0
 40
0
 41
0
  0
VERTEX
  8
0
 10
2.35015
 20
5.24306
 30
0.0
 40
0
 41
0
  0
VERTEX
  8
0
 10
2.37576
 20
5.21083
 30
0.0
 40
0
 41
0
  0
VERTEX
  8
0
 10
2.36008
 20
5.19922
 30
0.0
 40
0
 41
0
  0
VERTEX
  8
0
 10
2.33447
 20
5.2315
 30
0.0
 40
0
 41
0
  0
VERTEX
  8
0
 10
2.22743
 20
5.15229
 30
0.0
 40
0
 41
0
  0
VERTEX
  8
0
 10
2.21181
 20
5.17199
 30
0.0
 40
0
 41
0
  0
VERTEX
  8
0
 10
2.31885
 20
5.25114
 30
0.0
 40
0
 41
0
  0
VERTEX
  8
0
 10
2.30393
 20
5.26992
 30
0.0
 40
0
 41
0
  0
VERTEX
  8
0
 10
2.31961
 20
5.28147
 30
0.0
 40
0
 41
0
  0
VERTEX
  8
0
 10
2.33453
 20
5.26275
 30
0.0
 40
0
 41
0
  0
VERTEX
  8
0
 10
2.34304
 20
5.26904
 30
0.0
 40
0
 41
0
  0
VERTEX
  8
0
 10
2.34646
 20
5.2716
 30
0.0
 40
0
 41
0
  0
VERTEX
  8
0
 10
2.37739
 20
5.28228
 30
0.0
 40
0
 41
0
  0
VERTEX
  8
0
 10
2.38021
 20
5.28185
 30
0.0
 40
0
 41
0
  0
VERTEX
  8
0
 10
2.38297
 20
5.28147
 30
0.0
 40
0
 41
0
  0
VERTEX
  8
0
 10
2.41032
 20
5.26281
 30
0.0
 40
0
 41
0
  0
VERTEX
  8
0
 10
2.41297
 20
5.25944
 30
0.0
 40
0
 41
0
  0
VERTEX
  8
0
 10
2.42768
 20
5.24094
 30
0.0
 40
0
 41
0
  0
SEQEND
 8
0
  0
POLYLINE
  8
0
 62
     7
 66
     1
 10
0
 20
0
 30
0.0
 70
     1
 40
0
 41
0
  0
VERTEX
  8
0
 10
2.43787
 20
5.09185
 30
0.0
 40
0
 41
0
  0
VERTEX
  8
0
 10
2.43778
 20
5.09267
 30
0.0
 40
0
 41
0
  0
VERTEX
  8
0
 10
2.43533
 20
5.10042
 30
0.0
 40
0
 41
0
  0
VERTEX
  8
0
 10
2.43494
 20
5.10118
 30
0.0
 40
0
 41
0
  0
VERTEX
  8
0
 10
2.43457
 20
5.10194
 30
0.0
 40
0
 41
0
  0
VERTEX
  8
0
 10
2.42979
 20
5.10965
 30
0.0
 40
0
 41
0
  0
VERTEX
  8
0
 10
2.42919
 20
5.1104
 30
0.0
 40
0
 41
0
  0
VERTEX
  8
0
 10
2.42697
 20
5.11317
 30
0.0
 40
0
 41
0
  0
VERTEX
  8
0
 10
2.40076
 20
5.12761
 30
0.0
 40
0
 41
0
  0
VERTEX
  8
0
 10
2.39774
 20
5.12771
 30
0.0
 40
0
 41
0
  0
VERTEX
  8
0
 10
2.39469
 20
5.12782
 30
0.0
 40
0
 41
0
  0
VERTEX
  8
0
 10
2.36231
 20
5.11556
 30
0.0
 40
0
 41
0
  0
VERTEX
  8
0
 10
2.35883
 20
5.11296
 30
0.0
 40
0
 41
0
  0
VERTEX
  8
0
 10
2.29417
 20
5.06521
 30
0.0
 40
0
 41
0
  0
VERTEX
  8
0
 10
2.27849
 20
5.0849
 30
0.0
 40
0
 41
0
  0
VERTEX
  8
0
 10
2.40132
 20
5.17557
 30
0.0
 40
0
 41
0
  0
VERTEX
  8
0
 10
2.41694
 20
5.15587
 30
0.0
 40
0
 41
0
  0
VERTEX
  8
0
 10
2.39785
 20
5.14182
 30
0.0
 40
0
 41
0
  0
VERTEX
  8
0
 10
2.4005
 20
5.14219
 30
0.0
 40
0
 41
0
  0
VERTEX
  8
0
 10
2.42492
 20
5.139
 30
0.0
 40
0
 41
0
  0
VERTEX
  8
0
 10
2.42714
 20
5.13797
 30
0.0
 40
0
 41
0
  0
VERTEX
  8
0
 10
2.42936
 20
5.13699
 30
0.0
 40
0
 41
0
  0
VERTEX
  8
0
 10
2.44982
 20
5.12033
 30
0.0
 40
0
 41
0
  0
VERTEX
  8
0
 10
2.45171
 20
5.11794
 30
0.0
 40
0
 41
0
  0
VERTEX
  8
0
 10
2.45199
 20
5.11762
 30
0.0
 40
0
 41
0
  0
VERTEX
  8
0
 10
2.45469
 20
5.11372
 30
0.0
 40
0
 41
0
  0
VERTEX
  8
0
 10
2.45497
 20
5.11322
 30
0.0
 40
0
 41
0
  0
VERTEX
  8
0
 10
2.45524
 20
5.11279
 30
0.0
 40
0
 41
0
  0
VERTEX
  8
0
 10
2.45817
 20
5.10786
 30
0.0
 40
0
 41
0
  0
VERTEX
  8
0
 10
2.4585
 20
5.10726
 30
0.0
 40
0
 41
0
  0
VERTEX
  8
0
 10
2.43787
 20
5.09185
 30
0.0
 40
0
 41
0
  0
SEQEND
 8
0
  0
POLYLINE
  8
0
 62
     7
 66
     1
 10
0
 20
0
 30
0.0
 70
     1
 40
0
 41
0
  0
VERTEX
  8
0
 10
2.52056
 20
5.03689
 30
0.0
 40
0
 41
0
  0
VERTEX
  8
0
 10
2.51801
 20
5.03911
 30
0.0
 40
0
 41
0
  0
VERTEX
  8
0
 10
2.48899
 20
5.04704
 30
0.0
 40
0
 41
0
  0
VERTEX
  8
0
 10
2.48574
 20
5.04639
 30
0.0
 40
0
 41
0
  0
VERTEX
  8
0
 10
2.48247
 20
5.04579
 30
0.0
 40
0
 41
0
  0
VERTEX
  8
0
 10
2.45079
 20
5.02615
 30
0.0
 40
0
 41
0
  0
VERTEX
  8
0
 10
2.44769
 20
5.02279
 30
0.0
 40
0
 41
0
  0
VERTEX
  8
0
 10
2.44461
 20
5.01947
 30
0.0
 40
0
 41
0
  0
VERTEX
  8
0
 10
2.42757
 20
4.98687
 30
0.0
 40
0
 41
0
  0
VERTEX
  8
0
 10
2.42725
 20
4.98367
 30
0.0
 40
0
 41
0
  0
VERTEX
  8
0
 10
2.42692
 20
4.98053
 30
0.0
 40
0
 41
0
  0
VERTEX
  8
0
 10
2.43832
 20
4.95344
 30
0.0
 40
0
 41
0
  0
VERTEX
  8
0
 10
2.44092
 20
4.95122
 30
0.0
 40
0
 41
0
  0
VERTEX
  8
0
 10
2.44342
 20
4.94906
 30
0.0
 40
0
 41
0
  0
VERTEX
  8
0
 10
2.47239
 20
4.94119
 30
0.0
 40
0
 41
0
  0
VERTEX
  8
0
 10
2.47564
 20
4.94179
 30
0.0
 40
0
 41
0
  0
VERTEX
  8
0
 10
2.47889
 20
4.94243
 30
0.0
 40
0
 41
0
  0
VERTEX
  8
0
 10
2.51058
 20
4.96213
 30
0.0
 40
0
 41
0
  0
VERTEX
  8
0
 10
2.51367
 20
4.96544
 30
0.0
 40
0
 41
0
  0
VERTEX
  8
0
 10
2.51671
 20
4.96875
 30
0.0
 40
0
 41
0
  0
VERTEX
  8
0
 10
2.53353
 20
5.00119
 30
0.0
 40
0
 41
0
  0
VERTEX
  8
0
 10
2.53386
 20
5.00439
 30
0.0
 40
0
 41
0
  0
VERTEX
  8
0
 10
2.53413
 20
5.00765
 30
0.0
 40
0
 41
0
  0
VERTEX
  8
0
 10
2.52306
 20
5.03472
 30
0.0
 40
0
 41
0
  0
VERTEX
  8
0
 10
2.52056
 20
5.03689
 30
0.0
 40
0
 41
0
  0
SEQEND
 8
0
  0
POLYLINE
  8
0
 62
     7
 66
     1
 10
0
 20
0
 30
0.0
 70
     1
 40
0
 41
0
  0
VERTEX
  8
0
 10
2.53494
 20
5.05236
 30
0.0
 40
0
 41
0
  0
VERTEX
  8
0
 10
2.53907
 20
5.04878
 30
0.0
 40
0
 41
0
  0
VERTEX
  8
0
 10
2.55344
 20
5.02929
 30
0.0
 40
0
 41
0
  0
VERTEX
  8
0
 10
2.55946
 20
5.00776
 30
0.0
 40
0
 41
0
  0
VERTEX
  8
0
 10
2.55946
 20
5.0031
 30
0.0
 40
0
 41
0
  0
VERTEX
  8
0
 10
2.5594
 20
4.99849
 30
0.0
 40
0
 41
0
  0
VERTEX
  8
0
 10
2.53803
 20
4.95253
 30
0.0
 40
0
 41
0
  0
VERTEX
  8
0
 10
2.53381
 20
4.94792
 30
0.0
 40
0
 41
0
  0
VERTEX
  8
0
 10
2.52957
 20
4.94342
 30
0.0
 40
0
 41
0
  0
VERTEX
  8
0
 10
2.4846
 20
4.91797
 30
0.0
 40
0
 41
0
  0
VERTEX
  8
0
 10
2.47982
 20
4.91737
 30
0.0
 40
0
 41
0
  0
VERTEX
  8
0
 10
2.47504
 20
4.91689
 30
0.0
 40
0
 41
0
  0
VERTEX
  8
0
 10
2.45221
 20
4.92042
 30
0.0
 40
0
 41
0
  0
VERTEX
  8
0
 10
2.43067
 20
4.93213
 30
0.0
 40
0
 41
0
  0
VERTEX
  8
0
 10
2.42654
 20
4.93571
 30
0.0
 40
0
 41
0
  0
VERTEX
  8
0
 10
2.42236
 20
4.93935
 30
0.0
 40
0
 41
0
  0
VERTEX
  8
0
 10
2.40793
 20
4.95893
 30
0.0
 40
0
 41
0
  0
VERTEX
  8
0
 10
2.40181
 20
4.98053
 30
0.0
 40
0
 41
0
  0
VERTEX
  8
0
 10
2.40186
 20
4.98514
 30
0.0
 40
0
 41
0
  0
VERTEX
  8
0
 10
2.40192
 20
4.98981
 30
0.0
 40
0
 41
0
  0
VERTEX
  8
0
 10
2.42344
 20
5.03564
 30
0.0
 40
0
 41
0
  0
VERTEX
  8
0
 10
2.42768
 20
5.04015
 30
0.0
 40
0
 41
0
  0
VERTEX
  8
0
 10
2.43192
 20
5.04476
 30
0.0
 40
0
 41
0
  0
VERTEX
  8
0
 10
2.47678
 20
5.07026
 30
0.0
 40
0
 41
0
  0
VERTEX
  8
0
 10
2.48156
 20
5.07081
 30
0.0
 40
0
 41
0
  0
VERTEX
  8
0
 10
2.48628
 20
5.07135
 30
0.0
 40
0
 41
0
  0
VERTEX
  8
0
 10
2.50911
 20
5.06782
 30
0.0
 40
0
 41
0
  0
VERTEX
  8
0
 10
2.53076
 20
5.05599
 30
0.0
 40
0
 41
0
  0
VERTEX
  8
0
 10
2.53494
 20
5.05236
 30
0.0
 40
0
 41
0
  0
SEQEND
 8
0
  0
POLYLINE
  8
0
 62
     7
 66
     1
 10
0
 20
0
 30
0.0
 70
     1
 40
0
 41
0
  0
VERTEX
  8
0
 10
2.69097
 20
4.9101
 30
0.0
 40
0
 41
0
  0
VERTEX
  8
0
 10
2.69353
 20
4.91206
 30
0.0
 40
0
 41
0
  0
VERTEX
  8
0
 10
2.71935
 20
4.92339
 30
0.0
 40
0
 41
0
  0
VERTEX
  8
0
 10
2.72194
 20
4.92372
 30
0.0
 40
0
 41
0
  0
VERTEX
  8
0
 10
2.7245
 20
4.9241
 30
0.0
 40
0
 41
0
  0
VERTEX
  8
0
 10
2.75114
 20
4.92008
 30
0.0
 40
0
 41
0
  0
VERTEX
  8
0
 10
2.7539
 20
4.91889
 30
0.0
 40
0
 41
0
  0
VERTEX
  8
0
 10
2.7576
 20
4.91737
 30
0.0
 40
0
 41
0
  0
VERTEX
  8
0
 10
2.77192
 20
4.90685
 30
0.0
 40
0
 41
0
  0
VERTEX
  8
0
 10
2.78065
 20
4.89274
 30
0.0
 40
0
 41
0
  0
VERTEX
  8
0
 10
2.78157
 20
4.88938
 30
0.0
 40
0
 41
0
  0
VERTEX
  8
0
 10
2.78244
 20
4.88607
 30
0.0
 40
0
 41
0
  0
VERTEX
  8
0
 10
2.77669
 20
4.84625
 30
0.0
 40
0
 41
0
  0
VERTEX
  8
0
 10
2.77462
 20
4.84164
 30
0.0
 40
0
 41
0
  0
VERTEX
  8
0
 10
2.73779
 20
4.75874
 30
0.0
 40
0
 41
0
  0
VERTEX
  8
0
 10
2.71425
 20
4.76867
 30
0.0
 40
0
 41
0
  0
VERTEX
  8
0
 10
2.75082
 20
4.85081
 30
0.0
 40
0
 41
0
  0
VERTEX
  8
0
 10
2.75228
 20
4.85411
 30
0.0
 40
0
 41
0
  0
VERTEX
  8
0
 10
2.75706
 20
4.88108
 30
0.0
 40
0
 41
0
  0
VERTEX
  8
0
 10
2.75657
 20
4.88314
 30
0.0
 40
0
 41
0
  0
VERTEX
  8
0
 10
2.75603
 20
4.88525
 30
0.0
 40
0
 41
0
  0
VERTEX
  8
0
 10
2.74115
 20
4.90093
 30
0.0
 40
0
 41
0
  0
VERTEX
  8
0
 10
2.73872
 20
4.90196
 30
0.0
 40
0
 41
0
  0
VERTEX
  8
0
 10
2.73568
 20
4.90326
 30
0.0
 40
0
 41
0
  0
VERTEX
  8
0
 10
2.70736
 20
4.90365
 30
0.0
 40
0
 41
0
  0
VERTEX
  8
0
 10
2.70475
 20
4.90246
 30
0.0
 40
0
 41
0
  0
VERTEX
  8
0
 10
2.7021
 20
4.90126
 30
0.0
 40
0
 41
0
  0
VERTEX
  8
0
 10
2.68153
 20
4.87847
 30
0.0
 40
0
 41
0
  0
VERTEX
  8
0
 10
2.68007
 20
4.87511
 30
0.0
 40
0
 41
0
  0
VERTEX
  8
0
 10
2.64556
 20
4.79753
 30
0.0
 40
0
 41
0
  0
VERTEX
  8
0
 10
2.62201
 20
4.8074
 30
0.0
 40
0
 41
0
  0
VERTEX
  8
0
 10
2.65858
 20
4.88954
 30
0.0
 40
0
 41
0
  0
VERTEX
  8
0
 10
2.66004
 20
4.89285
 30
0.0
 40
0
 41
0
  0
VERTEX
  8
0
 10
2.66482
 20
4.91982
 30
0.0
 40
0
 41
0
  0
VERTEX
  8
0
 10
2.66433
 20
4.92188
 30
0.0
 40
0
 41
0
  0
VERTEX
  8
0
 10
2.66385
 20
4.92399
 30
0.0
 40
0
 41
0
  0
VERTEX
  8
0
 10
2.64871
 20
4.93983
 30
0.0
 40
0
 41
0
  0
VERTEX
  8
0
 10
2.64621
 20
4.94086
 30
0.0
 40
0
 41
0
  0
VERTEX
  8
0
 10
2.64324
 20
4.94217
 30
0.0
 40
0
 41
0
  0
VERTEX
  8
0
 10
2.61507
 20
4.94233
 30
0.0
 40
0
 41
0
  0
VERTEX
  8
0
 10
2.61247
 20
4.94108
 30
0.0
 40
0
 41
0
  0
VERTEX
  8
0
 10
2.60981
 20
4.93989
 30
0.0
 40
0
 41
0
  0
VERTEX
  8
0
 10
2.58931
 20
4.91726
 30
0.0
 40
0
 41
0
  0
VERTEX
  8
0
 10
2.58783
 20
4.9139
 30
0.0
 40
0
 41
0
  0
VERTEX
  8
0
 10
2.55333
 20
4.83632
 30
0.0
 40
0
 41
0
  0
VERTEX
  8
0
 10
2.52979
 20
4.84619
 30
0.0
 40
0
 41
0
  0
VERTEX
  8
0
 10
2.59088
 20
4.98351
 30
0.0
 40
0
 41
0
  0
VERTEX
  8
0
 10
2.61442
 20
4.97358
 30
0.0
 40
0
 41
0
  0
VERTEX
  8
0
 10
2.60493
 20
4.95226
 30
0.0
 40
0
 41
0
  0
VERTEX
  8
0
 10
2.60721
 20
4.95383
 30
0.0
 40
0
 41
0
  0
VERTEX
  8
0
 10
2.6301
 20
4.96262
 30
0.0
 40
0
 41
0
  0
VERTEX
  8
0
 10
2.63243
 20
4.96283
 30
0.0
 40
0
 41
0
  0
VERTEX
  8
0
 10
2.63471
 20
4.96306
 30
0.0
 40
0
 41
0
  0
VERTEX
  8
0
 10
2.65907
 20
4.95871
 30
0.0
 40
0
 41
0
  0
VERTEX
  8
0
 10
2.66168
 20
4.95763
 30
0.0
 40
0
 41
0
  0
VERTEX
  8
0
 10
2.66422
 20
4.95654
 30
0.0
 40
0
 41
0
  0
VERTEX
  8
0
 10
2.68338
 20
4.94103
 30
0.0
 40
0
 41
0
  0
VERTEX
  8
0
 10
2.68463
 20
4.93896
 30
0.0
 40
0
 41
0
  0
VERTEX
  8
0
 10
2.68587
 20
4.93696
 30
0.0
 40
0
 41
0
  0
VERTEX
  8
0
 10
2.69114
 20
4.91292
 30
0.0
 40
0
 41
0
  0
VERTEX
  8
0
 10
2.69097
 20
4.9101
 30
0.0
 40
0
 41
0
  0
SEQEND
 8
0
  0
POLYLINE
  8
0
 62
     7
 66
     1
 10
0
 20
0
 30
0.0
 70
     1
 40
0
 41
0
  0
VERTEX
  8
0
 10
2.47076
 20
6.29378
 30
0.0
 40
0
 41
0
  0
VERTEX
  8
0
 10
2.51421
 20
6.23292
 30
0.0
 40
0
 41
0
  0
VERTEX
  8
0
 10
2.54312
 20
6.25358
 30
0.0
 40
0
 41
0
  0
VERTEX
  8
0
 10
2.54579
 20
6.25549
 30
0.0
 40
0
 41
0
  0
VERTEX
  8
0
 10
2.56174
 20
6.27686
 30
0.0
 40
0
 41
0
  0
VERTEX
  8
0
 10
2.56228
 20
6.27919
 30
0.0
 40
0
 41
0
  0
VERTEX
  8
0
 10
2.56278
 20
6.28157
 30
0.0
 40
0
 41
0
  0
VERTEX
  8
0
 10
2.55664
 20
6.30556
 30
0.0
 40
0
 41
0
  0
VERTEX
  8
0
 10
2.5549
 20
6.308
 30
0.0
 40
0
 41
0
  0
VERTEX
  8
0
 10
2.55317
 20
6.31044
 30
0.0
 40
0
 41
0
  0
VERTEX
  8
0
 10
2.5325
 20
6.32394
 30
0.0
 40
0
 41
0
  0
VERTEX
  8
0
 10
2.53011
 20
6.32422
 30
0.0
 40
0
 41
0
  0
VERTEX
  8
0
 10
2.52767
 20
6.32449
 30
0.0
 40
0
 41
0
  0
VERTEX
  8
0
 10
2.50233
 20
6.31635
 30
0.0
 40
0
 41
0
  0
VERTEX
  8
0
 10
2.49968
 20
6.31446
 30
0.0
 40
0
 41
0
  0
VERTEX
  8
0
 10
2.47076
 20
6.29378
 30
0.0
 40
0
 41
0
  0
SEQEND
 8
0
  0
POLYLINE
  8
0
 62
     7
 66
     1
 10
0
 20
0
 30
0.0
 70
     1
 40
0
 41
0
  0
VERTEX
  8
0
 10
2.43494
 20
6.29542
 30
0.0
 40
0
 41
0
  0
VERTEX
  8
0
 10
2.48682
 20
6.33247
 30
0.0
 40
0
 41
0
  0
VERTEX
  8
0
 10
2.49154
 20
6.33589
 30
0.0
 40
0
 41
0
  0
VERTEX
  8
0
 10
2.53489
 20
6.35118
 30
0.0
 40
0
 41
0
  0
VERTEX
  8
0
 10
2.53879
 20
6.35086
 30
0.0
 40
0
 41
0
  0
VERTEX
  8
0
 10
2.54269
 20
6.35058
 30
0.0
 40
0
 41
0
  0
VERTEX
  8
0
 10
2.5606
 20
6.34358
 30
0.0
 40
0
 41
0
  0
VERTEX
  8
0
 10
2.57633
 20
6.32926
 30
0.0
 40
0
 41
0
  0
VERTEX
  8
0
 10
2.57915
 20
6.32531
 30
0.0
 40
0
 41
0
  0
VERTEX
  8
0
 10
2.58197
 20
6.32135
 30
0.0
 40
0
 41
0
  0
VERTEX
  8
0
 10
2.59131
 20
6.28239
 30
0.0
 40
0
 41
0
  0
VERTEX
  8
0
 10
2.59033
 20
6.2786
 30
0.0
 40
0
 41
0
  0
VERTEX
  8
0
 10
2.58936
 20
6.27485
 30
0.0
 40
0
 41
0
  0
VERTEX
  8
0
 10
2.56071
 20
6.23893
 30
0.0
 40
0
 41
0
  0
VERTEX
  8
0
 10
2.55599
 20
6.23551
 30
0.0
 40
0
 41
0
  0
VERTEX
  8
0
 10
2.52707
 20
6.2149
 30
0.0
 40
0
 41
0
  0
VERTEX
  8
0
 10
2.57357
 20
6.14979
 30
0.0
 40
0
 41
0
  0
VERTEX
  8
0
 10
2.55057
 20
6.1334
 30
0.0
 40
0
 41
0
  0
VERTEX
  8
0
 10
2.43494
 20
6.29542
 30
0.0
 40
0
 41
0
  0
SEQEND
 8
0
  0
POLYLINE
  8
0
 62
     7
 66
     1
 10
0
 20
0
 30
0.0
 70
     1
 40
0
 41
0
  0
VERTEX
  8
0
 10
2.78353
 20
6.36057
 30
0.0
 40
0
 41
0
  0
VERTEX
  8
0
 10
2.81472
 20
6.27572
 30
0.0
 40
0
 41
0
  0
VERTEX
  8
0
 10
2.7909
 20
6.26633
 30
0.0
 40
0
 41
0
  0
VERTEX
  8
0
 10
2.75999
 20
6.35042
 30
0.0
 40
0
 41
0
  0
VERTEX
  8
0
 10
2.75874
 20
6.35379
 30
0.0
 40
0
 41
0
  0
VERTEX
  8
0
 10
2.74289
 20
6.37603
 30
0.0
 40
0
 41
0
  0
VERTEX
  8
0
 10
2.74094
 20
6.37711
 30
0.0
 40
0
 41
0
  0
VERTEX
  8
0
 10
2.73899
 20
6.37825
 30
0.0
 40
0
 41
0
  0
VERTEX
  8
0
 10
2.71582
 20
6.37864
 30
0.0
 40
0
 41
0
  0
VERTEX
  8
0
 10
2.71317
 20
6.37756
 30
0.0
 40
0
 41
0
  0
VERTEX
  8
0
 10
2.7099
 20
6.37631
 30
0.0
 40
0
 41
0
  0
VERTEX
  8
0
 10
2.68821
 20
6.35633
 30
0.0
 40
0
 41
0
  0
VERTEX
  8
0
 10
2.68707
 20
6.35357
 30
0.0
 40
0
 41
0
  0
VERTEX
  8
0
 10
2.68593
 20
6.35086
 30
0.0
 40
0
 41
0
  0
VERTEX
  8
0
 10
2.68658
 20
6.32015
 30
0.0
 40
0
 41
0
  0
VERTEX
  8
0
 10
2.68787
 20
6.31668
 30
0.0
 40
0
 41
0
  0
VERTEX
  8
0
 10
2.71712
 20
6.23719
 30
0.0
 40
0
 41
0
  0
VERTEX
  8
0
 10
2.69308
 20
6.22775
 30
0.0
 40
0
 41
0
  0
VERTEX
  8
0
 10
2.62131
 20
6.42307
 30
0.0
 40
0
 41
0
  0
VERTEX
  8
0
 10
2.64529
 20
6.43257
 30
0.0
 40
0
 41
0
  0
VERTEX
  8
0
 10
2.67344
 20
6.35596
 30
0.0
 40
0
 41
0
  0
VERTEX
  8
0
 10
2.6741
 20
6.35867
 30
0.0
 40
0
 41
0
  0
VERTEX
  8
0
 10
2.685
 20
6.38108
 30
0.0
 40
0
 41
0
  0
VERTEX
  8
0
 10
2.68658
 20
6.38286
 30
0.0
 40
0
 41
0
  0
VERTEX
  8
0
 10
2.6881
 20
6.38471
 30
0.0
 40
0
 41
0
  0
VERTEX
  8
0
 10
2.70856
 20
6.39871
 30
0.0
 40
0
 41
0
  0
VERTEX
  8
0
 10
2.7111
 20
6.39968
 30
0.0
 40
0
 41
0
  0
VERTEX
  8
0
 10
2.71528
 20
6.40136
 30
0.0
 40
0
 41
0
  0
VERTEX
  8
0
 10
2.75142
 20
6.40126
 30
0.0
 40
0
 41
0
  0
VERTEX
  8
0
 10
2.7545
 20
6.39958
 30
0.0
 40
0
 41
0
  0
VERTEX
  8
0
 10
2.75754
 20
6.39794
 30
0.0
 40
0
 41
0
  0
VERTEX
  8
0
 10
2.78174
 20
6.36546
 30
0.0
 40
0
 41
0
  0
VERTEX
  8
0
 10
2.78353
 20
6.36057
 30
0.0
 40
0
 41
0
  0
SEQEND
 8
0
  0
POLYLINE
  8
0
 62
     7
 66
     1
 10
0
 20
0
 30
0.0
 70
     1
 40
0
 41
0
  0
VERTEX
  8
0
 10
2.91162
 20
6.42914
 30
0.0
 40
0
 41
0
  0
VERTEX
  8
0
 10
2.90821
 20
6.42871
 30
0.0
 40
0
 41
0
  0
VERTEX
  8
0
 10
2.88276
 20
6.41206
 30
0.0
 40
0
 41
0
  0
VERTEX
  8
0
 10
2.88108
 20
6.40918
 30
0.0
 40
0
 41
0
  0
VERTEX
  8
0
 10
2.87935
 20
6.40636
 30
0.0
 40
0
 41
0
  0
VERTEX
  8
0
 10
2.87294
 20
6.36963
 30
0.0
 40
0
 41
0
  0
VERTEX
  8
0
 10
2.87337
 20
6.36513
 30
0.0
 40
0
 41
0
  0
VERTEX
  8
0
 10
2.87381
 20
6.36068
 30
0.0
 40
0
 41
0
  0
VERTEX
  8
0
 10
2.88693
 20
6.3265
 30
0.0
 40
0
 41
0
  0
VERTEX
  8
0
 10
2.88917
 20
6.32417
 30
0.0
 40
0
 41
0
  0
VERTEX
  8
0
 10
2.89133
 20
6.32189
 30
0.0
 40
0
 41
0
  0
VERTEX
  8
0
 10
2.91943
 20
6.31272
 30
0.0
 40
0
 41
0
  0
VERTEX
  8
0
 10
2.92285
 20
6.31315
 30
0.0
 40
0
 41
0
  0
VERTEX
  8
0
 10
2.92622
 20
6.31364
 30
0.0
 40
0
 41
0
  0
VERTEX
  8
0
 10
2.95156
 20
6.33029
 30
0.0
 40
0
 41
0
  0
VERTEX
  8
0
 10
2.95329
 20
6.33311
 30
0.0
 40
0
 41
0
  0
VERTEX
  8
0
 10
2.95497
 20
6.33599
 30
0.0
 40
0
 41
0
  0
VERTEX
  8
0
 10
2.96137
 20
6.37272
 30
0.0
 40
0
 41
0
  0
VERTEX
  8
0
 10
2.96094
 20
6.37717
 30
0.0
 40
0
 41
0
  0
VERTEX
  8
0
 10
2.9605
 20
6.38162
 30
0.0
 40
0
 41
0
  0
VERTEX
  8
0
 10
2.94726
 20
6.41553
 30
0.0
 40
0
 41
0
  0
VERTEX
  8
0
 10
2.9451
 20
6.41781
 30
0.0
 40
0
 41
0
  0
VERTEX
  8
0
 10
2.94287
 20
6.42019
 30
0.0
 40
0
 41
0
  0
VERTEX
  8
0
 10
2.91499
 20
6.42964
 30
0.0
 40
0
 41
0
  0
VERTEX
  8
0
 10
2.91162
 20
6.42914
 30
0.0
 40
0
 41
0
  0
SEQEND
 8
0
  0
POLYLINE
  8
0
 62
     7
 66
     1
 10
0
 20
0
 30
0.0
 70
     1
 40
0
 41
0
  0
VERTEX
  8
0
 10
2.90961
 20
6.45008
 30
0.0
 40
0
 41
0
  0
VERTEX
  8
0
 10
2.9151
 20
6.45085
 30
0.0
 40
0
 41
0
  0
VERTEX
  8
0
 10
2.93946
 20
6.44894
 30
0.0
 40
0
 41
0
  0
VERTEX
  8
0
 10
2.95979
 20
6.43935
 30
0.0
 40
0
 41
0
  0
VERTEX
  8
0
 10
2.96326
 20
6.43625
 30
0.0
 40
0
 41
0
  0
VERTEX
  8
0
 10
2.96674
 20
6.43321
 30
0.0
 40
0
 41
0
  0
VERTEX
  8
0
 10
2.97976
 20
6.41325
 30
0.0
 40
0
 41
0
  0
VERTEX
  8
0
 10
2.98708
 20
6.38704
 30
0.0
 40
0
 41
0
  0
VERTEX
  8
0
 10
2.98768
 20
6.38086
 30
0.0
 40
0
 41
0
  0
VERTEX
  8
0
 10
2.98828
 20
6.37472
 30
0.0
 40
0
 41
0
  0
VERTEX
  8
0
 10
2.98617
 20
6.34728
 30
0.0
 40
0
 41
0
  0
VERTEX
  8
0
 10
2.97726
 20
6.32422
 30
0.0
 40
0
 41
0
  0
VERTEX
  8
0
 10
2.9745
 20
6.32026
 30
0.0
 40
0
 41
0
  0
VERTEX
  8
0
 10
2.97168
 20
6.31635
 30
0.0
 40
0
 41
0
  0
VERTEX
  8
0
 10
2.95367
 20
6.30154
 30
0.0
 40
0
 41
0
  0
VERTEX
  8
0
 10
2.93033
 20
6.29297
 30
0.0
 40
0
 41
0
  0
VERTEX
  8
0
 10
2.92486
 20
6.29221
 30
0.0
 40
0
 41
0
  0
VERTEX
  8
0
 10
2.91932
 20
6.2915
 30
0.0
 40
0
 41
0
  0
VERTEX
  8
0
 10
2.89492
 20
6.29346
 30
0.0
 40
0
 41
0
  0
VERTEX
  8
0
 10
2.87451
 20
6.303
 30
0.0
 40
0
 41
0
  0
VERTEX
  8
0
 10
2.87104
 20
6.30604
 30
0.0
 40
0
 41
0
  0
VERTEX
  8
0
 10
2.86757
 20
6.30914
 30
0.0
 40
0
 41
0
  0
VERTEX
  8
0
 10
2.8546
 20
6.32921
 30
0.0
 40
0
 41
0
  0
VERTEX
  8
0
 10
2.84739
 20
6.35536
 30
0.0
 40
0
 41
0
  0
VERTEX
  8
0
 10
2.84679
 20
6.36149
 30
0.0
 40
0
 41
0
  0
VERTEX
  8
0
 10
2.84619
 20
6.36768
 30
0.0
 40
0
 41
0
  0
VERTEX
  8
0
 10
2.84825
 20
6.39518
 30
0.0
 40
0
 41
0
  0
VERTEX
  8
0
 10
2.85704
 20
6.41813
 30
0.0
 40
0
 41
0
  0
VERTEX
  8
0
 10
2.85981
 20
6.42204
 30
0.0
 40
0
 41
0
  0
VERTEX
  8
0
 10
2.86257
 20
6.426
 30
0.0
 40
0
 41
0
  0
VERTEX
  8
0
 10
2.88064
 20
6.44081
 30
0.0
 40
0
 41
0
  0
VERTEX
  8
0
 10
2.90408
 20
6.44933
 30
0.0
 40
0
 41
0
  0
VERTEX
  8
0
 10
2.90961
 20
6.45008
 30
0.0
 40
0
 41
0
  0
SEQEND
 8
0
  0
POLYLINE
  8
0
 62
     7
 66
     1
 10
0
 20
0
 30
0.0
 70
     1
 40
0
 41
0
  0
VERTEX
  8
0
 10
3.17936
 20
6.375
 30
0.0
 40
0
 41
0
  0
VERTEX
  8
0
 10
3.17763
 20
6.36285
 30
0.0
 40
0
 41
0
  0
VERTEX
  8
0
 10
3.06228
 20
6.37354
 30
0.0
 40
0
 41
0
  0
VERTEX
  8
0
 10
3.06196
 20
6.36925
 30
0.0
 40
0
 41
0
  0
VERTEX
  8
0
 10
3.07032
 20
6.33544
 30
0.0
 40
0
 41
0
  0
VERTEX
  8
0
 10
3.07232
 20
6.33296
 30
0.0
 40
0
 41
0
  0
VERTEX
  8
0
 10
3.07433
 20
6.33051
 30
0.0
 40
0
 41
0
  0
VERTEX
  8
0
 10
3.10525
 20
6.3164
 30
0.0
 40
0
 41
0
  0
VERTEX
  8
0
 10
3.10943
 20
6.31597
 30
0.0
 40
0
 41
0
  0
VERTEX
  8
0
 10
3.11182
 20
6.31575
 30
0.0
 40
0
 41
0
  0
VERTEX
  8
0
 10
3.13558
 20
6.31651
 30
0.0
 40
0
 41
0
  0
VERTEX
  8
0
 10
3.13792
 20
6.31689
 30
0.0
 40
0
 41
0
  0
VERTEX
  8
0
 10
3.14025
 20
6.31728
 30
0.0
 40
0
 41
0
  0
VERTEX
  8
0
 10
3.16396
 20
6.324
 30
0.0
 40
0
 41
0
  0
VERTEX
  8
0
 10
3.16635
 20
6.32493
 30
0.0
 40
0
 41
0
  0
VERTEX
  8
0
 10
3.16303
 20
6.30143
 30
0.0
 40
0
 41
0
  0
VERTEX
  8
0
 10
3.16064
 20
6.30072
 30
0.0
 40
0
 41
0
  0
VERTEX
  8
0
 10
3.13656
 20
6.29568
 30
0.0
 40
0
 41
0
  0
VERTEX
  8
0
 10
3.13417
 20
6.29536
 30
0.0
 40
0
 41
0
  0
VERTEX
  8
0
 10
3.13172
 20
6.29508
 30
0.0
 40
0
 41
0
  0
VERTEX
  8
0
 10
3.10736
 20
6.29486
 30
0.0
 40
0
 41
0
  0
VERTEX
  8
0
 10
3.10499
 20
6.29508
 30
0.0
 40
0
 41
0
  0
VERTEX
  8
0
 10
3.09885
 20
6.29568
 30
0.0
 40
0
 41
0
  0
VERTEX
  8
0
 10
3.07292
 20
6.30344
 30
0.0
 40
0
 41
0
  0
VERTEX
  8
0
 10
3.05306
 20
6.31771
 30
0.0
 40
0
 41
0
  0
VERTEX
  8
0
 10
3.05003
 20
6.3215
 30
0.0
 40
0
 41
0
  0
VERTEX
  8
0
 10
3.04693
 20
6.32536
 30
0.0
 40
0
 41
0
  0
VERTEX
  8
0
 10
3.03749
 20
6.34776
 30
0.0
 40
0
 41
0
  0
VERTEX
  8
0
 10
3.03586
 20
6.37446
 30
0.0
 40
0
 41
0
  0
VERTEX
  8
0
 10
3.03674
 20
6.38043
 30
0.0
 40
0
 41
0
  0
VERTEX
  8
0
 10
3.0376
 20
6.38661
 30
0.0
 40
0
 41
0
  0
VERTEX
  8
0
 10
3.04644
 20
6.41325
 30
0.0
 40
0
 41
0
  0
VERTEX
  8
0
 10
3.06131
 20
6.43408
 30
0.0
 40
0
 41
0
  0
VERTEX
  8
0
 10
3.06521
 20
6.43739
 30
0.0
 40
0
 41
0
  0
VERTEX
  8
0
 10
3.06907
 20
6.44075
 30
0.0
 40
0
 41
0
  0
VERTEX
  8
0
 10
3.09131
 20
6.45161
 30
0.0
 40
0
 41
0
  0
VERTEX
  8
0
 10
3.11719
 20
6.45475
 30
0.0
 40
0
 41
0
  0
VERTEX
  8
0
 10
3.12294
 20
6.45421
 30
0.0
 40
0
 41
0
  0
VERTEX
  8
0
 10
3.12804
 20
6.45372
 30
0.0
 40
0
 41
0
  0
VERTEX
  8
0
 10
3.14979
 20
6.44672
 30
0.0
 40
0
 41
0
  0
VERTEX
  8
0
 10
3.16629
 20
6.43354
 30
0.0
 40
0
 41
0
  0
VERTEX
  8
0
 10
3.16883
 20
6.42996
 30
0.0
 40
0
 41
0
  0
VERTEX
  8
0
 10
3.17133
 20
6.42643
 30
0.0
 40
0
 41
0
  0
VERTEX
  8
0
 10
3.17904
 20
6.4056
 30
0.0
 40
0
 41
0
  0
VERTEX
  8
0
 10
3.18012
 20
6.38064
 30
0.0
 40
0
 41
0
  0
VERTEX
  8
0
 10
3.17936
 20
6.375
 30
0.0
 40
0
 41
0
  0
SEQEND
 8
0
  0
POLYLINE
  8
0
 62
     7
 66
     1
 10
0
 20
0
 30
0.0
 70
     1
 40
0
 41
0
  0
VERTEX
  8
0
 10
3.15528
 20
6.3846
 30
0.0
 40
0
 41
0
  0
VERTEX
  8
0
 10
3.15571
 20
6.38803
 30
0.0
 40
0
 41
0
  0
VERTEX
  8
0
 10
3.14985
 20
6.41601
 30
0.0
 40
0
 41
0
  0
VERTEX
  8
0
 10
3.14828
 20
6.41818
 30
0.0
 40
0
 41
0
  0
VERTEX
  8
0
 10
3.14671
 20
6.42042
 30
0.0
 40
0
 41
0
  0
VERTEX
  8
0
 10
3.12332
 20
6.43283
 30
0.0
 40
0
 41
0
  0
VERTEX
  8
0
 10
3.12028
 20
6.43311
 30
0.0
 40
0
 41
0
  0
VERTEX
  8
0
 10
3.11675
 20
6.43343
 30
0.0
 40
0
 41
0
  0
VERTEX
  8
0
 10
3.08735
 20
6.42626
 30
0.0
 40
0
 41
0
  0
VERTEX
  8
0
 10
3.08496
 20
6.42449
 30
0.0
 40
0
 41
0
  0
VERTEX
  8
0
 10
3.08257
 20
6.42275
 30
0.0
 40
0
 41
0
  0
VERTEX
  8
0
 10
3.06662
 20
6.39632
 30
0.0
 40
0
 41
0
  0
VERTEX
  8
0
 10
3.06581
 20
6.39279
 30
0.0
 40
0
 41
0
  0
VERTEX
  8
0
 10
3.15528
 20
6.3846
 30
0.0
 40
0
 41
0
  0
SEQEND
 8
0
  0
POLYLINE
  8
0
 62
     7
 66
     1
 10
0
 20
0
 30
0.0
 70
     1
 40
0
 41
0
  0
VERTEX
  8
0
 10
3.36128
 20
6.33051
 30
0.0
 40
0
 41
0
  0
VERTEX
  8
0
 10
3.3279
 20
6.2436
 30
0.0
 40
0
 41
0
  0
VERTEX
  8
0
 10
3.30425
 20
6.25146
 30
0.0
 40
0
 41
0
  0
VERTEX
  8
0
 10
3.33729
 20
6.33762
 30
0.0
 40
0
 41
0
  0
VERTEX
  8
0
 10
3.3386
 20
6.34104
 30
0.0
 40
0
 41
0
  0
VERTEX
  8
0
 10
3.34174
 20
6.36876
 30
0.0
 40
0
 41
0
  0
VERTEX
  8
0
 10
3.3411
 20
6.37088
 30
0.0
 40
0
 41
0
  0
VERTEX
  8
0
 10
3.34039
 20
6.37304
 30
0.0
 40
0
 41
0
  0
VERTEX
  8
0
 10
3.32374
 20
6.38813
 30
0.0
 40
0
 41
0
  0
VERTEX
  8
0
 10
3.32107
 20
6.389
 30
0.0
 40
0
 41
0
  0
VERTEX
  8
0
 10
3.31787
 20
6.39008
 30
0.0
 40
0
 41
0
  0
VERTEX
  8
0
 10
3.28879
 20
6.38835
 30
0.0
 40
0
 41
0
  0
VERTEX
  8
0
 10
3.28618
 20
6.38688
 30
0.0
 40
0
 41
0
  0
VERTEX
  8
0
 10
3.28353
 20
6.38547
 30
0.0
 40
0
 41
0
  0
VERTEX
  8
0
 10
3.26372
 20
6.36079
 30
0.0
 40
0
 41
0
  0
VERTEX
  8
0
 10
3.26238
 20
6.35726
 30
0.0
 40
0
 41
0
  0
VERTEX
  8
0
 10
3.23113
 20
6.27588
 30
0.0
 40
0
 41
0
  0
VERTEX
  8
0
 10
3.20736
 20
6.28381
 30
0.0
 40
0
 41
0
  0
VERTEX
  8
0
 10
3.26264
 20
6.42785
 30
0.0
 40
0
 41
0
  0
VERTEX
  8
0
 10
3.2864
 20
6.41986
 30
0.0
 40
0
 41
0
  0
VERTEX
  8
0
 10
3.27783
 20
6.39751
 30
0.0
 40
0
 41
0
  0
VERTEX
  8
0
 10
3.28006
 20
6.39925
 30
0.0
 40
0
 41
0
  0
VERTEX
  8
0
 10
3.30285
 20
6.40983
 30
0.0
 40
0
 41
0
  0
VERTEX
  8
0
 10
3.30518
 20
6.41026
 30
0.0
 40
0
 41
0
  0
VERTEX
  8
0
 10
3.30751
 20
6.41069
 30
0.0
 40
0
 41
0
  0
VERTEX
  8
0
 10
3.33171
 20
6.40869
 30
0.0
 40
0
 41
0
  0
VERTEX
  8
0
 10
3.33425
 20
6.40782
 30
0.0
 40
0
 41
0
  0
VERTEX
  8
0
 10
3.33838
 20
6.40647
 30
0.0
 40
0
 41
0
  0
VERTEX
  8
0
 10
3.35454
 20
6.39675
 30
0.0
 40
0
 41
0
  0
VERTEX
  8
0
 10
3.36469
 20
6.38319
 30
0.0
 40
0
 41
0
  0
VERTEX
  8
0
 10
3.36583
 20
6.37989
 30
0.0
 40
0
 41
0
  0
VERTEX
  8
0
 10
3.36697
 20
6.37663
 30
0.0
 40
0
 41
0
  0
VERTEX
  8
0
 10
3.36811
 20
6.35781
 30
0.0
 40
0
 41
0
  0
VERTEX
  8
0
 10
3.36317
 20
6.3355
 30
0.0
 40
0
 41
0
  0
VERTEX
  8
0
 10
3.36128
 20
6.33051
 30
0.0
 40
0
 41
0
  0
SEQEND
 8
0
  0
POLYLINE
  8
0
 62
     7
 66
     1
 10
0
 20
0
 30
0.0
 70
     1
 40
0
 41
0
  0
VERTEX
  8
0
 10
3.4496
 20
6.35444
 30
0.0
 40
0
 41
0
  0
VERTEX
  8
0
 10
3.47146
 20
6.34289
 30
0.0
 40
0
 41
0
  0
VERTEX
  8
0
 10
3.39378
 20
6.20844
 30
0.0
 40
0
 41
0
  0
VERTEX
  8
0
 10
3.3719
 20
6.22
 30
0.0
 40
0
 41
0
  0
VERTEX
  8
0
 10
3.4496
 20
6.35444
 30
0.0
 40
0
 41
0
  0
SEQEND
 8
0
  0
POLYLINE
  8
0
 62
     7
 66
     1
 10
0
 20
0
 30
0.0
 70
     1
 40
0
 41
0
  0
VERTEX
  8
0
 10
3.47982
 20
6.40679
 30
0.0
 40
0
 41
0
  0
VERTEX
  8
0
 10
3.50168
 20
6.39518
 30
0.0
 40
0
 41
0
  0
VERTEX
  8
0
 10
3.48551
 20
6.36724
 30
0.0
 40
0
 41
0
  0
VERTEX
  8
0
 10
3.46365
 20
6.37879
 30
0.0
 40
0
 41
0
  0
VERTEX
  8
0
 10
3.47982
 20
6.40679
 30
0.0
 40
0
 41
0
  0
SEQEND
 8
0
  0
POLYLINE
  8
0
 62
     7
 66
     1
 10
0
 20
0
 30
0.0
 70
     1
 40
0
 41
0
  0
VERTEX
  8
0
 10
3.63585
 20
6.23112
 30
0.0
 40
0
 41
0
  0
VERTEX
  8
0
 10
3.54536
 20
6.20415
 30
0.0
 40
0
 41
0
  0
VERTEX
  8
0
 10
3.54124
 20
6.10715
 30
0.0
 40
0
 41
0
  0
VERTEX
  8
0
 10
3.51801
 20
6.12457
 30
0.0
 40
0
 41
0
  0
VERTEX
  8
0
 10
3.52115
 20
6.19879
 30
0.0
 40
0
 41
0
  0
VERTEX
  8
0
 10
3.44819
 20
6.17697
 30
0.0
 40
0
 41
0
  0
VERTEX
  8
0
 10
3.42492
 20
6.19439
 30
0.0
 40
0
 41
0
  0
VERTEX
  8
0
 10
3.52219
 20
6.22342
 30
0.0
 40
0
 41
0
  0
VERTEX
  8
0
 10
3.52572
 20
6.31369
 30
0.0
 40
0
 41
0
  0
VERTEX
  8
0
 10
3.54899
 20
6.29628
 30
0.0
 40
0
 41
0
  0
VERTEX
  8
0
 10
3.54628
 20
6.22885
 30
0.0
 40
0
 41
0
  0
VERTEX
  8
0
 10
3.61257
 20
6.24854
 30
0.0
 40
0
 41
0
  0
VERTEX
  8
0
 10
3.63585
 20
6.23112
 30
0.0
 40
0
 41
0
  0
SEQEND
 8
0
  0
ENDSEC
  0
EOF
